<svg width="956" height="176" viewBox="0 0 956 176" fill="none" xmlns="http://www.w3.org/2000/svg">
<path d="M48.72 19.92H48.4L44.08 28.8L32.64 49.92L21.2 28.8L16.88 19.92H16.56V60H6.56V4.16H18.48L32.8 31.44H33.12L47.28 4.16H58.72V60H48.72V19.92ZM71.8725 4.16H92.1925C95.8192 4.16 99.0992 4.74666 102.033 5.92C105.019 7.09333 107.553 8.85333 109.633 11.2C111.766 13.4933 113.393 16.4 114.513 19.92C115.686 23.3867 116.273 27.44 116.273 32.08C116.273 36.72 115.686 40.8 114.513 44.32C113.393 47.7867 111.766 50.6933 109.633 53.04C107.553 55.3333 105.019 57.0667 102.033 58.24C99.0992 59.4133 95.8192 60 92.1925 60H71.8725V4.16ZM92.1925 50.64C96.1392 50.64 99.2592 49.4933 101.553 47.2C103.899 44.8533 105.073 41.28 105.073 36.48V27.68C105.073 22.88 103.899 19.3333 101.553 17.04C99.2592 14.6933 96.1392 13.52 92.1925 13.52H82.4325V50.64H92.1925ZM148.709 60.96C145.029 60.96 141.695 60.3733 138.709 59.2C135.775 57.9733 133.242 56.16 131.109 53.76C129.029 51.36 127.429 48.4 126.309 44.88C125.189 41.3067 124.629 37.1733 124.629 32.48C124.629 27.7867 125.189 23.6267 126.309 20C127.429 16.32 129.029 13.2533 131.109 10.8C133.242 8.29333 135.775 6.4 138.709 5.12C141.695 3.84 145.029 3.2 148.709 3.2C153.722 3.2 157.882 4.26666 161.189 6.4C164.495 8.53333 167.135 11.76 169.109 16.08L160.069 20.88C159.269 18.3733 157.962 16.3733 156.149 14.88C154.335 13.3333 151.855 12.56 148.709 12.56C144.762 12.56 141.615 13.8933 139.269 16.56C136.975 19.2267 135.829 22.96 135.829 27.76V36.56C135.829 41.4133 136.975 45.1467 139.269 47.76C141.615 50.32 144.762 51.6 148.709 51.6C151.855 51.6 154.415 50.7467 156.389 49.04C158.415 47.3333 159.882 45.2267 160.789 42.72L169.349 47.76C167.322 51.92 164.629 55.1733 161.269 57.52C157.909 59.8133 153.722 60.96 148.709 60.96ZM200.277 13.52V60H189.717V13.52H173.877V4.16H216.117V13.52H200.277ZM20.332 132.816C16.252 132.816 12.784 132.091 9.928 130.64C7.11733 129.189 4.692 127.285 2.652 124.928L8.704 119.08C10.336 120.984 12.1493 122.435 14.144 123.432C16.184 124.429 18.428 124.928 20.876 124.928C23.6413 124.928 25.7267 124.339 27.132 123.16C28.5373 121.936 29.24 120.304 29.24 118.264C29.24 116.677 28.7867 115.385 27.88 114.388C26.9733 113.391 25.2733 112.665 22.78 112.212L18.292 111.532C8.81733 110.036 4.08 105.435 4.08 97.728C4.08 95.5973 4.46533 93.6707 5.236 91.948C6.052 90.2253 7.208 88.752 8.704 87.528C10.2 86.304 11.9907 85.3747 14.076 84.74C16.2067 84.06 18.6093 83.72 21.284 83.72C24.8653 83.72 27.9933 84.3093 30.668 85.488C33.3427 86.6667 35.632 88.412 37.536 90.724L31.416 96.504C30.2373 95.0533 28.8093 93.8747 27.132 92.968C25.4547 92.0613 23.3467 91.608 20.808 91.608C18.224 91.608 16.2747 92.1067 14.96 93.104C13.6907 94.056 13.056 95.416 13.056 97.184C13.056 98.9973 13.5773 100.335 14.62 101.196C15.6627 102.057 17.34 102.692 19.652 103.1L24.072 103.916C28.8773 104.777 32.4133 106.319 34.68 108.54C36.992 110.716 38.148 113.776 38.148 117.72C38.148 119.987 37.74 122.049 36.924 123.908C36.1533 125.721 34.9973 127.308 33.456 128.668C31.96 129.983 30.1013 131.003 27.88 131.728C25.704 132.453 23.188 132.816 20.332 132.816ZM64.1463 132V84.536H95.4263V92.492H73.1223V103.984H92.8423V111.94H73.1223V124.044H95.4263V132H64.1463ZM121.92 84.536H139.192C142.274 84.536 145.062 85.0347 147.556 86.032C150.094 87.0293 152.248 88.5253 154.016 90.52C155.829 92.4693 157.212 94.94 158.164 97.932C159.161 100.879 159.66 104.324 159.66 108.268C159.66 112.212 159.161 115.68 158.164 118.672C157.212 121.619 155.829 124.089 154.016 126.084C152.248 128.033 150.094 129.507 147.556 130.504C145.062 131.501 142.274 132 139.192 132H121.92V84.536ZM139.192 124.044C142.546 124.044 145.198 123.069 147.148 121.12C149.142 119.125 150.14 116.088 150.14 112.008V104.528C150.14 100.448 149.142 97.4333 147.148 95.484C145.198 93.4893 142.546 92.492 139.192 92.492H130.896V124.044H139.192ZM200.559 132.816C196.479 132.816 193.011 132.091 190.155 130.64C187.344 129.189 184.919 127.285 182.879 124.928L188.931 119.08C190.563 120.984 192.376 122.435 194.371 123.432C196.411 124.429 198.655 124.928 201.103 124.928C203.868 124.928 205.953 124.339 207.359 123.16C208.764 121.936 209.467 120.304 209.467 118.264C209.467 116.677 209.013 115.385 208.107 114.388C207.2 113.391 205.5 112.665 203.007 112.212L198.519 111.532C189.044 110.036 184.307 105.435 184.307 97.728C184.307 95.5973 184.692 93.6707 185.463 91.948C186.279 90.2253 187.435 88.752 188.931 87.528C190.427 86.304 192.217 85.3747 194.303 84.74C196.433 84.06 198.836 83.72 201.511 83.72C205.092 83.72 208.22 84.3093 210.895 85.488C213.569 86.6667 215.859 88.412 217.763 90.724L211.643 96.504C210.464 95.0533 209.036 93.8747 207.359 92.968C205.681 92.0613 203.573 91.608 201.035 91.608C198.451 91.608 196.501 92.1067 195.187 93.104C193.917 94.056 193.283 95.416 193.283 97.184C193.283 98.9973 193.804 100.335 194.847 101.196C195.889 102.057 197.567 102.692 199.879 103.1L204.299 103.916C209.104 104.777 212.64 106.319 214.907 108.54C217.219 110.716 218.375 113.776 218.375 117.72C218.375 119.987 217.967 122.049 217.151 123.908C216.38 125.721 215.224 127.308 213.683 128.668C212.187 129.983 210.328 131.003 208.107 131.728C205.931 132.453 203.415 132.816 200.559 132.816Z" fill="white"/>
<path d="M336.693 23.5254C334.916 23.5254 333.325 23.847 331.92 24.4902C330.532 25.1335 329.355 26.0645 328.391 27.2832C327.426 28.485 326.689 29.9492 326.182 31.6758C325.674 33.3854 325.42 35.3151 325.42 37.4648C325.42 40.3424 325.826 42.8223 326.639 44.9043C327.451 46.9694 328.687 48.5605 330.346 49.6777C332.005 50.778 334.104 51.3281 336.643 51.3281C338.217 51.3281 339.749 51.1758 341.238 50.8711C342.728 50.5664 344.268 50.1517 345.859 49.627V54.8066C344.353 55.3991 342.829 55.8307 341.289 56.1016C339.749 56.3724 337.971 56.5078 335.957 56.5078C332.165 56.5078 329.017 55.7207 326.512 54.1465C324.023 52.5723 322.161 50.3548 320.926 47.4941C319.707 44.6335 319.098 41.2819 319.098 37.4395C319.098 34.6296 319.487 32.0566 320.266 29.7207C321.044 27.3848 322.178 25.3704 323.668 23.6777C325.158 21.9681 326.994 20.6562 329.178 19.7422C331.378 18.8112 333.892 18.3457 336.719 18.3457C338.581 18.3457 340.409 18.5573 342.203 18.9805C344.014 19.3867 345.69 19.9707 347.23 20.7324L345.098 25.7598C343.811 25.1504 342.465 24.6257 341.061 24.1855C339.656 23.7454 338.2 23.5254 336.693 23.5254ZM383.627 56H377.559V39.2422H360.446V56H354.352V18.8789H360.446V34.0625H377.559V18.8789H383.627V56ZM393.974 56V18.8789H400.067V56H393.974ZM421.179 18.8789C425.97 18.8789 429.465 19.8607 431.665 21.8242C433.866 23.7878 434.966 26.5384 434.966 30.0762C434.966 31.6842 434.712 33.2161 434.205 34.6719C433.714 36.1107 432.901 37.3887 431.767 38.5059C430.633 39.6061 429.135 40.4779 427.273 41.1211C425.428 41.7643 423.151 42.0859 420.443 42.0859H416.482V56H410.388V18.8789H421.179ZM420.773 23.9316H416.482V37.0078H419.808C421.721 37.0078 423.346 36.7878 424.683 36.3477C426.02 35.8906 427.036 35.1712 427.73 34.1895C428.424 33.2077 428.771 31.9128 428.771 30.3047C428.771 28.1549 428.119 26.5553 426.816 25.5059C425.529 24.4564 423.515 23.9316 420.773 23.9316ZM478.358 45.8945C478.358 48.0951 477.816 49.9909 476.733 51.582C475.666 53.1732 474.126 54.3919 472.112 55.2383C470.114 56.0846 467.728 56.5078 464.952 56.5078C463.597 56.5078 462.302 56.4316 461.067 56.2793C459.831 56.127 458.663 55.9069 457.563 55.6191C456.48 55.3145 455.489 54.9505 454.592 54.5273V48.7891C456.099 49.4492 457.783 50.0501 459.645 50.5918C461.507 51.1165 463.403 51.3789 465.332 51.3789C466.907 51.3789 468.21 51.1758 469.243 50.7695C470.292 50.3464 471.071 49.7539 471.579 48.9922C472.086 48.2135 472.34 47.3079 472.34 46.2754C472.34 45.1751 472.044 44.2441 471.452 43.4824C470.859 42.7207 469.962 42.0267 468.76 41.4004C467.575 40.7572 466.086 40.0716 464.291 39.3438C463.073 38.8529 461.905 38.2943 460.788 37.668C459.687 37.0417 458.705 36.3053 457.842 35.459C456.979 34.6126 456.293 33.6139 455.786 32.4629C455.295 31.2949 455.049 29.9238 455.049 28.3496C455.049 26.2507 455.549 24.4564 456.547 22.9668C457.563 21.4772 458.985 20.3346 460.813 19.5391C462.658 18.7435 464.808 18.3457 467.262 18.3457C469.209 18.3457 471.037 18.5488 472.746 18.9551C474.473 19.3613 476.166 19.9368 477.825 20.6816L475.895 25.582C474.371 24.9557 472.89 24.4564 471.452 24.084C470.03 23.7116 468.574 23.5254 467.084 23.5254C465.798 23.5254 464.706 23.7201 463.809 24.1094C462.912 24.4987 462.226 25.0488 461.752 25.7598C461.295 26.4538 461.067 27.2832 461.067 28.248C461.067 29.3314 461.329 30.2454 461.854 30.9902C462.396 31.7181 463.225 32.3867 464.342 32.9961C465.476 33.6055 466.932 34.2826 468.709 35.0273C470.758 35.8737 472.493 36.7624 473.914 37.6934C475.353 38.6243 476.454 39.7415 477.215 41.0449C477.977 42.3314 478.358 43.9479 478.358 45.8945ZM495.89 51.6836C496.668 51.6836 497.438 51.6159 498.2 51.4805C498.962 51.3281 499.656 51.1504 500.282 50.9473V55.4668C499.622 55.7546 498.767 56 497.718 56.2031C496.668 56.4062 495.576 56.5078 494.442 56.5078C492.851 56.5078 491.421 56.2454 490.151 55.7207C488.882 55.179 487.875 54.2565 487.13 52.9531C486.385 51.6497 486.013 49.847 486.013 47.5449V32.4375H482.179V29.7715L486.292 27.6641L488.247 21.6465H492.005V27.8926H500.054V32.4375H492.005V47.4688C492.005 48.8906 492.36 49.9486 493.071 50.6426C493.782 51.3366 494.722 51.6836 495.89 51.6836ZM517.535 27.3594C521.089 27.3594 523.772 28.1465 525.583 29.7207C527.411 31.2949 528.326 33.7493 528.326 37.084V56H524.085L522.943 52.0137H522.74C521.944 53.0293 521.123 53.8672 520.277 54.5273C519.43 55.1875 518.449 55.6784 517.331 56C516.231 56.3385 514.885 56.5078 513.294 56.5078C511.619 56.5078 510.12 56.2031 508.8 55.5938C507.48 54.9674 506.439 54.0195 505.677 52.75C504.915 51.4805 504.535 49.8724 504.535 47.9258C504.535 45.0312 505.609 42.8561 507.759 41.4004C509.926 39.9447 513.193 39.1406 517.56 38.9883L522.435 38.8105V37.3379C522.435 35.3913 521.978 34.0033 521.064 33.1738C520.167 32.3444 518.897 31.9297 517.255 31.9297C515.85 31.9297 514.488 32.1328 513.167 32.5391C511.847 32.9453 510.561 33.4447 509.308 34.0371L507.378 29.8223C508.749 29.0944 510.307 28.502 512.05 28.0449C513.811 27.5879 515.639 27.3594 517.535 27.3594ZM522.41 42.5684L518.779 42.6953C515.8 42.7969 513.709 43.3047 512.507 44.2188C511.305 45.1328 510.704 46.3854 510.704 47.9766C510.704 49.3646 511.119 50.3802 511.949 51.0234C512.778 51.6497 513.87 51.9629 515.224 51.9629C517.289 51.9629 518.999 51.3789 520.353 50.2109C521.724 49.026 522.41 47.291 522.41 45.0059V42.5684ZM547.66 51.6836C548.439 51.6836 549.209 51.6159 549.971 51.4805C550.732 51.3281 551.426 51.1504 552.053 50.9473V55.4668C551.392 55.7546 550.538 56 549.488 56.2031C548.439 56.4062 547.347 56.5078 546.213 56.5078C544.622 56.5078 543.191 56.2454 541.922 55.7207C540.652 55.179 539.645 54.2565 538.9 52.9531C538.155 51.6497 537.783 49.847 537.783 47.5449V32.4375H533.949V29.7715L538.062 27.6641L540.017 21.6465H543.775V27.8926H551.824V32.4375H543.775V47.4688C543.775 48.8906 544.131 49.9486 544.842 50.6426C545.553 51.3366 546.492 51.6836 547.66 51.6836ZM564.252 27.8926V56H558.285V27.8926H564.252ZM561.307 17.127C562.221 17.127 563.008 17.3724 563.668 17.8633C564.345 18.3542 564.684 19.2005 564.684 20.4023C564.684 21.5872 564.345 22.4336 563.668 22.9414C563.008 23.4323 562.221 23.6777 561.307 23.6777C560.359 23.6777 559.555 23.4323 558.895 22.9414C558.252 22.4336 557.93 21.5872 557.93 20.4023C557.93 19.2005 558.252 18.3542 558.895 17.8633C559.555 17.3724 560.359 17.127 561.307 17.127ZM592.22 47.9766C592.22 49.8216 591.771 51.3789 590.874 52.6484C589.977 53.918 588.665 54.8828 586.938 55.543C585.229 56.1862 583.13 56.5078 580.641 56.5078C578.678 56.5078 576.985 56.3639 575.563 56.0762C574.158 55.8053 572.83 55.3822 571.577 54.8066V49.6523C572.914 50.2786 574.412 50.8203 576.071 51.2773C577.747 51.7344 579.33 51.9629 580.819 51.9629C582.783 51.9629 584.196 51.6582 585.059 51.0488C585.923 50.4225 586.354 49.5931 586.354 48.5605C586.354 47.9512 586.177 47.4095 585.821 46.9355C585.483 46.4447 584.839 45.9453 583.891 45.4375C582.96 44.9128 581.589 44.2865 579.778 43.5586C578.001 42.8477 576.503 42.1367 575.284 41.4258C574.065 40.7148 573.143 39.86 572.516 38.8613C571.89 37.8457 571.577 36.5508 571.577 34.9766C571.577 32.4883 572.559 30.6009 574.522 29.3145C576.503 28.0111 579.118 27.3594 582.368 27.3594C584.095 27.3594 585.72 27.5371 587.243 27.8926C588.783 28.2311 590.29 28.7305 591.762 29.3906L589.884 33.8848C588.614 33.3262 587.336 32.8691 586.05 32.5137C584.78 32.1413 583.485 31.9551 582.165 31.9551C580.624 31.9551 579.448 32.1921 578.636 32.666C577.84 33.14 577.442 33.8171 577.442 34.6973C577.442 35.3574 577.637 35.916 578.026 36.373C578.415 36.8301 579.084 37.2871 580.032 37.7441C580.997 38.2012 582.334 38.7682 584.044 39.4453C585.72 40.0885 587.167 40.7656 588.386 41.4766C589.621 42.1706 590.569 43.0254 591.229 44.041C591.889 45.0566 592.22 46.3685 592.22 47.9766ZM609.65 51.6836C610.428 51.6836 611.199 51.6159 611.96 51.4805C612.722 51.3281 613.416 51.1504 614.042 50.9473V55.4668C613.382 55.7546 612.527 56 611.478 56.2031C610.428 56.4062 609.337 56.5078 608.202 56.5078C606.611 56.5078 605.181 56.2454 603.911 55.7207C602.642 55.179 601.635 54.2565 600.89 52.9531C600.145 51.6497 599.773 49.847 599.773 47.5449V32.4375H595.939V29.7715L600.052 27.6641L602.007 21.6465H605.765V27.8926H613.814V32.4375H605.765V47.4688C605.765 48.8906 606.12 49.9486 606.831 50.6426C607.542 51.3366 608.482 51.6836 609.65 51.6836ZM626.242 27.8926V56H620.275V27.8926H626.242ZM623.297 17.127C624.211 17.127 624.998 17.3724 625.658 17.8633C626.335 18.3542 626.674 19.2005 626.674 20.4023C626.674 21.5872 626.335 22.4336 625.658 22.9414C624.998 23.4323 624.211 23.6777 623.297 23.6777C622.349 23.6777 621.545 23.4323 620.885 22.9414C620.241 22.4336 619.92 21.5872 619.92 20.4023C619.92 19.2005 620.241 18.3542 620.885 17.8633C621.545 17.3724 622.349 17.127 623.297 17.127ZM646.643 56.5078C643.985 56.5078 641.683 55.9915 639.737 54.959C637.79 53.9264 636.292 52.3438 635.242 50.2109C634.193 48.0781 633.668 45.3698 633.668 42.0859C633.668 38.6667 634.244 35.8737 635.395 33.707C636.546 31.5404 638.137 29.9408 640.168 28.9082C642.216 27.8757 644.561 27.3594 647.201 27.3594C648.877 27.3594 650.392 27.5286 651.746 27.8672C653.117 28.1888 654.277 28.5866 655.225 29.0605L653.448 33.834C652.415 33.4108 651.357 33.0553 650.274 32.7676C649.19 32.4798 648.149 32.3359 647.151 32.3359C645.509 32.3359 644.138 32.6999 643.037 33.4277C641.954 34.1556 641.142 35.2389 640.6 36.6777C640.075 38.1165 639.813 39.9023 639.813 42.0352C639.813 44.1003 640.084 45.8438 640.625 47.2656C641.167 48.6706 641.971 49.737 643.037 50.4648C644.104 51.1758 645.416 51.5312 646.973 51.5312C648.513 51.5312 649.893 51.3451 651.112 50.9727C652.33 50.6003 653.481 50.1178 654.565 49.5254V54.7051C653.498 55.3145 652.356 55.763 651.137 56.0508C649.918 56.3555 648.42 56.5078 646.643 56.5078ZM672.706 27.3594C676.26 27.3594 678.943 28.1465 680.755 29.7207C682.583 31.2949 683.497 33.7493 683.497 37.084V56H679.257L678.114 52.0137H677.911C677.115 53.0293 676.294 53.8672 675.448 54.5273C674.602 55.1875 673.62 55.6784 672.503 56C671.402 56.3385 670.057 56.5078 668.466 56.5078C666.79 56.5078 665.292 56.2031 663.971 55.5938C662.651 54.9674 661.61 54.0195 660.848 52.75C660.087 51.4805 659.706 49.8724 659.706 47.9258C659.706 45.0312 660.781 42.8561 662.93 41.4004C665.097 39.9447 668.364 39.1406 672.731 38.9883L677.606 38.8105V37.3379C677.606 35.3913 677.149 34.0033 676.235 33.1738C675.338 32.3444 674.068 31.9297 672.426 31.9297C671.022 31.9297 669.659 32.1328 668.339 32.5391C667.018 32.9453 665.732 33.4447 664.479 34.0371L662.55 29.8223C663.921 29.0944 665.478 28.502 667.221 28.0449C668.982 27.5879 670.81 27.3594 672.706 27.3594ZM677.581 42.5684L673.95 42.6953C670.971 42.7969 668.88 43.3047 667.678 44.2188C666.477 45.1328 665.876 46.3854 665.876 47.9766C665.876 49.3646 666.29 50.3802 667.12 51.0234C667.949 51.6497 669.041 51.9629 670.395 51.9629C672.46 51.9629 674.17 51.3789 675.524 50.2109C676.895 49.026 677.581 47.291 677.581 45.0059V42.5684ZM698.362 56H692.37V16.4922H698.362V56ZM341.898 128H320.875V90.8789H341.898V96.0078H326.969V106.088H340.959V111.191H326.969V122.846H341.898V128ZM364.483 99.3594C367.648 99.3594 370.111 100.18 371.872 101.822C373.649 103.447 374.538 106.062 374.538 109.668V128H368.571V110.785C368.571 108.602 368.122 106.968 367.225 105.885C366.328 104.785 364.94 104.234 363.061 104.234C360.336 104.234 358.44 105.072 357.374 106.748C356.324 108.424 355.799 110.853 355.799 114.035V128H349.833V99.8926H354.479L355.317 103.701H355.647C356.256 102.719 357.01 101.915 357.907 101.289C358.821 100.646 359.836 100.163 360.954 99.8418C362.088 99.5202 363.264 99.3594 364.483 99.3594ZM397.655 99.3594C398.129 99.3594 398.645 99.3848 399.204 99.4355C399.763 99.4863 400.245 99.554 400.651 99.6387L400.093 105.225C399.737 105.123 399.297 105.047 398.772 104.996C398.265 104.945 397.808 104.92 397.401 104.92C396.335 104.92 395.319 105.098 394.354 105.453C393.39 105.792 392.535 106.316 391.79 107.027C391.045 107.721 390.461 108.593 390.038 109.643C389.615 110.692 389.403 111.911 389.403 113.299V128H383.411V99.8926H388.083L388.895 104.844H389.175C389.733 103.845 390.427 102.931 391.257 102.102C392.086 101.272 393.034 100.612 394.101 100.121C395.184 99.6133 396.369 99.3594 397.655 99.3594ZM431.259 113.883C431.259 116.219 430.955 118.292 430.345 120.104C429.736 121.915 428.847 123.447 427.679 124.699C426.511 125.935 425.106 126.883 423.464 127.543C421.822 128.186 419.969 128.508 417.904 128.508C415.974 128.508 414.205 128.186 412.597 127.543C410.989 126.883 409.593 125.935 408.408 124.699C407.24 123.447 406.334 121.915 405.691 120.104C405.048 118.292 404.726 116.219 404.726 113.883C404.726 110.785 405.259 108.161 406.326 106.012C407.409 103.845 408.949 102.195 410.947 101.061C412.944 99.9264 415.322 99.3594 418.081 99.3594C420.671 99.3594 422.956 99.9264 424.937 101.061C426.917 102.195 428.466 103.845 429.583 106.012C430.701 108.178 431.259 110.802 431.259 113.883ZM410.871 113.883C410.871 115.931 411.116 117.683 411.607 119.139C412.115 120.594 412.893 121.712 413.943 122.49C414.992 123.252 416.346 123.633 418.005 123.633C419.664 123.633 421.018 123.252 422.068 122.49C423.117 121.712 423.887 120.594 424.378 119.139C424.869 117.683 425.115 115.931 425.115 113.883C425.115 111.835 424.869 110.1 424.378 108.678C423.887 107.239 423.117 106.147 422.068 105.402C421.018 104.641 419.656 104.26 417.98 104.26C415.509 104.26 413.706 105.089 412.572 106.748C411.438 108.407 410.871 110.785 410.871 113.883ZM444.627 128H438.635V88.4922H444.627V128ZM459.67 128H453.678V88.4922H459.67V128ZM500.485 99.3594C503.634 99.3594 506.003 100.172 507.595 101.797C509.203 103.422 510.007 106.029 510.007 109.617V128H504.04V110.684C504.04 108.551 503.625 106.943 502.796 105.859C501.966 104.776 500.705 104.234 499.013 104.234C496.643 104.234 494.933 104.996 493.884 106.52C492.851 108.026 492.335 110.218 492.335 113.096V128H486.368V110.684C486.368 109.262 486.182 108.077 485.809 107.129C485.454 106.164 484.904 105.445 484.159 104.971C483.414 104.48 482.475 104.234 481.341 104.234C479.699 104.234 478.387 104.607 477.405 105.352C476.44 106.096 475.746 107.197 475.323 108.652C474.9 110.091 474.688 111.86 474.688 113.959V128H468.722V99.8926H473.368L474.206 103.676H474.536C475.112 102.694 475.822 101.89 476.669 101.264C477.532 100.62 478.488 100.146 479.538 99.8418C480.587 99.5202 481.679 99.3594 482.813 99.3594C484.912 99.3594 486.681 99.7318 488.12 100.477C489.559 101.204 490.634 102.322 491.345 103.828H491.802C492.682 102.305 493.909 101.179 495.483 100.451C497.057 99.7233 498.725 99.3594 500.485 99.3594ZM530.052 99.3594C532.557 99.3594 534.707 99.8757 536.501 100.908C538.296 101.941 539.675 103.405 540.64 105.301C541.605 107.197 542.087 109.465 542.087 112.105V115.305H523.324C523.391 118.03 524.119 120.129 525.507 121.602C526.912 123.074 528.876 123.811 531.398 123.811C533.192 123.811 534.8 123.641 536.222 123.303C537.661 122.947 539.142 122.431 540.665 121.754V126.604C539.26 127.264 537.83 127.746 536.374 128.051C534.919 128.355 533.175 128.508 531.144 128.508C528.385 128.508 525.956 127.975 523.857 126.908C521.775 125.825 520.141 124.217 518.956 122.084C517.788 119.951 517.204 117.302 517.204 114.137C517.204 110.988 517.738 108.314 518.804 106.113C519.87 103.913 521.369 102.237 523.298 101.086C525.228 99.9349 527.479 99.3594 530.052 99.3594ZM530.052 103.854C528.173 103.854 526.65 104.463 525.482 105.682C524.331 106.9 523.654 108.686 523.451 111.039H536.247C536.23 109.634 535.994 108.39 535.536 107.307C535.096 106.223 534.419 105.377 533.505 104.768C532.608 104.158 531.457 103.854 530.052 103.854ZM563.986 99.3594C567.152 99.3594 569.614 100.18 571.375 101.822C573.152 103.447 574.041 106.062 574.041 109.668V128H568.074V110.785C568.074 108.602 567.625 106.968 566.728 105.885C565.831 104.785 564.443 104.234 562.564 104.234C559.839 104.234 557.943 105.072 556.877 106.748C555.827 108.424 555.303 110.853 555.303 114.035V128H549.336V99.8926H553.982L554.82 103.701H555.15C555.76 102.719 556.513 101.915 557.41 101.289C558.324 100.646 559.34 100.163 560.457 99.8418C561.591 99.5202 562.767 99.3594 563.986 99.3594ZM593.375 123.684C594.154 123.684 594.924 123.616 595.686 123.48C596.448 123.328 597.142 123.15 597.768 122.947V127.467C597.108 127.755 596.253 128 595.203 128.203C594.154 128.406 593.062 128.508 591.928 128.508C590.337 128.508 588.907 128.245 587.637 127.721C586.367 127.179 585.36 126.257 584.616 124.953C583.871 123.65 583.498 121.847 583.498 119.545V104.438H579.664V101.771L583.778 99.6641L585.733 93.6465H589.491V99.8926H597.539V104.438H589.491V119.469C589.491 120.891 589.846 121.949 590.557 122.643C591.268 123.337 592.207 123.684 593.375 123.684ZM648.777 109.084C648.777 113.265 647.998 116.76 646.441 119.57C644.883 122.363 642.624 124.471 639.661 125.893C636.699 127.298 633.128 128 628.947 128H618.638V90.8789H630.064C633.906 90.8789 637.224 91.5729 640.017 92.9609C642.81 94.332 644.968 96.3717 646.491 99.0801C648.015 101.771 648.777 105.106 648.777 109.084ZM642.429 109.262C642.429 106.215 641.947 103.71 640.982 101.746C640.034 99.7826 638.629 98.3268 636.767 97.3789C634.922 96.4141 632.645 95.9316 629.937 95.9316H624.732V122.896H629.048C633.534 122.896 636.885 121.754 639.103 119.469C641.32 117.184 642.429 113.781 642.429 109.262ZM667.705 99.3594C671.26 99.3594 673.942 100.146 675.754 101.721C677.582 103.295 678.496 105.749 678.496 109.084V128H674.256L673.113 124.014H672.91C672.114 125.029 671.293 125.867 670.447 126.527C669.601 127.188 668.619 127.678 667.502 128C666.401 128.339 665.056 128.508 663.465 128.508C661.789 128.508 660.291 128.203 658.97 127.594C657.65 126.967 656.609 126.02 655.847 124.75C655.086 123.48 654.705 121.872 654.705 119.926C654.705 117.031 655.78 114.856 657.929 113.4C660.096 111.945 663.363 111.141 667.73 110.988L672.605 110.811V109.338C672.605 107.391 672.148 106.003 671.234 105.174C670.337 104.344 669.067 103.93 667.426 103.93C666.021 103.93 664.658 104.133 663.338 104.539C662.017 104.945 660.731 105.445 659.478 106.037L657.549 101.822C658.92 101.094 660.477 100.502 662.22 100.045C663.981 99.5879 665.809 99.3594 667.705 99.3594ZM672.58 114.568L668.949 114.695C665.97 114.797 663.879 115.305 662.677 116.219C661.476 117.133 660.875 118.385 660.875 119.977C660.875 121.365 661.289 122.38 662.119 123.023C662.948 123.65 664.04 123.963 665.394 123.963C667.459 123.963 669.169 123.379 670.523 122.211C671.894 121.026 672.58 119.291 672.58 117.006V114.568ZM697.83 123.684C698.609 123.684 699.379 123.616 700.141 123.48C700.903 123.328 701.597 123.15 702.223 122.947V127.467C701.563 127.755 700.708 128 699.658 128.203C698.609 128.406 697.517 128.508 696.383 128.508C694.792 128.508 693.362 128.245 692.092 127.721C690.823 127.179 689.815 126.257 689.071 124.953C688.326 123.65 687.953 121.847 687.953 119.545V104.438H684.119V101.771L688.233 99.6641L690.188 93.6465H693.946V99.8926H701.994V104.438H693.946V119.469C693.946 120.891 694.301 121.949 695.012 122.643C695.723 123.337 696.662 123.684 697.83 123.684ZM719.475 99.3594C723.03 99.3594 725.713 100.146 727.524 101.721C729.352 103.295 730.266 105.749 730.266 109.084V128H726.026L724.884 124.014H724.68C723.885 125.029 723.064 125.867 722.217 126.527C721.371 127.188 720.389 127.678 719.272 128C718.172 128.339 716.826 128.508 715.235 128.508C713.559 128.508 712.061 128.203 710.741 127.594C709.421 126.967 708.38 126.02 707.618 124.75C706.856 123.48 706.475 121.872 706.475 119.926C706.475 117.031 707.55 114.856 709.7 113.4C711.867 111.945 715.134 111.141 719.501 110.988L724.376 110.811V109.338C724.376 107.391 723.919 106.003 723.005 105.174C722.107 104.344 720.838 103.93 719.196 103.93C717.791 103.93 716.428 104.133 715.108 104.539C713.788 104.945 712.501 105.445 711.249 106.037L709.319 101.822C710.69 101.094 712.247 100.502 713.991 100.045C715.751 99.5879 717.579 99.3594 719.475 99.3594ZM724.35 114.568L720.719 114.695C717.74 114.797 715.65 115.305 714.448 116.219C713.246 117.133 712.645 118.385 712.645 119.977C712.645 121.365 713.06 122.38 713.889 123.023C714.719 123.65 715.811 123.963 717.165 123.963C719.23 123.963 720.94 123.379 722.294 122.211C723.665 121.026 724.35 119.291 724.35 117.006V114.568ZM764.213 90.8789C767.412 90.8789 770.052 91.2682 772.134 92.0469C774.233 92.8255 775.791 94.0104 776.806 95.6016C777.839 97.1927 778.355 99.2155 778.355 101.67C778.355 103.498 778.017 105.055 777.34 106.342C776.662 107.628 775.774 108.695 774.674 109.541C773.573 110.387 772.397 111.064 771.144 111.572L781.681 128H774.8L765.838 113.121H759.871V128H753.777V90.8789H764.213ZM763.806 95.957H759.871V108.094H764.086C766.912 108.094 768.961 107.569 770.23 106.52C771.517 105.47 772.16 103.921 772.16 101.873C772.16 99.7233 771.474 98.1999 770.103 97.3027C768.749 96.4056 766.65 95.957 763.806 95.957ZM798.096 99.3594C800.601 99.3594 802.751 99.8757 804.545 100.908C806.339 101.941 807.719 103.405 808.684 105.301C809.649 107.197 810.131 109.465 810.131 112.105V115.305H791.367C791.435 118.03 792.163 120.129 793.551 121.602C794.956 123.074 796.919 123.811 799.442 123.811C801.236 123.811 802.844 123.641 804.266 123.303C805.705 122.947 807.186 122.431 808.709 121.754V126.604C807.304 127.264 805.874 127.746 804.418 128.051C802.962 128.355 801.219 128.508 799.188 128.508C796.429 128.508 794 127.975 791.901 126.908C789.819 125.825 788.185 124.217 787 122.084C785.832 119.951 785.248 117.302 785.248 114.137C785.248 110.988 785.781 108.314 786.848 106.113C787.914 103.913 789.412 102.237 791.342 101.086C793.272 99.9349 795.523 99.3594 798.096 99.3594ZM798.096 103.854C796.217 103.854 794.694 104.463 793.526 105.682C792.375 106.9 791.697 108.686 791.494 111.039H804.291C804.274 109.634 804.037 108.39 803.58 107.307C803.14 106.223 802.463 105.377 801.549 104.768C800.652 104.158 799.501 103.854 798.096 103.854ZM831.801 99.3594C835.136 99.3594 837.811 100.578 839.825 103.016C841.856 105.453 842.872 109.076 842.872 113.883C842.872 117.065 842.398 119.748 841.45 121.932C840.519 124.098 839.207 125.74 837.514 126.857C835.839 127.958 833.883 128.508 831.649 128.508C830.227 128.508 828.991 128.322 827.942 127.949C826.893 127.577 825.995 127.094 825.251 126.502C824.506 125.893 823.88 125.232 823.372 124.521H823.016C823.101 125.199 823.177 125.952 823.245 126.781C823.329 127.594 823.372 128.339 823.372 129.016V140.467H817.38V99.8926H822.255L823.092 103.777H823.372C823.896 102.982 824.531 102.245 825.276 101.568C826.038 100.891 826.952 100.358 828.018 99.9688C829.102 99.5625 830.363 99.3594 831.801 99.3594ZM830.202 104.234C828.56 104.234 827.24 104.564 826.241 105.225C825.259 105.868 824.54 106.841 824.083 108.145C823.643 109.448 823.406 111.081 823.372 113.045V113.883C823.372 115.965 823.583 117.734 824.006 119.189C824.447 120.628 825.166 121.729 826.165 122.49C827.18 123.235 828.551 123.607 830.278 123.607C831.734 123.607 832.936 123.21 833.883 122.414C834.848 121.618 835.568 120.484 836.042 119.012C836.516 117.539 836.753 115.804 836.753 113.807C836.753 110.777 836.211 108.424 835.128 106.748C834.061 105.072 832.419 104.234 830.202 104.234ZM875.181 113.883C875.181 116.219 874.876 118.292 874.267 120.104C873.657 121.915 872.769 123.447 871.601 124.699C870.433 125.935 869.028 126.883 867.386 127.543C865.744 128.186 863.89 128.508 861.825 128.508C859.896 128.508 858.127 128.186 856.519 127.543C854.911 126.883 853.514 125.935 852.329 124.699C851.161 123.447 850.256 121.915 849.612 120.104C848.969 118.292 848.648 116.219 848.648 113.883C848.648 110.785 849.181 108.161 850.247 106.012C851.331 103.845 852.871 102.195 854.868 101.061C856.866 99.9264 859.244 99.3594 862.003 99.3594C864.593 99.3594 866.878 99.9264 868.859 101.061C870.839 102.195 872.388 103.845 873.505 106.012C874.622 108.178 875.181 110.802 875.181 113.883ZM854.792 113.883C854.792 115.931 855.038 117.683 855.528 119.139C856.036 120.594 856.815 121.712 857.864 122.49C858.914 123.252 860.268 123.633 861.927 123.633C863.586 123.633 864.94 123.252 865.989 122.49C867.039 121.712 867.809 120.594 868.3 119.139C868.791 117.683 869.036 115.931 869.036 113.883C869.036 111.835 868.791 110.1 868.3 108.678C867.809 107.239 867.039 106.147 865.989 105.402C864.94 104.641 863.577 104.26 861.901 104.26C859.43 104.26 857.627 105.089 856.493 106.748C855.359 108.407 854.792 110.785 854.792 113.883ZM896.8 99.3594C897.274 99.3594 897.791 99.3848 898.349 99.4355C898.908 99.4863 899.39 99.554 899.797 99.6387L899.238 105.225C898.882 105.123 898.442 105.047 897.918 104.996C897.41 104.945 896.953 104.92 896.547 104.92C895.48 104.92 894.464 105.098 893.5 105.453C892.535 105.792 891.68 106.316 890.935 107.027C890.19 107.721 889.606 108.593 889.183 109.643C888.76 110.692 888.548 111.911 888.548 113.299V128H882.556V99.8926H887.228L888.041 104.844H888.32C888.879 103.845 889.573 102.931 890.402 102.102C891.231 101.272 892.179 100.612 893.246 100.121C894.329 99.6133 895.514 99.3594 896.8 99.3594ZM915.982 123.684C916.761 123.684 917.531 123.616 918.293 123.48C919.055 123.328 919.749 123.15 920.375 122.947V127.467C919.715 127.755 918.86 128 917.811 128.203C916.761 128.406 915.669 128.508 914.535 128.508C912.944 128.508 911.514 128.245 910.244 127.721C908.975 127.179 907.968 126.257 907.223 124.953C906.478 123.65 906.106 121.847 906.106 119.545V104.438H902.272V101.771L906.385 99.6641L908.34 93.6465H912.098V99.8926H920.147V104.438H912.098V119.469C912.098 120.891 912.453 121.949 913.164 122.643C913.875 123.337 914.815 123.684 915.982 123.684ZM945.499 119.977C945.499 121.822 945.05 123.379 944.153 124.648C943.256 125.918 941.944 126.883 940.217 127.543C938.508 128.186 936.409 128.508 933.92 128.508C931.957 128.508 930.264 128.364 928.842 128.076C927.437 127.805 926.109 127.382 924.856 126.807V121.652C926.193 122.279 927.691 122.82 929.35 123.277C931.026 123.734 932.609 123.963 934.098 123.963C936.062 123.963 937.475 123.658 938.338 123.049C939.202 122.423 939.633 121.593 939.633 120.561C939.633 119.951 939.456 119.41 939.1 118.936C938.762 118.445 938.118 117.945 937.17 117.438C936.239 116.913 934.868 116.286 933.057 115.559C931.28 114.848 929.782 114.137 928.563 113.426C927.344 112.715 926.422 111.86 925.795 110.861C925.169 109.846 924.856 108.551 924.856 106.977C924.856 104.488 925.838 102.601 927.801 101.314C929.782 100.011 932.397 99.3594 935.647 99.3594C937.374 99.3594 938.999 99.5371 940.522 99.8926C942.062 100.231 943.569 100.73 945.042 101.391L943.163 105.885C941.893 105.326 940.615 104.869 939.329 104.514C938.059 104.141 936.764 103.955 935.444 103.955C933.904 103.955 932.727 104.192 931.915 104.666C931.119 105.14 930.721 105.817 930.721 106.697C930.721 107.357 930.916 107.916 931.305 108.373C931.695 108.83 932.363 109.287 933.311 109.744C934.276 110.201 935.613 110.768 937.323 111.445C938.999 112.089 940.446 112.766 941.665 113.477C942.9 114.171 943.848 115.025 944.508 116.041C945.169 117.057 945.499 118.368 945.499 119.977Z" fill="white"/>
<line x1="270" y1="8.74228e-08" x2="270" y2="136" stroke="#B3ECF8" stroke-width="4"/>
</svg>
