<svg width="278" height="74" viewBox="0 0 278 74" fill="none" xmlns="http://www.w3.org/2000/svg">
<path d="M6.42505 67L3.6499 58.9514H3.59058C3.60376 59.1316 3.61914 59.3777 3.63672 59.6897C3.6543 60.0017 3.66968 60.3357 3.68286 60.6917C3.69604 61.0476 3.70264 61.3882 3.70264 61.7134V67H2.26562V57.3628H4.48706L7.15674 65.0554H7.19629L9.95825 57.3628H12.1731V67H10.6636V61.6343C10.6636 61.3398 10.668 61.0212 10.6768 60.6785C10.6899 60.3357 10.7031 60.0105 10.7163 59.7029C10.7339 59.3953 10.7471 59.1492 10.7559 58.9646H10.7031L7.82251 67H6.42505ZM17.4597 59.5645C18.1101 59.5645 18.6682 59.6985 19.134 59.9666C19.5999 60.2346 19.958 60.6147 20.2085 61.1069C20.459 61.5991 20.5842 62.188 20.5842 62.8735V63.7041H15.7129C15.7305 64.4116 15.9194 64.9565 16.2798 65.3389C16.6445 65.7212 17.1543 65.9124 17.8091 65.9124C18.2749 65.9124 18.6924 65.8684 19.0615 65.7805C19.4351 65.6882 19.8196 65.5542 20.2151 65.3784V66.6375C19.8503 66.8088 19.479 66.9341 19.1011 67.0132C18.7231 67.0923 18.2705 67.1318 17.7432 67.1318C17.0269 67.1318 16.3962 66.9934 15.8513 66.7166C15.3108 66.4353 14.8867 66.0178 14.5791 65.4641C14.2759 64.9104 14.1243 64.2227 14.1243 63.4009C14.1243 62.5835 14.2627 61.8892 14.5396 61.3179C14.8164 60.7466 15.2053 60.3115 15.7063 60.0127C16.2073 59.7139 16.7917 59.5645 17.4597 59.5645ZM17.4597 60.7312C16.9719 60.7312 16.5764 60.8894 16.2732 61.2058C15.9744 61.5222 15.7986 61.9858 15.7458 62.5967H19.0681C19.0637 62.2319 19.0022 61.9089 18.8835 61.6277C18.7693 61.3464 18.5935 61.1267 18.3562 60.9685C18.1233 60.8103 17.8245 60.7312 17.4597 60.7312ZM24.7832 67.1318C23.9131 67.1318 23.2144 66.8154 22.687 66.1826C22.1641 65.5454 21.9026 64.6072 21.9026 63.3679C21.9026 62.1155 22.1685 61.1685 22.7002 60.5269C23.2363 59.8853 23.9417 59.5645 24.8162 59.5645C25.1853 59.5645 25.5083 59.615 25.7852 59.7161C26.062 59.8127 26.2993 59.9446 26.4971 60.1116C26.6992 60.2786 26.8706 60.4653 27.0112 60.6719H27.0837C27.0618 60.5356 27.0354 60.3401 27.0046 60.0852C26.9783 59.8259 26.9651 59.5864 26.9651 59.3667V56.7432H28.5208V67H27.3079L27.031 66.0046H26.9651C26.8333 66.2156 26.6663 66.4067 26.4641 66.5781C26.2664 66.7451 26.0291 66.8792 25.7522 66.9802C25.4797 67.0813 25.1567 67.1318 24.7832 67.1318ZM25.2183 65.8728C25.8818 65.8728 26.3499 65.6816 26.6223 65.2993C26.8948 64.917 27.0354 64.3435 27.0442 63.5789V63.3745C27.0442 62.5571 26.9124 61.9309 26.6487 61.4958C26.385 61.0564 25.9038 60.8367 25.2051 60.8367C24.647 60.8367 24.2207 61.063 23.9263 61.5156C23.6362 61.9639 23.4912 62.5901 23.4912 63.3943C23.4912 64.1985 23.6362 64.8137 23.9263 65.24C24.2207 65.6619 24.6514 65.8728 25.2183 65.8728ZM32.2913 59.7029V67H30.7422V59.7029H32.2913ZM31.5266 56.908C31.7639 56.908 31.9683 56.9717 32.1396 57.0991C32.3154 57.2266 32.4033 57.4463 32.4033 57.7583C32.4033 58.0659 32.3154 58.2856 32.1396 58.4175C31.9683 58.5449 31.7639 58.6086 31.5266 58.6086C31.2805 58.6086 31.0718 58.5449 30.9004 58.4175C30.7334 58.2856 30.6499 58.0659 30.6499 57.7583C30.6499 57.4463 30.7334 57.2266 30.9004 57.0991C31.0718 56.9717 31.2805 56.908 31.5266 56.908ZM37.4526 67.1318C36.7627 67.1318 36.165 66.9978 35.6597 66.7297C35.1543 66.4617 34.7654 66.0508 34.4929 65.4971C34.2205 64.9434 34.0842 64.2402 34.0842 63.3877C34.0842 62.5 34.2336 61.7749 34.5325 61.2124C34.8313 60.6499 35.2444 60.2346 35.7717 59.9666C36.3035 59.6985 36.9121 59.5645 37.5977 59.5645C38.0327 59.5645 38.426 59.6084 38.7776 59.6963C39.1335 59.7798 39.4346 59.8831 39.6807 60.0061L39.2192 61.2454C38.9512 61.1355 38.6765 61.0432 38.3953 60.9685C38.114 60.8938 37.8438 60.8564 37.5845 60.8564C37.1582 60.8564 36.8022 60.9509 36.5166 61.1399C36.2354 61.3289 36.0244 61.6101 35.8838 61.9836C35.7476 62.3572 35.6794 62.8208 35.6794 63.3745C35.6794 63.9106 35.7498 64.3633 35.8904 64.7324C36.031 65.0972 36.2397 65.374 36.5166 65.563C36.7935 65.7476 37.134 65.8398 37.5383 65.8398C37.9382 65.8398 38.2964 65.7915 38.6128 65.6948C38.9292 65.5981 39.228 65.4729 39.5093 65.3191V66.6638C39.2324 66.822 38.9358 66.9385 38.6194 67.0132C38.303 67.0923 37.9141 67.1318 37.4526 67.1318ZM44.084 59.5645C45.0068 59.5645 45.7034 59.7688 46.1736 60.1775C46.6482 60.5862 46.8855 61.2234 46.8855 62.0891V67H45.7847L45.488 65.9651H45.4353C45.2288 66.2288 45.0156 66.4463 44.7959 66.6177C44.5762 66.7891 44.3213 66.9165 44.0312 67C43.7456 67.0879 43.3962 67.1318 42.9832 67.1318C42.5481 67.1318 42.1592 67.0527 41.8164 66.8945C41.4736 66.7319 41.2034 66.4858 41.0056 66.1562C40.8079 65.8267 40.709 65.4092 40.709 64.9038C40.709 64.1523 40.988 63.5876 41.5461 63.2097C42.1086 62.8318 42.9568 62.623 44.0906 62.5835L45.3562 62.5374V62.155C45.3562 61.6497 45.2375 61.2893 45.0002 61.074C44.7673 60.8586 44.4377 60.751 44.0115 60.751C43.6467 60.751 43.293 60.8037 42.9502 60.9092C42.6074 61.0146 42.2734 61.1443 41.9482 61.2981L41.4473 60.2039C41.8032 60.0149 42.2075 59.8611 42.6602 59.7424C43.1172 59.6238 43.5918 59.5645 44.084 59.5645ZM45.3496 63.5129L44.407 63.5459C43.6335 63.5723 43.0908 63.7041 42.7788 63.9414C42.4668 64.1787 42.3108 64.5039 42.3108 64.917C42.3108 65.2773 42.4185 65.541 42.6338 65.708C42.8491 65.8706 43.1326 65.9519 43.4841 65.9519C44.0203 65.9519 44.4641 65.8003 44.8157 65.4971C45.1716 65.1895 45.3496 64.739 45.3496 64.1458V63.5129ZM50.6033 59.7029V67H49.0542V59.7029H50.6033ZM49.8386 56.908C50.0759 56.908 50.2803 56.9717 50.4517 57.0991C50.6274 57.2266 50.7153 57.4463 50.7153 57.7583C50.7153 58.0659 50.6274 58.2856 50.4517 58.4175C50.2803 58.5449 50.0759 58.6086 49.8386 58.6086C49.5925 58.6086 49.3838 58.5449 49.2124 58.4175C49.0454 58.2856 48.9619 58.0659 48.9619 57.7583C48.9619 57.4463 49.0454 57.2266 49.2124 57.0991C49.3838 56.9717 49.5925 56.908 49.8386 56.908ZM55.2769 67.1318C54.4067 67.1318 53.708 66.8154 53.1807 66.1826C52.6577 65.5454 52.3962 64.6072 52.3962 63.3679C52.3962 62.1155 52.6621 61.1685 53.1938 60.5269C53.73 59.8853 54.4353 59.5645 55.3098 59.5645C55.679 59.5645 56.002 59.615 56.2788 59.7161C56.5557 59.8127 56.793 59.9446 56.9907 60.1116C57.1929 60.2786 57.3643 60.4653 57.5049 60.6719H57.5774C57.5554 60.5356 57.5291 60.3401 57.4983 60.0852C57.4719 59.8259 57.4587 59.5864 57.4587 59.3667V56.7432H59.0144V67H57.8015L57.5247 66.0046H57.4587C57.3269 66.2156 57.1599 66.4067 56.9578 66.5781C56.76 66.7451 56.5227 66.8792 56.2458 66.9802C55.9734 67.0813 55.6504 67.1318 55.2769 67.1318ZM55.7119 65.8728C56.3755 65.8728 56.8435 65.6816 57.116 65.2993C57.3884 64.917 57.5291 64.3435 57.5378 63.5789V63.3745C57.5378 62.5571 57.406 61.9309 57.1423 61.4958C56.8787 61.0564 56.3975 60.8367 55.6987 60.8367C55.1406 60.8367 54.7144 61.063 54.4199 61.5156C54.1299 61.9639 53.9849 62.5901 53.9849 63.3943C53.9849 64.1985 54.1299 64.8137 54.4199 65.24C54.7144 65.6619 55.145 65.8728 55.7119 65.8728ZM72.7253 62.0891C72.7253 63.1746 72.5232 64.082 72.1189 64.8115C71.7146 65.5366 71.1279 66.0837 70.3589 66.4529C69.5898 66.8176 68.6626 67 67.5771 67H64.9009V57.3628H67.8672C68.8647 57.3628 69.7261 57.543 70.4512 57.9033C71.1763 58.2593 71.7366 58.7888 72.1321 59.4919C72.5276 60.1907 72.7253 61.0564 72.7253 62.0891ZM71.0774 62.1353C71.0774 61.3442 70.9521 60.6938 70.7017 60.1841C70.4556 59.6743 70.0908 59.2964 69.6074 59.0503C69.1284 58.7998 68.5374 58.6746 67.8342 58.6746H66.4829V65.675H67.6035C68.7681 65.675 69.6382 65.3784 70.2139 64.7852C70.7896 64.1919 71.0774 63.3086 71.0774 62.1353ZM77.5044 59.5645C78.4272 59.5645 79.1238 59.7688 79.594 60.1775C80.0686 60.5862 80.3059 61.2234 80.3059 62.0891V67H79.2051L78.9084 65.9651H78.8557C78.6492 66.2288 78.436 66.4463 78.2163 66.6177C77.9966 66.7891 77.7417 66.9165 77.4517 67C77.166 67.0879 76.8167 67.1318 76.4036 67.1318C75.9685 67.1318 75.5796 67.0527 75.2368 66.8945C74.894 66.7319 74.6238 66.4858 74.426 66.1562C74.2283 65.8267 74.1294 65.4092 74.1294 64.9038C74.1294 64.1523 74.4084 63.5876 74.9666 63.2097C75.5291 62.8318 76.3772 62.623 77.511 62.5835L78.7766 62.5374V62.155C78.7766 61.6497 78.658 61.2893 78.4207 61.074C78.1877 60.8586 77.8582 60.751 77.4319 60.751C77.0671 60.751 76.7134 60.8037 76.3706 60.9092C76.0278 61.0146 75.6938 61.1443 75.3687 61.2981L74.8677 60.2039C75.2236 60.0149 75.6279 59.8611 76.0806 59.7424C76.5376 59.6238 77.0122 59.5645 77.5044 59.5645ZM78.77 63.5129L77.8274 63.5459C77.054 63.5723 76.5112 63.7041 76.1992 63.9414C75.8872 64.1787 75.7312 64.5039 75.7312 64.917C75.7312 65.2773 75.8389 65.541 76.0542 65.708C76.2695 65.8706 76.553 65.9519 76.9045 65.9519C77.4407 65.9519 77.8845 65.8003 78.2361 65.4971C78.592 65.1895 78.77 64.739 78.77 64.1458V63.5129ZM85.1904 65.8794C85.3926 65.8794 85.5925 65.8618 85.7903 65.8267C85.988 65.7871 86.1682 65.741 86.3308 65.6882V66.8616C86.1594 66.9363 85.9375 67 85.665 67.0527C85.3926 67.1055 85.1091 67.1318 84.8147 67.1318C84.4016 67.1318 84.0303 67.0637 83.7007 66.9275C83.3711 66.7869 83.1096 66.5474 82.9163 66.209C82.7229 65.8706 82.6262 65.4026 82.6262 64.8049V60.8828H81.6309V60.1907L82.6987 59.6436L83.2063 58.0813H84.1819V59.7029H86.2715V60.8828H84.1819V64.7852C84.1819 65.1543 84.2742 65.429 84.4587 65.6091C84.6433 65.7893 84.8872 65.8794 85.1904 65.8794ZM90.6748 59.5645C91.5977 59.5645 92.2942 59.7688 92.7644 60.1775C93.239 60.5862 93.4763 61.2234 93.4763 62.0891V67H92.3755L92.0789 65.9651H92.0261C91.8196 66.2288 91.6064 66.4463 91.3867 66.6177C91.167 66.7891 90.9121 66.9165 90.6221 67C90.3364 67.0879 89.9871 67.1318 89.574 67.1318C89.1389 67.1318 88.75 67.0527 88.4072 66.8945C88.0645 66.7319 87.7942 66.4858 87.5964 66.1562C87.3987 65.8267 87.2998 65.4092 87.2998 64.9038C87.2998 64.1523 87.5789 63.5876 88.137 63.2097C88.6995 62.8318 89.5476 62.623 90.6814 62.5835L91.947 62.5374V62.155C91.947 61.6497 91.8284 61.2893 91.5911 61.074C91.3582 60.8586 91.0286 60.751 90.6023 60.751C90.2375 60.751 89.8838 60.8037 89.541 60.9092C89.1982 61.0146 88.8643 61.1443 88.5391 61.2981L88.0381 60.2039C88.394 60.0149 88.7983 59.8611 89.251 59.7424C89.708 59.6238 90.1826 59.5645 90.6748 59.5645ZM91.9404 63.5129L90.9978 63.5459C90.2244 63.5723 89.6816 63.7041 89.3696 63.9414C89.0576 64.1787 88.9016 64.5039 88.9016 64.917C88.9016 65.2773 89.0093 65.541 89.2246 65.708C89.4399 65.8706 89.7234 65.9519 90.075 65.9519C90.6111 65.9519 91.0549 65.8003 91.4065 65.4971C91.7625 65.1895 91.9404 64.739 91.9404 64.1458V63.5129ZM103.417 58.5691C102.955 58.5691 102.542 58.6526 102.177 58.8196C101.817 58.9866 101.512 59.2283 101.261 59.5447C101.011 59.8567 100.82 60.2368 100.688 60.6851C100.556 61.1289 100.49 61.6299 100.49 62.188C100.49 62.9351 100.595 63.5789 100.806 64.1194C101.017 64.6555 101.338 65.0686 101.769 65.3586C102.199 65.6443 102.744 65.7871 103.404 65.7871C103.812 65.7871 104.21 65.7476 104.597 65.6685C104.983 65.5894 105.383 65.4817 105.796 65.3455V66.6902C105.405 66.844 105.01 66.9561 104.61 67.0264C104.21 67.0967 103.749 67.1318 103.226 67.1318C102.241 67.1318 101.424 66.9275 100.773 66.5188C100.127 66.1101 99.644 65.5344 99.3232 64.7917C99.0068 64.0491 98.8486 63.179 98.8486 62.1814C98.8486 61.4519 98.9497 60.7839 99.1519 60.1775C99.354 59.571 99.6484 59.0481 100.035 58.6086C100.422 58.1648 100.899 57.8242 101.466 57.5869C102.037 57.3452 102.689 57.2244 103.423 57.2244C103.907 57.2244 104.381 57.2793 104.847 57.3892C105.317 57.4946 105.752 57.6462 106.152 57.844L105.599 59.1492C105.265 58.991 104.915 58.8547 104.551 58.7405C104.186 58.6262 103.808 58.5691 103.417 58.5691ZM114.168 63.335C114.168 63.9414 114.089 64.4797 113.931 64.95C113.772 65.4202 113.542 65.8179 113.239 66.1431C112.935 66.4639 112.571 66.71 112.144 66.8813C111.718 67.0483 111.237 67.1318 110.701 67.1318C110.2 67.1318 109.74 67.0483 109.323 66.8813C108.906 66.71 108.543 66.4639 108.235 66.1431C107.932 65.8179 107.697 65.4202 107.53 64.95C107.363 64.4797 107.28 63.9414 107.28 63.335C107.28 62.5308 107.418 61.8496 107.695 61.2915C107.976 60.729 108.376 60.3005 108.895 60.0061C109.413 59.7117 110.031 59.5645 110.747 59.5645C111.419 59.5645 112.012 59.7117 112.527 60.0061C113.041 60.3005 113.443 60.729 113.733 61.2915C114.023 61.854 114.168 62.5352 114.168 63.335ZM108.875 63.335C108.875 63.8667 108.938 64.3215 109.066 64.6995C109.198 65.0774 109.4 65.3674 109.672 65.5696C109.945 65.7673 110.296 65.8662 110.727 65.8662C111.158 65.8662 111.509 65.7673 111.782 65.5696C112.054 65.3674 112.254 65.0774 112.382 64.6995C112.509 64.3215 112.573 63.8667 112.573 63.335C112.573 62.8032 112.509 62.3528 112.382 61.9836C112.254 61.6101 112.054 61.3267 111.782 61.1333C111.509 60.9355 111.156 60.8367 110.72 60.8367C110.079 60.8367 109.611 61.052 109.316 61.4827C109.022 61.9133 108.875 62.5308 108.875 63.335ZM117.503 67H115.948V56.7432H117.503V67ZM121.274 67H119.718V56.7432H121.274V67ZM126.396 59.5645C127.046 59.5645 127.604 59.6985 128.07 59.9666C128.536 60.2346 128.894 60.6147 129.145 61.1069C129.395 61.5991 129.52 62.188 129.52 62.8735V63.7041H124.649C124.667 64.4116 124.855 64.9565 125.216 65.3389C125.581 65.7212 126.09 65.9124 126.745 65.9124C127.211 65.9124 127.628 65.8684 127.998 65.7805C128.371 65.6882 128.756 65.5542 129.151 65.3784V66.6375C128.786 66.8088 128.415 66.9341 128.037 67.0132C127.659 67.0923 127.207 67.1318 126.679 67.1318C125.963 67.1318 125.332 66.9934 124.787 66.7166C124.247 66.4353 123.823 66.0178 123.515 65.4641C123.212 64.9104 123.06 64.2227 123.06 63.4009C123.06 62.5835 123.199 61.8892 123.476 61.3179C123.752 60.7466 124.141 60.3115 124.642 60.0127C125.143 59.7139 125.728 59.5645 126.396 59.5645ZM126.396 60.7312C125.908 60.7312 125.512 60.8894 125.209 61.2058C124.91 61.5222 124.735 61.9858 124.682 62.5967H128.004C128 62.2319 127.938 61.9089 127.82 61.6277C127.705 61.3464 127.53 61.1267 127.292 60.9685C127.059 60.8103 126.76 60.7312 126.396 60.7312ZM134.207 67.1318C133.517 67.1318 132.919 66.9978 132.414 66.7297C131.909 66.4617 131.52 66.0508 131.247 65.4971C130.975 64.9434 130.839 64.2402 130.839 63.3877C130.839 62.5 130.988 61.7749 131.287 61.2124C131.586 60.6499 131.999 60.2346 132.526 59.9666C133.058 59.6985 133.667 59.5645 134.352 59.5645C134.787 59.5645 135.18 59.6084 135.532 59.6963C135.888 59.7798 136.189 59.8831 136.435 60.0061L135.974 61.2454C135.706 61.1355 135.431 61.0432 135.15 60.9685C134.868 60.8938 134.598 60.8564 134.339 60.8564C133.913 60.8564 133.557 60.9509 133.271 61.1399C132.99 61.3289 132.779 61.6101 132.638 61.9836C132.502 62.3572 132.434 62.8208 132.434 63.3745C132.434 63.9106 132.504 64.3633 132.645 64.7324C132.785 65.0972 132.994 65.374 133.271 65.563C133.548 65.7476 133.888 65.8398 134.293 65.8398C134.693 65.8398 135.051 65.7915 135.367 65.6948C135.684 65.5981 135.982 65.4729 136.264 65.3191V66.6638C135.987 66.822 135.69 66.9385 135.374 67.0132C135.057 67.0923 134.668 67.1318 134.207 67.1318ZM140.693 65.8794C140.896 65.8794 141.095 65.8618 141.293 65.8267C141.491 65.7871 141.671 65.741 141.834 65.6882V66.8616C141.662 66.9363 141.44 67 141.168 67.0527C140.896 67.1055 140.612 67.1318 140.318 67.1318C139.905 67.1318 139.533 67.0637 139.204 66.9275C138.874 66.7869 138.613 66.5474 138.419 66.209C138.226 65.8706 138.129 65.4026 138.129 64.8049V60.8828H137.134V60.1907L138.202 59.6436L138.709 58.0813H139.685V59.7029H141.774V60.8828H139.685V64.7852C139.685 65.1543 139.777 65.429 139.962 65.6091C140.146 65.7893 140.39 65.8794 140.693 65.8794ZM144.866 59.7029V67H143.317V59.7029H144.866ZM144.101 56.908C144.339 56.908 144.543 56.9717 144.714 57.0991C144.89 57.2266 144.978 57.4463 144.978 57.7583C144.978 58.0659 144.89 58.2856 144.714 58.4175C144.543 58.5449 144.339 58.6086 144.101 58.6086C143.855 58.6086 143.646 58.5449 143.475 58.4175C143.308 58.2856 143.225 58.0659 143.225 57.7583C143.225 57.4463 143.308 57.2266 143.475 57.0991C143.646 56.9717 143.855 56.908 144.101 56.908ZM153.547 63.335C153.547 63.9414 153.468 64.4797 153.31 64.95C153.152 65.4202 152.921 65.8179 152.618 66.1431C152.315 66.4639 151.95 66.71 151.524 66.8813C151.097 67.0483 150.616 67.1318 150.08 67.1318C149.579 67.1318 149.12 67.0483 148.702 66.8813C148.285 66.71 147.922 66.4639 147.615 66.1431C147.312 65.8179 147.076 65.4202 146.909 64.95C146.742 64.4797 146.659 63.9414 146.659 63.335C146.659 62.5308 146.797 61.8496 147.074 61.2915C147.355 60.729 147.755 60.3005 148.274 60.0061C148.792 59.7117 149.41 59.5645 150.126 59.5645C150.799 59.5645 151.392 59.7117 151.906 60.0061C152.42 60.3005 152.822 60.729 153.112 61.2915C153.402 61.854 153.547 62.5352 153.547 63.335ZM148.254 63.335C148.254 63.8667 148.318 64.3215 148.445 64.6995C148.577 65.0774 148.779 65.3674 149.052 65.5696C149.324 65.7673 149.676 65.8662 150.106 65.8662C150.537 65.8662 150.889 65.7673 151.161 65.5696C151.434 65.3674 151.634 65.0774 151.761 64.6995C151.888 64.3215 151.952 63.8667 151.952 63.335C151.952 62.8032 151.888 62.3528 151.761 61.9836C151.634 61.6101 151.434 61.3267 151.161 61.1333C150.889 60.9355 150.535 60.8367 150.1 60.8367C149.458 60.8367 148.99 61.052 148.696 61.4827C148.401 61.9133 148.254 62.5308 148.254 63.335ZM159.131 59.5645C159.952 59.5645 160.592 59.7776 161.049 60.2039C161.51 60.6257 161.741 61.3047 161.741 62.2407V67H160.192V62.5308C160.192 61.9639 160.075 61.5398 159.843 61.2585C159.61 60.9729 159.249 60.8301 158.761 60.8301C158.054 60.8301 157.562 61.0476 157.285 61.4827C157.012 61.9177 156.876 62.5483 156.876 63.3745V67H155.327V59.7029H156.533L156.751 60.6917H156.837C156.995 60.4368 157.19 60.228 157.423 60.0654C157.661 59.8984 157.924 59.7732 158.214 59.6897C158.509 59.6062 158.814 59.5645 159.131 59.5645ZM170.917 67H169.328V58.7075H166.507V57.3628H173.731V58.7075H170.917V67ZM181.51 63.335C181.51 63.9414 181.431 64.4797 181.272 64.95C181.114 65.4202 180.884 65.8179 180.58 66.1431C180.277 66.4639 179.912 66.71 179.486 66.8813C179.06 67.0483 178.579 67.1318 178.042 67.1318C177.542 67.1318 177.082 67.0483 176.665 66.8813C176.247 66.71 175.885 66.4639 175.577 66.1431C175.274 65.8179 175.039 65.4202 174.872 64.95C174.705 64.4797 174.621 63.9414 174.621 63.335C174.621 62.5308 174.76 61.8496 175.037 61.2915C175.318 60.729 175.718 60.3005 176.236 60.0061C176.755 59.7117 177.372 59.5645 178.089 59.5645C178.761 59.5645 179.354 59.7117 179.868 60.0061C180.383 60.3005 180.785 60.729 181.075 61.2915C181.365 61.854 181.51 62.5352 181.51 63.335ZM176.217 63.335C176.217 63.8667 176.28 64.3215 176.408 64.6995C176.54 65.0774 176.742 65.3674 177.014 65.5696C177.287 65.7673 177.638 65.8662 178.069 65.8662C178.5 65.8662 178.851 65.7673 179.124 65.5696C179.396 65.3674 179.596 65.0774 179.723 64.6995C179.851 64.3215 179.915 63.8667 179.915 63.335C179.915 62.8032 179.851 62.3528 179.723 61.9836C179.596 61.6101 179.396 61.3267 179.124 61.1333C178.851 60.9355 178.497 60.8367 178.062 60.8367C177.421 60.8367 176.953 61.052 176.658 61.4827C176.364 61.9133 176.217 62.5308 176.217 63.335ZM189.75 63.335C189.75 63.9414 189.67 64.4797 189.512 64.95C189.354 65.4202 189.123 65.8179 188.82 66.1431C188.517 66.4639 188.152 66.71 187.726 66.8813C187.3 67.0483 186.818 67.1318 186.282 67.1318C185.781 67.1318 185.322 67.0483 184.905 66.8813C184.487 66.71 184.125 66.4639 183.817 66.1431C183.514 65.8179 183.279 65.4202 183.112 64.95C182.945 64.4797 182.861 63.9414 182.861 63.335C182.861 62.5308 183 61.8496 183.276 61.2915C183.558 60.729 183.958 60.3005 184.476 60.0061C184.995 59.7117 185.612 59.5645 186.328 59.5645C187.001 59.5645 187.594 59.7117 188.108 60.0061C188.622 60.3005 189.024 60.729 189.314 61.2915C189.604 61.854 189.75 62.5352 189.75 63.335ZM184.456 63.335C184.456 63.8667 184.52 64.3215 184.647 64.6995C184.779 65.0774 184.981 65.3674 185.254 65.5696C185.526 65.7673 185.878 65.8662 186.309 65.8662C186.739 65.8662 187.091 65.7673 187.363 65.5696C187.636 65.3674 187.836 65.0774 187.963 64.6995C188.091 64.3215 188.154 63.8667 188.154 63.335C188.154 62.8032 188.091 62.3528 187.963 61.9836C187.836 61.6101 187.636 61.3267 187.363 61.1333C187.091 60.9355 186.737 60.8367 186.302 60.8367C185.66 60.8367 185.192 61.052 184.898 61.4827C184.604 61.9133 184.456 62.5308 184.456 63.335ZM193.085 67H191.529V56.7432H193.085V67Z" fill="#5A5A5A"/>
<line x1="278" y1="45.5" y2="45.5" stroke="#D9D9D9"/>
<path d="M12.18 5.98H12.1L11.02 8.2L8.16 13.48L5.3 8.2L4.22 5.98H4.14V16H1.64V2.04H4.62L8.2 8.86H8.28L11.82 2.04H14.68V16H12.18V5.98ZM19.1681 2.04H24.2481C25.1548 2.04 25.9748 2.18667 26.7081 2.48C27.4548 2.77333 28.0881 3.21333 28.6081 3.8C29.1415 4.37333 29.5481 5.1 29.8281 5.98C30.1215 6.84667 30.2681 7.86 30.2681 9.02C30.2681 10.18 30.1215 11.2 29.8281 12.08C29.5481 12.9467 29.1415 13.6733 28.6081 14.26C28.0881 14.8333 27.4548 15.2667 26.7081 15.56C25.9748 15.8533 25.1548 16 24.2481 16H19.1681V2.04ZM24.2481 13.66C25.2348 13.66 26.0148 13.3733 26.5881 12.8C27.1748 12.2133 27.4681 11.32 27.4681 10.12V7.92C27.4681 6.72 27.1748 5.83333 26.5881 5.26C26.0148 4.67333 25.2348 4.38 24.2481 4.38H21.8081V13.66H24.2481ZM39.5772 16.24C38.6572 16.24 37.8239 16.0933 37.0772 15.8C36.3439 15.4933 35.7105 15.04 35.1772 14.44C34.6572 13.84 34.2572 13.1 33.9772 12.22C33.6972 11.3267 33.5572 10.2933 33.5572 9.12C33.5572 7.94667 33.6972 6.90667 33.9772 6C34.2572 5.08 34.6572 4.31333 35.1772 3.7C35.7105 3.07333 36.3439 2.6 37.0772 2.28C37.8239 1.96 38.6572 1.8 39.5772 1.8C40.8305 1.8 41.8705 2.06667 42.6972 2.6C43.5239 3.13333 44.1839 3.94 44.6772 5.02L42.4172 6.22C42.2172 5.59333 41.8905 5.09333 41.4372 4.72C40.9839 4.33333 40.3639 4.14 39.5772 4.14C38.5905 4.14 37.8039 4.47333 37.2172 5.14C36.6439 5.80667 36.3572 6.74 36.3572 7.94V10.14C36.3572 11.3533 36.6439 12.2867 37.2172 12.94C37.8039 13.58 38.5905 13.9 39.5772 13.9C40.3639 13.9 41.0039 13.6867 41.4972 13.26C42.0039 12.8333 42.3705 12.3067 42.5972 11.68L44.7372 12.94C44.2305 13.98 43.5572 14.7933 42.7172 15.38C41.8772 15.9533 40.8305 16.24 39.5772 16.24ZM53.6692 4.38V16H51.0292V4.38H47.0692V2.04H57.6292V4.38H53.6692ZM5.681 34.228C4.541 34.228 3.572 34.0253 2.774 33.62C1.98867 33.2147 1.311 32.6827 0.741 32.024L2.432 30.39C2.888 30.922 3.39467 31.3273 3.952 31.606C4.522 31.8847 5.149 32.024 5.833 32.024C6.60567 32.024 7.18833 31.8593 7.581 31.53C7.97367 31.188 8.17 30.732 8.17 30.162C8.17 29.7187 8.04333 29.3577 7.79 29.079C7.53667 28.8003 7.06167 28.5977 6.365 28.471L5.111 28.281C2.46367 27.863 1.14 26.5773 1.14 24.424C1.14 23.8287 1.24767 23.2903 1.463 22.809C1.691 22.3277 2.014 21.916 2.432 21.574C2.85 21.232 3.35033 20.9723 3.933 20.795C4.52833 20.605 5.19967 20.51 5.947 20.51C6.94767 20.51 7.82167 20.6747 8.569 21.004C9.31633 21.3333 9.956 21.821 10.488 22.467L8.778 24.082C8.44867 23.6767 8.04967 23.3473 7.581 23.094C7.11233 22.8407 6.52333 22.714 5.814 22.714C5.092 22.714 4.54733 22.8533 4.18 23.132C3.82533 23.398 3.648 23.778 3.648 24.272C3.648 24.7787 3.79367 25.1523 4.085 25.393C4.37633 25.6337 4.845 25.811 5.491 25.925L6.726 26.153C8.06867 26.3937 9.05667 26.8243 9.69 27.445C10.336 28.053 10.659 28.908 10.659 30.01C10.659 30.6433 10.545 31.2197 10.317 31.739C10.1017 32.2457 9.77867 32.689 9.348 33.069C8.93 33.4363 8.41067 33.7213 7.79 33.924C7.182 34.1267 6.479 34.228 5.681 34.228ZM16.5932 34V20.738H25.3332V22.961H19.1012V26.172H24.6112V28.395H19.1012V31.777H25.3332V34H16.5932ZM31.4058 20.738H36.2318C37.0931 20.738 37.8721 20.8773 38.5688 21.156C39.2781 21.4347 39.8798 21.8527 40.3738 22.41C40.8805 22.9547 41.2668 23.645 41.5328 24.481C41.8115 25.3043 41.9508 26.267 41.9508 27.369C41.9508 28.471 41.8115 29.44 41.5328 30.276C41.2668 31.0993 40.8805 31.7897 40.3738 32.347C39.8798 32.8917 39.2781 33.3033 38.5688 33.582C37.8721 33.8607 37.0931 34 36.2318 34H31.4058V20.738ZM36.2318 31.777C37.1691 31.777 37.9101 31.5047 38.4548 30.96C39.0121 30.4027 39.2908 29.554 39.2908 28.414V26.324C39.2908 25.184 39.0121 24.3417 38.4548 23.797C37.9101 23.2397 37.1691 22.961 36.2318 22.961H33.9138V31.777H36.2318ZM52.0484 34.228C50.9084 34.228 49.9394 34.0253 49.1414 33.62C48.3561 33.2147 47.6784 32.6827 47.1084 32.024L48.7994 30.39C49.2554 30.922 49.7621 31.3273 50.3194 31.606C50.8894 31.8847 51.5164 32.024 52.2004 32.024C52.9731 32.024 53.5558 31.8593 53.9484 31.53C54.3411 31.188 54.5374 30.732 54.5374 30.162C54.5374 29.7187 54.4108 29.3577 54.1574 29.079C53.9041 28.8003 53.4291 28.5977 52.7324 28.471L51.4784 28.281C48.8311 27.863 47.5074 26.5773 47.5074 24.424C47.5074 23.8287 47.6151 23.2903 47.8304 22.809C48.0584 22.3277 48.3814 21.916 48.7994 21.574C49.2174 21.232 49.7178 20.9723 50.3004 20.795C50.8958 20.605 51.5671 20.51 52.3144 20.51C53.3151 20.51 54.1891 20.6747 54.9364 21.004C55.6838 21.3333 56.3234 21.821 56.8554 22.467L55.1454 24.082C54.8161 23.6767 54.4171 23.3473 53.9484 23.094C53.4798 22.8407 52.8908 22.714 52.1814 22.714C51.4594 22.714 50.9148 22.8533 50.5474 23.132C50.1928 23.398 50.0154 23.778 50.0154 24.272C50.0154 24.7787 50.1611 25.1523 50.4524 25.393C50.7438 25.6337 51.2124 25.811 51.8584 25.925L53.0934 26.153C54.4361 26.3937 55.4241 26.8243 56.0574 27.445C56.7034 28.053 57.0264 28.908 57.0264 30.01C57.0264 30.6433 56.9124 31.2197 56.6844 31.739C56.4691 32.2457 56.1461 32.689 55.7154 33.069C55.2974 33.4363 54.7781 33.7213 54.1574 33.924C53.5494 34.1267 52.8464 34.228 52.0484 34.228Z" fill="#5A5A5A"/>
<path d="M88.2471 11.8906C88.2471 12.5677 88.0804 13.151 87.7471 13.6406C87.4189 14.1302 86.945 14.5052 86.3252 14.7656C85.7106 15.026 84.9762 15.1562 84.1221 15.1562C83.7054 15.1562 83.307 15.1328 82.9268 15.0859C82.5465 15.0391 82.1872 14.9714 81.8486 14.8828C81.5153 14.7891 81.2106 14.6771 80.9346 14.5469V12.7812C81.3981 12.9844 81.9163 13.1693 82.4893 13.3359C83.0622 13.4974 83.6455 13.5781 84.2393 13.5781C84.7236 13.5781 85.1247 13.5156 85.4424 13.3906C85.7653 13.2604 86.0049 13.0781 86.1611 12.8438C86.3174 12.6042 86.3955 12.3255 86.3955 12.0078C86.3955 11.6693 86.3044 11.3828 86.1221 11.1484C85.9398 10.9141 85.6637 10.7005 85.2939 10.5078C84.9294 10.3099 84.471 10.099 83.9189 9.875C83.5439 9.72396 83.1846 9.55208 82.8408 9.35938C82.5023 9.16667 82.2002 8.9401 81.9346 8.67969C81.6689 8.41927 81.458 8.11198 81.3018 7.75781C81.1507 7.39844 81.0752 6.97656 81.0752 6.49219C81.0752 5.84635 81.2288 5.29427 81.5361 4.83594C81.8486 4.3776 82.2861 4.02604 82.8486 3.78125C83.4163 3.53646 84.0778 3.41406 84.833 3.41406C85.432 3.41406 85.9945 3.47656 86.5205 3.60156C87.0518 3.72656 87.5726 3.90365 88.083 4.13281L87.4893 5.64062C87.0205 5.44792 86.5648 5.29427 86.1221 5.17969C85.6846 5.0651 85.2367 5.00781 84.7783 5.00781C84.3825 5.00781 84.0465 5.06771 83.7705 5.1875C83.4945 5.30729 83.2835 5.47656 83.1377 5.69531C82.9971 5.90885 82.9268 6.16406 82.9268 6.46094C82.9268 6.79427 83.0075 7.07552 83.1689 7.30469C83.3356 7.52865 83.5908 7.73438 83.9346 7.92188C84.2835 8.10938 84.7314 8.31771 85.2783 8.54688C85.9085 8.80729 86.4424 9.08073 86.8799 9.36719C87.3226 9.65365 87.6611 9.9974 87.8955 10.3984C88.1299 10.7943 88.2471 11.2917 88.2471 11.8906ZM93.6414 13.6719C93.881 13.6719 94.118 13.651 94.3524 13.6094C94.5868 13.5625 94.8003 13.5078 94.993 13.4453V14.8359C94.7899 14.9245 94.5269 15 94.2039 15.0625C93.881 15.125 93.5451 15.1562 93.1961 15.1562C92.7065 15.1562 92.2664 15.0755 91.8758 14.9141C91.4852 14.7474 91.1753 14.4635 90.9461 14.0625C90.717 13.6615 90.6024 13.1068 90.6024 12.3984V7.75H89.4227V6.92969L90.6883 6.28125L91.2899 4.42969H92.4461V6.35156H94.9227V7.75H92.4461V12.375C92.4461 12.8125 92.5555 13.138 92.7743 13.3516C92.993 13.5651 93.2821 13.6719 93.6414 13.6719ZM100.301 6.1875C101.395 6.1875 102.221 6.42969 102.778 6.91406C103.341 7.39844 103.622 8.15365 103.622 9.17969V15H102.317L101.966 13.7734H101.903C101.658 14.0859 101.406 14.3438 101.145 14.5469C100.885 14.75 100.583 14.901 100.239 15C99.9004 15.1042 99.4863 15.1562 98.9968 15.1562C98.4811 15.1562 98.0202 15.0625 97.6139 14.875C97.2077 14.6823 96.8874 14.3906 96.653 14C96.4186 13.6094 96.3014 13.1146 96.3014 12.5156C96.3014 11.625 96.6322 10.9557 97.2936 10.5078C97.9603 10.0599 98.9655 9.8125 100.309 9.76562L101.809 9.71094V9.25781C101.809 8.65885 101.669 8.23177 101.387 7.97656C101.111 7.72135 100.721 7.59375 100.216 7.59375C99.7832 7.59375 99.3639 7.65625 98.9577 7.78125C98.5514 7.90625 98.1556 8.0599 97.7702 8.24219L97.1764 6.94531C97.5983 6.72135 98.0775 6.53906 98.6139 6.39844C99.1556 6.25781 99.7181 6.1875 100.301 6.1875ZM101.801 10.8672L100.684 10.9062C99.7676 10.9375 99.1244 11.0938 98.7546 11.375C98.3848 11.6562 98.1999 12.0417 98.1999 12.5312C98.1999 12.9583 98.3275 13.2708 98.5827 13.4688C98.8379 13.6615 99.1738 13.7578 99.5905 13.7578C100.226 13.7578 100.752 13.5781 101.169 13.2188C101.591 12.8542 101.801 12.3203 101.801 11.6172V10.8672ZM109.571 13.6719C109.81 13.6719 110.047 13.651 110.282 13.6094C110.516 13.5625 110.73 13.5078 110.922 13.4453V14.8359C110.719 14.9245 110.456 15 110.133 15.0625C109.81 15.125 109.474 15.1562 109.126 15.1562C108.636 15.1562 108.196 15.0755 107.805 14.9141C107.415 14.7474 107.105 14.4635 106.876 14.0625C106.646 13.6615 106.532 13.1068 106.532 12.3984V7.75H105.352V6.92969L106.618 6.28125L107.219 4.42969H108.376V6.35156H110.852V7.75H108.376V12.375C108.376 12.8125 108.485 13.138 108.704 13.3516C108.922 13.5651 109.211 13.6719 109.571 13.6719ZM114.676 6.35156V15H112.84V6.35156H114.676ZM113.77 3.03906C114.051 3.03906 114.293 3.11458 114.496 3.26562C114.705 3.41667 114.809 3.67708 114.809 4.04688C114.809 4.41146 114.705 4.67188 114.496 4.82812C114.293 4.97917 114.051 5.05469 113.77 5.05469C113.478 5.05469 113.231 4.97917 113.028 4.82812C112.83 4.67188 112.731 4.41146 112.731 4.04688C112.731 3.67708 112.83 3.41667 113.028 3.26562C113.231 3.11458 113.478 3.03906 113.77 3.03906ZM123.281 12.5312C123.281 13.099 123.143 13.5781 122.867 13.9688C122.591 14.3594 122.188 14.6562 121.656 14.8594C121.13 15.0573 120.485 15.1562 119.719 15.1562C119.115 15.1562 118.594 15.112 118.156 15.0234C117.724 14.9401 117.315 14.8099 116.93 14.6328V13.0469C117.341 13.2396 117.802 13.4062 118.313 13.5469C118.828 13.6875 119.315 13.7578 119.774 13.7578C120.378 13.7578 120.813 13.6641 121.078 13.4766C121.344 13.2839 121.477 13.0286 121.477 12.7109C121.477 12.5234 121.422 12.3568 121.313 12.2109C121.209 12.0599 121.011 11.9062 120.719 11.75C120.432 11.5885 120.011 11.3958 119.453 11.1719C118.906 10.9531 118.446 10.7344 118.071 10.5156C117.696 10.2969 117.412 10.0339 117.219 9.72656C117.026 9.41406 116.93 9.01562 116.93 8.53125C116.93 7.76562 117.232 7.1849 117.836 6.78906C118.446 6.38802 119.25 6.1875 120.25 6.1875C120.781 6.1875 121.281 6.24219 121.75 6.35156C122.224 6.45573 122.688 6.60938 123.141 6.8125L122.563 8.19531C122.172 8.02344 121.779 7.88281 121.383 7.77344C120.992 7.65885 120.594 7.60156 120.188 7.60156C119.714 7.60156 119.352 7.67448 119.102 7.82031C118.857 7.96615 118.735 8.17448 118.735 8.44531C118.735 8.64844 118.794 8.82031 118.914 8.96094C119.034 9.10156 119.24 9.24219 119.531 9.38281C119.828 9.52344 120.24 9.69792 120.766 9.90625C121.281 10.1042 121.727 10.3125 122.102 10.5312C122.482 10.7448 122.774 11.0078 122.977 11.3203C123.18 11.6328 123.281 12.0365 123.281 12.5312ZM128.645 13.6719C128.884 13.6719 129.121 13.651 129.356 13.6094C129.59 13.5625 129.803 13.5078 129.996 13.4453V14.8359C129.793 14.9245 129.53 15 129.207 15.0625C128.884 15.125 128.548 15.1562 128.199 15.1562C127.71 15.1562 127.27 15.0755 126.879 14.9141C126.488 14.7474 126.178 14.4635 125.949 14.0625C125.72 13.6615 125.606 13.1068 125.606 12.3984V7.75H124.426V6.92969L125.691 6.28125L126.293 4.42969H127.449V6.35156H129.926V7.75H127.449V12.375C127.449 12.8125 127.559 13.138 127.777 13.3516C127.996 13.5651 128.285 13.6719 128.645 13.6719ZM133.75 6.35156V15H131.914V6.35156H133.75ZM132.844 3.03906C133.125 3.03906 133.367 3.11458 133.57 3.26562C133.779 3.41667 133.883 3.67708 133.883 4.04688C133.883 4.41146 133.779 4.67188 133.57 4.82812C133.367 4.97917 133.125 5.05469 132.844 5.05469C132.552 5.05469 132.305 4.97917 132.101 4.82812C131.904 4.67188 131.805 4.41146 131.805 4.04688C131.805 3.67708 131.904 3.41667 132.101 3.26562C132.305 3.11458 132.552 3.03906 132.844 3.03906ZM140.027 15.1562C139.209 15.1562 138.501 14.9974 137.902 14.6797C137.303 14.362 136.842 13.875 136.519 13.2188C136.196 12.5625 136.035 11.7292 136.035 10.7188C136.035 9.66667 136.212 8.80729 136.566 8.14062C136.92 7.47396 137.41 6.98177 138.035 6.66406C138.665 6.34635 139.386 6.1875 140.199 6.1875C140.715 6.1875 141.181 6.23958 141.597 6.34375C142.019 6.44271 142.376 6.5651 142.668 6.71094L142.121 8.17969C141.803 8.04948 141.478 7.9401 141.144 7.85156C140.811 7.76302 140.491 7.71875 140.183 7.71875C139.678 7.71875 139.256 7.83073 138.918 8.05469C138.584 8.27865 138.334 8.61198 138.168 9.05469C138.006 9.4974 137.926 10.0469 137.926 10.7031C137.926 11.3385 138.009 11.875 138.176 12.3125C138.342 12.7448 138.59 13.0729 138.918 13.2969C139.246 13.5156 139.649 13.625 140.129 13.625C140.603 13.625 141.027 13.5677 141.402 13.4531C141.777 13.3385 142.131 13.1901 142.465 13.0078V14.6016C142.136 14.7891 141.785 14.9271 141.41 15.0156C141.035 15.1094 140.574 15.1562 140.027 15.1562ZM148.046 6.1875C149.14 6.1875 149.966 6.42969 150.523 6.91406C151.086 7.39844 151.367 8.15365 151.367 9.17969V15H150.062L149.711 13.7734H149.648C149.403 14.0859 149.151 14.3438 148.89 14.5469C148.63 14.75 148.328 14.901 147.984 15C147.645 15.1042 147.231 15.1562 146.742 15.1562C146.226 15.1562 145.765 15.0625 145.359 14.875C144.953 14.6823 144.632 14.3906 144.398 14C144.164 13.6094 144.046 13.1146 144.046 12.5156C144.046 11.625 144.377 10.9557 145.039 10.5078C145.705 10.0599 146.711 9.8125 148.054 9.76562L149.554 9.71094V9.25781C149.554 8.65885 149.414 8.23177 149.132 7.97656C148.856 7.72135 148.466 7.59375 147.961 7.59375C147.528 7.59375 147.109 7.65625 146.703 7.78125C146.296 7.90625 145.901 8.0599 145.515 8.24219L144.921 6.94531C145.343 6.72135 145.822 6.53906 146.359 6.39844C146.901 6.25781 147.463 6.1875 148.046 6.1875ZM149.546 10.8672L148.429 10.9062C147.513 10.9375 146.869 11.0938 146.5 11.375C146.13 11.6562 145.945 12.0417 145.945 12.5312C145.945 12.9583 146.072 13.2708 146.328 13.4688C146.583 13.6615 146.919 13.7578 147.336 13.7578C147.971 13.7578 148.497 13.5781 148.914 13.2188C149.336 12.8542 149.546 12.3203 149.546 11.6172V10.8672ZM155.941 15H154.097V2.84375H155.941V15ZM169.698 15H163.23V3.57812H169.698V5.15625H165.105V8.25781H169.409V9.82812H165.105V13.4141H169.698V15ZM176.647 6.1875C177.621 6.1875 178.379 6.4401 178.921 6.94531C179.468 7.44531 179.741 8.25 179.741 9.35938V15H177.905V9.70312C177.905 9.03125 177.767 8.52865 177.491 8.19531C177.215 7.85677 176.788 7.6875 176.21 7.6875C175.371 7.6875 174.788 7.94531 174.46 8.46094C174.137 8.97656 173.976 9.72396 173.976 10.7031V15H172.14V6.35156H173.569L173.827 7.52344H173.929C174.116 7.22135 174.348 6.97396 174.624 6.78125C174.905 6.58333 175.218 6.4349 175.561 6.33594C175.91 6.23698 176.272 6.1875 176.647 6.1875ZM186.854 6.1875C187 6.1875 187.159 6.19531 187.331 6.21094C187.503 6.22656 187.651 6.2474 187.776 6.27344L187.604 7.99219C187.495 7.96094 187.359 7.9375 187.198 7.92188C187.042 7.90625 186.901 7.89844 186.776 7.89844C186.448 7.89844 186.136 7.95312 185.839 8.0625C185.542 8.16667 185.279 8.32812 185.05 8.54688C184.82 8.76042 184.641 9.02865 184.511 9.35156C184.38 9.67448 184.315 10.0495 184.315 10.4766V15H182.471V6.35156H183.909L184.159 7.875H184.245C184.417 7.56771 184.63 7.28646 184.886 7.03125C185.141 6.77604 185.432 6.57292 185.761 6.42188C186.094 6.26562 186.458 6.1875 186.854 6.1875ZM197.194 10.6562C197.194 11.375 197.1 12.013 196.913 12.5703C196.725 13.1276 196.452 13.599 196.092 13.9844C195.733 14.3646 195.301 14.6562 194.796 14.8594C194.29 15.0573 193.72 15.1562 193.085 15.1562C192.491 15.1562 191.947 15.0573 191.452 14.8594C190.957 14.6562 190.527 14.3646 190.163 13.9844C189.803 13.599 189.525 13.1276 189.327 12.5703C189.129 12.013 189.03 11.375 189.03 10.6562C189.03 9.70312 189.194 8.89583 189.522 8.23438C189.855 7.56771 190.329 7.0599 190.944 6.71094C191.559 6.36198 192.29 6.1875 193.139 6.1875C193.936 6.1875 194.639 6.36198 195.249 6.71094C195.858 7.0599 196.335 7.56771 196.678 8.23438C197.022 8.90104 197.194 9.70833 197.194 10.6562ZM190.921 10.6562C190.921 11.2865 190.996 11.8255 191.147 12.2734C191.303 12.7214 191.543 13.0651 191.866 13.3047C192.189 13.5391 192.605 13.6562 193.116 13.6562C193.626 13.6562 194.043 13.5391 194.366 13.3047C194.689 13.0651 194.926 12.7214 195.077 12.2734C195.228 11.8255 195.303 11.2865 195.303 10.6562C195.303 10.026 195.228 9.49219 195.077 9.05469C194.926 8.61198 194.689 8.27604 194.366 8.04688C194.043 7.8125 193.624 7.69531 193.108 7.69531C192.348 7.69531 191.793 7.95052 191.444 8.46094C191.095 8.97135 190.921 9.70312 190.921 10.6562ZM201.307 15H199.463V2.84375H201.307V15ZM205.936 15H204.092V2.84375H205.936V15ZM218.494 6.1875C219.463 6.1875 220.192 6.4375 220.682 6.9375C221.177 7.4375 221.424 8.23958 221.424 9.34375V15H219.588V9.67188C219.588 9.01562 219.46 8.52083 219.205 8.1875C218.95 7.85417 218.562 7.6875 218.041 7.6875C217.312 7.6875 216.786 7.92188 216.463 8.39062C216.145 8.85417 215.986 9.52865 215.986 10.4141V15H214.151V9.67188C214.151 9.23438 214.093 8.86979 213.979 8.57812C213.869 8.28125 213.7 8.0599 213.471 7.91406C213.242 7.76302 212.953 7.6875 212.604 7.6875C212.098 7.6875 211.695 7.80208 211.393 8.03125C211.096 8.26042 210.882 8.59896 210.752 9.04688C210.622 9.48958 210.557 10.0339 210.557 10.6797V15H208.721V6.35156H210.151L210.408 7.51562H210.51C210.687 7.21354 210.906 6.96615 211.166 6.77344C211.432 6.57552 211.726 6.42969 212.049 6.33594C212.372 6.23698 212.708 6.1875 213.057 6.1875C213.703 6.1875 214.247 6.30208 214.69 6.53125C215.132 6.75521 215.463 7.09896 215.682 7.5625H215.822C216.093 7.09375 216.471 6.7474 216.955 6.52344C217.44 6.29948 217.953 6.1875 218.494 6.1875ZM227.592 6.1875C228.363 6.1875 229.024 6.34635 229.576 6.66406C230.128 6.98177 230.553 7.43229 230.85 8.01562C231.146 8.59896 231.295 9.29688 231.295 10.1094V11.0938H225.521C225.542 11.9323 225.766 12.5781 226.193 13.0312C226.626 13.4844 227.23 13.7109 228.006 13.7109C228.558 13.7109 229.053 13.6589 229.49 13.5547C229.933 13.4453 230.389 13.2865 230.857 13.0781V14.5703C230.425 14.7734 229.985 14.9219 229.537 15.0156C229.089 15.1094 228.553 15.1562 227.928 15.1562C227.079 15.1562 226.331 14.9922 225.686 14.6641C225.045 14.3307 224.542 13.8359 224.178 13.1797C223.818 12.5234 223.639 11.7083 223.639 10.7344C223.639 9.76562 223.803 8.94271 224.131 8.26562C224.459 7.58854 224.92 7.07292 225.514 6.71875C226.107 6.36458 226.8 6.1875 227.592 6.1875ZM227.592 7.57031C227.014 7.57031 226.545 7.75781 226.186 8.13281C225.831 8.50781 225.623 9.05729 225.561 9.78125H229.498C229.493 9.34896 229.42 8.96615 229.279 8.63281C229.144 8.29948 228.936 8.03906 228.654 7.85156C228.378 7.66406 228.024 7.57031 227.592 7.57031ZM238.033 6.1875C239.007 6.1875 239.765 6.4401 240.306 6.94531C240.853 7.44531 241.127 8.25 241.127 9.35938V15H239.291V9.70312C239.291 9.03125 239.153 8.52865 238.877 8.19531C238.601 7.85677 238.174 7.6875 237.596 7.6875C236.757 7.6875 236.174 7.94531 235.846 8.46094C235.523 8.97656 235.361 9.72396 235.361 10.7031V15H233.525V6.35156H234.955L235.213 7.52344H235.314C235.502 7.22135 235.734 6.97396 236.01 6.78125C236.291 6.58333 236.603 6.4349 236.947 6.33594C237.296 6.23698 237.658 6.1875 238.033 6.1875ZM247.076 13.6719C247.315 13.6719 247.552 13.651 247.787 13.6094C248.021 13.5625 248.235 13.5078 248.427 13.4453V14.8359C248.224 14.9245 247.961 15 247.638 15.0625C247.315 15.125 246.979 15.1562 246.631 15.1562C246.141 15.1562 245.701 15.0755 245.31 14.9141C244.92 14.7474 244.61 14.4635 244.381 14.0625C244.151 13.6615 244.037 13.1068 244.037 12.3984V7.75H242.857V6.92969L244.123 6.28125L244.724 4.42969H245.881V6.35156H248.357V7.75H245.881V12.375C245.881 12.8125 245.99 13.138 246.209 13.3516C246.427 13.5651 246.716 13.6719 247.076 13.6719ZM90.9268 27.1797C90.9268 28.4661 90.6872 29.5417 90.208 30.4062C89.7288 31.2656 89.0335 31.9141 88.1221 32.3516C87.2106 32.7839 86.1117 33 84.8252 33H81.6533V21.5781H85.1689C86.3512 21.5781 87.3721 21.7917 88.2314 22.2188C89.0908 22.6406 89.7549 23.2682 90.2236 24.1016C90.6924 24.9297 90.9268 25.9557 90.9268 27.1797ZM88.9736 27.2344C88.9736 26.2969 88.8252 25.526 88.5283 24.9219C88.2367 24.3177 87.8044 23.8698 87.2314 23.5781C86.6637 23.2812 85.9632 23.1328 85.1299 23.1328H83.5283V31.4297H84.8564C86.2367 31.4297 87.2679 31.0781 87.9502 30.375C88.6325 29.6719 88.9736 28.625 88.9736 27.2344ZM96.7508 24.1875C97.8446 24.1875 98.6701 24.4297 99.2274 24.9141C99.7899 25.3984 100.071 26.1536 100.071 27.1797V33H98.7664L98.4149 31.7734H98.3524C98.1076 32.0859 97.855 32.3438 97.5946 32.5469C97.3342 32.75 97.0321 32.901 96.6883 33C96.3498 33.1042 95.9357 33.1562 95.4461 33.1562C94.9305 33.1562 94.4696 33.0625 94.0633 32.875C93.6571 32.6823 93.3368 32.3906 93.1024 32C92.868 31.6094 92.7508 31.1146 92.7508 30.5156C92.7508 29.625 93.0815 28.9557 93.743 28.5078C94.4097 28.0599 95.4149 27.8125 96.7586 27.7656L98.2586 27.7109V27.2578C98.2586 26.6589 98.118 26.2318 97.8368 25.9766C97.5607 25.7214 97.1701 25.5938 96.6649 25.5938C96.2326 25.5938 95.8133 25.6562 95.4071 25.7812C95.0008 25.9062 94.605 26.0599 94.2196 26.2422L93.6258 24.9453C94.0477 24.7214 94.5269 24.5391 95.0633 24.3984C95.605 24.2578 96.1675 24.1875 96.7508 24.1875ZM98.2508 28.8672L97.1336 28.9062C96.217 28.9375 95.5737 29.0938 95.2039 29.375C94.8342 29.6562 94.6493 30.0417 94.6493 30.5312C94.6493 30.9583 94.7769 31.2708 95.0321 31.4688C95.2873 31.6615 95.6232 31.7578 96.0399 31.7578C96.6753 31.7578 97.2013 31.5781 97.618 31.2188C98.0399 30.8542 98.2508 30.3203 98.2508 29.6172V28.8672ZM106.02 31.6719C106.26 31.6719 106.497 31.651 106.731 31.6094C106.966 31.5625 107.179 31.5078 107.372 31.4453V32.8359C107.169 32.9245 106.906 33 106.583 33.0625C106.26 33.125 105.924 33.1562 105.575 33.1562C105.085 33.1562 104.645 33.0755 104.255 32.9141C103.864 32.7474 103.554 32.4635 103.325 32.0625C103.096 31.6615 102.981 31.1068 102.981 30.3984V25.75H101.801V24.9297L103.067 24.2812L103.669 22.4297H104.825V24.3516H107.301V25.75H104.825V30.375C104.825 30.8125 104.934 31.138 105.153 31.3516C105.372 31.5651 105.661 31.6719 106.02 31.6719ZM112.68 24.1875C113.774 24.1875 114.599 24.4297 115.157 24.9141C115.719 25.3984 116.001 26.1536 116.001 27.1797V33H114.696L114.344 31.7734H114.282C114.037 32.0859 113.784 32.3438 113.524 32.5469C113.264 32.75 112.961 32.901 112.618 33C112.279 33.1042 111.865 33.1562 111.376 33.1562C110.86 33.1562 110.399 33.0625 109.993 32.875C109.586 32.6823 109.266 32.3906 109.032 32C108.797 31.6094 108.68 31.1146 108.68 30.5156C108.68 29.625 109.011 28.9557 109.672 28.5078C110.339 28.0599 111.344 27.8125 112.688 27.7656L114.188 27.7109V27.2578C114.188 26.6589 114.047 26.2318 113.766 25.9766C113.49 25.7214 113.099 25.5938 112.594 25.5938C112.162 25.5938 111.743 25.6562 111.336 25.7812C110.93 25.9062 110.534 26.0599 110.149 26.2422L109.555 24.9453C109.977 24.7214 110.456 24.5391 110.993 24.3984C111.534 24.2578 112.097 24.1875 112.68 24.1875ZM114.18 28.8672L113.063 28.9062C112.146 28.9375 111.503 29.0938 111.133 29.375C110.764 29.6562 110.579 30.0417 110.579 30.5312C110.579 30.9583 110.706 31.2708 110.961 31.4688C111.217 31.6615 111.553 31.7578 111.969 31.7578C112.605 31.7578 113.131 31.5781 113.547 31.2188C113.969 30.8542 114.18 30.3203 114.18 29.6172V28.8672ZM129.828 29.8906C129.828 30.5677 129.662 31.151 129.328 31.6406C129 32.1302 128.526 32.5052 127.906 32.7656C127.292 33.026 126.557 33.1562 125.703 33.1562C125.287 33.1562 124.888 33.1328 124.508 33.0859C124.128 33.0391 123.768 32.9714 123.43 32.8828C123.097 32.7891 122.792 32.6771 122.516 32.5469V30.7812C122.979 30.9844 123.498 31.1693 124.071 31.3359C124.643 31.4974 125.227 31.5781 125.821 31.5781C126.305 31.5781 126.706 31.5156 127.024 31.3906C127.347 31.2604 127.586 31.0781 127.742 30.8438C127.899 30.6042 127.977 30.3255 127.977 30.0078C127.977 29.6693 127.886 29.3828 127.703 29.1484C127.521 28.9141 127.245 28.7005 126.875 28.5078C126.511 28.3099 126.052 28.099 125.5 27.875C125.125 27.724 124.766 27.5521 124.422 27.3594C124.084 27.1667 123.781 26.9401 123.516 26.6797C123.25 26.4193 123.039 26.112 122.883 25.7578C122.732 25.3984 122.656 24.9766 122.656 24.4922C122.656 23.8464 122.81 23.2943 123.117 22.8359C123.43 22.3776 123.867 22.026 124.43 21.7812C124.998 21.5365 125.659 21.4141 126.414 21.4141C127.013 21.4141 127.576 21.4766 128.102 21.6016C128.633 21.7266 129.154 21.9036 129.664 22.1328L129.071 23.6406C128.602 23.4479 128.146 23.2943 127.703 23.1797C127.266 23.0651 126.818 23.0078 126.36 23.0078C125.964 23.0078 125.628 23.0677 125.352 23.1875C125.076 23.3073 124.865 23.4766 124.719 23.6953C124.578 23.9089 124.508 24.1641 124.508 24.4609C124.508 24.7943 124.589 25.0755 124.75 25.3047C124.917 25.5286 125.172 25.7344 125.516 25.9219C125.865 26.1094 126.313 26.3177 126.86 26.5469C127.49 26.8073 128.024 27.0807 128.461 27.3672C128.904 27.6536 129.242 27.9974 129.477 28.3984C129.711 28.7943 129.828 29.2917 129.828 29.8906ZM130.699 24.3516H132.699L134.473 29.2891C134.551 29.513 134.621 29.7344 134.684 29.9531C134.751 30.1667 134.809 30.3776 134.856 30.5859C134.908 30.7943 134.949 31.0026 134.981 31.2109H135.027C135.079 30.9401 135.152 30.638 135.246 30.3047C135.345 29.9661 135.454 29.6276 135.574 29.2891L137.277 24.3516H139.254L135.543 34.1875C135.329 34.75 135.066 35.2292 134.754 35.625C134.447 36.026 134.082 36.3281 133.66 36.5312C133.238 36.7396 132.757 36.8438 132.215 36.8438C131.954 36.8438 131.728 36.8281 131.535 36.7969C131.342 36.7708 131.178 36.7422 131.043 36.7109V35.2422C131.152 35.2682 131.29 35.2917 131.457 35.3125C131.624 35.3333 131.796 35.3438 131.973 35.3438C132.301 35.3438 132.585 35.2786 132.824 35.1484C133.064 35.0182 133.267 34.8333 133.434 34.5938C133.6 34.3594 133.738 34.0911 133.848 33.7891L134.152 32.9766L130.699 24.3516ZM146.539 30.5312C146.539 31.099 146.401 31.5781 146.125 31.9688C145.849 32.3594 145.445 32.6562 144.914 32.8594C144.388 33.0573 143.742 33.1562 142.976 33.1562C142.372 33.1562 141.851 33.112 141.414 33.0234C140.982 32.9401 140.573 32.8099 140.187 32.6328V31.0469C140.599 31.2396 141.06 31.4062 141.57 31.5469C142.086 31.6875 142.573 31.7578 143.031 31.7578C143.635 31.7578 144.07 31.6641 144.336 31.4766C144.601 31.2839 144.734 31.0286 144.734 30.7109C144.734 30.5234 144.68 30.3568 144.57 30.2109C144.466 30.0599 144.268 29.9062 143.976 29.75C143.69 29.5885 143.268 29.3958 142.711 29.1719C142.164 28.9531 141.703 28.7344 141.328 28.5156C140.953 28.2969 140.669 28.0339 140.476 27.7266C140.284 27.4141 140.187 27.0156 140.187 26.5312C140.187 25.7656 140.489 25.1849 141.094 24.7891C141.703 24.388 142.508 24.1875 143.508 24.1875C144.039 24.1875 144.539 24.2422 145.008 24.3516C145.482 24.4557 145.945 24.6094 146.398 24.8125L145.82 26.1953C145.43 26.0234 145.036 25.8828 144.641 25.7734C144.25 25.6589 143.851 25.6016 143.445 25.6016C142.971 25.6016 142.609 25.6745 142.359 25.8203C142.114 25.9661 141.992 26.1745 141.992 26.4453C141.992 26.6484 142.052 26.8203 142.172 26.9609C142.292 27.1016 142.497 27.2422 142.789 27.3828C143.086 27.5234 143.497 27.6979 144.023 27.9062C144.539 28.1042 144.984 28.3125 145.359 28.5312C145.739 28.7448 146.031 29.0078 146.234 29.3203C146.437 29.6328 146.539 30.0365 146.539 30.5312ZM151.902 31.6719C152.142 31.6719 152.379 31.651 152.613 31.6094C152.847 31.5625 153.061 31.5078 153.254 31.4453V32.8359C153.051 32.9245 152.787 33 152.465 33.0625C152.142 33.125 151.806 33.1562 151.457 33.1562C150.967 33.1562 150.527 33.0755 150.136 32.9141C149.746 32.7474 149.436 32.4635 149.207 32.0625C148.978 31.6615 148.863 31.1068 148.863 30.3984V25.75H147.683V24.9297L148.949 24.2812L149.551 22.4297H150.707V24.3516H153.183V25.75H150.707V30.375C150.707 30.8125 150.816 31.138 151.035 31.3516C151.254 31.5651 151.543 31.6719 151.902 31.6719ZM158.617 24.1875C159.388 24.1875 160.049 24.3464 160.601 24.6641C161.153 24.9818 161.578 25.4323 161.875 26.0156C162.171 26.599 162.32 27.2969 162.32 28.1094V29.0938H156.546C156.567 29.9323 156.791 30.5781 157.218 31.0312C157.651 31.4844 158.255 31.7109 159.031 31.7109C159.583 31.7109 160.078 31.6589 160.515 31.5547C160.958 31.4453 161.414 31.2865 161.882 31.0781V32.5703C161.45 32.7734 161.01 32.9219 160.562 33.0156C160.114 33.1094 159.578 33.1562 158.953 33.1562C158.104 33.1562 157.356 32.9922 156.711 32.6641C156.07 32.3307 155.567 31.8359 155.203 31.1797C154.843 30.5234 154.664 29.7083 154.664 28.7344C154.664 27.7656 154.828 26.9427 155.156 26.2656C155.484 25.5885 155.945 25.0729 156.539 24.7188C157.132 24.3646 157.825 24.1875 158.617 24.1875ZM158.617 25.5703C158.039 25.5703 157.57 25.7578 157.211 26.1328C156.856 26.5078 156.648 27.0573 156.586 27.7812H160.523C160.518 27.349 160.445 26.9661 160.304 26.6328C160.169 26.2995 159.961 26.0391 159.679 25.8516C159.403 25.6641 159.049 25.5703 158.617 25.5703ZM174.324 24.1875C175.292 24.1875 176.022 24.4375 176.511 24.9375C177.006 25.4375 177.253 26.2396 177.253 27.3438V33H175.417V27.6719C175.417 27.0156 175.29 26.5208 175.035 26.1875C174.779 25.8542 174.391 25.6875 173.871 25.6875C173.141 25.6875 172.615 25.9219 172.292 26.3906C171.975 26.8542 171.816 27.5286 171.816 28.4141V33H169.98V27.6719C169.98 27.2344 169.923 26.8698 169.808 26.5781C169.699 26.2812 169.529 26.0599 169.3 25.9141C169.071 25.763 168.782 25.6875 168.433 25.6875C167.928 25.6875 167.524 25.8021 167.222 26.0312C166.925 26.2604 166.712 26.599 166.581 27.0469C166.451 27.4896 166.386 28.0339 166.386 28.6797V33H164.55V24.3516H165.98L166.238 25.5156H166.339C166.516 25.2135 166.735 24.9661 166.996 24.7734C167.261 24.5755 167.555 24.4297 167.878 24.3359C168.201 24.237 168.537 24.1875 168.886 24.1875C169.532 24.1875 170.076 24.3021 170.519 24.5312C170.962 24.7552 171.292 25.099 171.511 25.5625H171.652C171.923 25.0938 172.3 24.7474 172.785 24.5234C173.269 24.2995 173.782 24.1875 174.324 24.1875Z" fill="#5A5A5A"/>
<line x1="69.4927" y1="1" x2="69.4927" y2="35" stroke="#D9D9D9"/>
</svg>
