<svg width="278" height="45" viewBox="0 0 278 45" fill="none" xmlns="http://www.w3.org/2000/svg">
<path d="M12.18 5.98H12.1L11.02 8.2L8.16 13.48L5.3 8.2L4.22 5.98H4.14V16H1.64V2.04H4.62L8.2 8.86H8.28L11.82 2.04H14.68V16H12.18V5.98ZM19.1681 2.04H24.2481C25.1548 2.04 25.9748 2.18667 26.7081 2.48C27.4548 2.77333 28.0881 3.21333 28.6081 3.8C29.1415 4.37333 29.5481 5.1 29.8281 5.98C30.1215 6.84667 30.2681 7.86 30.2681 9.02C30.2681 10.18 30.1215 11.2 29.8281 12.08C29.5481 12.9467 29.1415 13.6733 28.6081 14.26C28.0881 14.8333 27.4548 15.2667 26.7081 15.56C25.9748 15.8533 25.1548 16 24.2481 16H19.1681V2.04ZM24.2481 13.66C25.2348 13.66 26.0148 13.3733 26.5881 12.8C27.1748 12.2133 27.4681 11.32 27.4681 10.12V7.92C27.4681 6.72 27.1748 5.83333 26.5881 5.26C26.0148 4.67333 25.2348 4.38 24.2481 4.38H21.8081V13.66H24.2481ZM39.5772 16.24C38.6572 16.24 37.8239 16.0933 37.0772 15.8C36.3439 15.4933 35.7105 15.04 35.1772 14.44C34.6572 13.84 34.2572 13.1 33.9772 12.22C33.6972 11.3267 33.5572 10.2933 33.5572 9.12C33.5572 7.94667 33.6972 6.90667 33.9772 6C34.2572 5.08 34.6572 4.31333 35.1772 3.7C35.7105 3.07333 36.3439 2.6 37.0772 2.28C37.8239 1.96 38.6572 1.8 39.5772 1.8C40.8305 1.8 41.8705 2.06667 42.6972 2.6C43.5239 3.13333 44.1839 3.94 44.6772 5.02L42.4172 6.22C42.2172 5.59333 41.8905 5.09333 41.4372 4.72C40.9839 4.33333 40.3639 4.14 39.5772 4.14C38.5905 4.14 37.8039 4.47333 37.2172 5.14C36.6439 5.80667 36.3572 6.74 36.3572 7.94V10.14C36.3572 11.3533 36.6439 12.2867 37.2172 12.94C37.8039 13.58 38.5905 13.9 39.5772 13.9C40.3639 13.9 41.0039 13.6867 41.4972 13.26C42.0039 12.8333 42.3705 12.3067 42.5972 11.68L44.7372 12.94C44.2305 13.98 43.5572 14.7933 42.7172 15.38C41.8772 15.9533 40.8305 16.24 39.5772 16.24ZM53.6692 4.38V16H51.0292V4.38H47.0692V2.04H57.6292V4.38H53.6692ZM5.681 34.228C4.541 34.228 3.572 34.0253 2.774 33.62C1.98867 33.2147 1.311 32.6827 0.741 32.024L2.432 30.39C2.888 30.922 3.39467 31.3273 3.952 31.606C4.522 31.8847 5.149 32.024 5.833 32.024C6.60567 32.024 7.18833 31.8593 7.581 31.53C7.97367 31.188 8.17 30.732 8.17 30.162C8.17 29.7187 8.04333 29.3577 7.79 29.079C7.53667 28.8003 7.06167 28.5977 6.365 28.471L5.111 28.281C2.46367 27.863 1.14 26.5773 1.14 24.424C1.14 23.8287 1.24767 23.2903 1.463 22.809C1.691 22.3277 2.014 21.916 2.432 21.574C2.85 21.232 3.35033 20.9723 3.933 20.795C4.52833 20.605 5.19967 20.51 5.947 20.51C6.94767 20.51 7.82167 20.6747 8.569 21.004C9.31633 21.3333 9.956 21.821 10.488 22.467L8.778 24.082C8.44867 23.6767 8.04967 23.3473 7.581 23.094C7.11233 22.8407 6.52333 22.714 5.814 22.714C5.092 22.714 4.54733 22.8533 4.18 23.132C3.82533 23.398 3.648 23.778 3.648 24.272C3.648 24.7787 3.79367 25.1523 4.085 25.393C4.37633 25.6337 4.845 25.811 5.491 25.925L6.726 26.153C8.06867 26.3937 9.05667 26.8243 9.69 27.445C10.336 28.053 10.659 28.908 10.659 30.01C10.659 30.6433 10.545 31.2197 10.317 31.739C10.1017 32.2457 9.77867 32.689 9.348 33.069C8.93 33.4363 8.41067 33.7213 7.79 33.924C7.182 34.1267 6.479 34.228 5.681 34.228ZM16.5932 34V20.738H25.3332V22.961H19.1012V26.172H24.6112V28.395H19.1012V31.777H25.3332V34H16.5932ZM31.4058 20.738H36.2318C37.0931 20.738 37.8721 20.8773 38.5688 21.156C39.2781 21.4347 39.8798 21.8527 40.3738 22.41C40.8805 22.9547 41.2668 23.645 41.5328 24.481C41.8115 25.3043 41.9508 26.267 41.9508 27.369C41.9508 28.471 41.8115 29.44 41.5328 30.276C41.2668 31.0993 40.8805 31.7897 40.3738 32.347C39.8798 32.8917 39.2781 33.3033 38.5688 33.582C37.8721 33.8607 37.0931 34 36.2318 34H31.4058V20.738ZM36.2318 31.777C37.1691 31.777 37.9101 31.5047 38.4548 30.96C39.0121 30.4027 39.2908 29.554 39.2908 28.414V26.324C39.2908 25.184 39.0121 24.3417 38.4548 23.797C37.9101 23.2397 37.1691 22.961 36.2318 22.961H33.9138V31.777H36.2318ZM52.0484 34.228C50.9084 34.228 49.9394 34.0253 49.1414 33.62C48.3561 33.2147 47.6784 32.6827 47.1084 32.024L48.7994 30.39C49.2554 30.922 49.7621 31.3273 50.3194 31.606C50.8894 31.8847 51.5164 32.024 52.2004 32.024C52.9731 32.024 53.5558 31.8593 53.9484 31.53C54.3411 31.188 54.5374 30.732 54.5374 30.162C54.5374 29.7187 54.4108 29.3577 54.1574 29.079C53.9041 28.8003 53.4291 28.5977 52.7324 28.471L51.4784 28.281C48.8311 27.863 47.5074 26.5773 47.5074 24.424C47.5074 23.8287 47.6151 23.2903 47.8304 22.809C48.0584 22.3277 48.3814 21.916 48.7994 21.574C49.2174 21.232 49.7178 20.9723 50.3004 20.795C50.8958 20.605 51.5671 20.51 52.3144 20.51C53.3151 20.51 54.1891 20.6747 54.9364 21.004C55.6838 21.3333 56.3234 21.821 56.8554 22.467L55.1454 24.082C54.8161 23.6767 54.4171 23.3473 53.9484 23.094C53.4798 22.8407 52.8908 22.714 52.1814 22.714C51.4594 22.714 50.9148 22.8533 50.5474 23.132C50.1928 23.398 50.0154 23.778 50.0154 24.272C50.0154 24.7787 50.1611 25.1523 50.4524 25.393C50.7438 25.6337 51.2124 25.811 51.8584 25.925L53.0934 26.153C54.4361 26.3937 55.4241 26.8243 56.0574 27.445C56.7034 28.053 57.0264 28.908 57.0264 30.01C57.0264 30.6433 56.9124 31.2197 56.6844 31.739C56.4691 32.2457 56.1461 32.689 55.7154 33.069C55.2974 33.4363 54.7781 33.7213 54.1574 33.924C53.5494 34.1267 52.8464 34.228 52.0484 34.228Z" fill="white"/>
<path d="M88.2471 11.8906C88.2471 12.5677 88.0804 13.151 87.7471 13.6406C87.4189 14.1302 86.945 14.5052 86.3252 14.7656C85.7106 15.026 84.9762 15.1562 84.1221 15.1562C83.7054 15.1562 83.307 15.1328 82.9268 15.0859C82.5465 15.0391 82.1872 14.9714 81.8486 14.8828C81.5153 14.7891 81.2106 14.6771 80.9346 14.5469V12.7812C81.3981 12.9844 81.9163 13.1693 82.4893 13.3359C83.0622 13.4974 83.6455 13.5781 84.2393 13.5781C84.7236 13.5781 85.1247 13.5156 85.4424 13.3906C85.7653 13.2604 86.0049 13.0781 86.1611 12.8438C86.3174 12.6042 86.3955 12.3255 86.3955 12.0078C86.3955 11.6693 86.3044 11.3828 86.1221 11.1484C85.9398 10.9141 85.6637 10.7005 85.2939 10.5078C84.9294 10.3099 84.471 10.099 83.9189 9.875C83.5439 9.72396 83.1846 9.55208 82.8408 9.35938C82.5023 9.16667 82.2002 8.9401 81.9346 8.67969C81.6689 8.41927 81.458 8.11198 81.3018 7.75781C81.1507 7.39844 81.0752 6.97656 81.0752 6.49219C81.0752 5.84635 81.2288 5.29427 81.5361 4.83594C81.8486 4.3776 82.2861 4.02604 82.8486 3.78125C83.4163 3.53646 84.0778 3.41406 84.833 3.41406C85.432 3.41406 85.9945 3.47656 86.5205 3.60156C87.0518 3.72656 87.5726 3.90365 88.083 4.13281L87.4893 5.64062C87.0205 5.44792 86.5648 5.29427 86.1221 5.17969C85.6846 5.0651 85.2367 5.00781 84.7783 5.00781C84.3825 5.00781 84.0465 5.06771 83.7705 5.1875C83.4945 5.30729 83.2835 5.47656 83.1377 5.69531C82.9971 5.90885 82.9268 6.16406 82.9268 6.46094C82.9268 6.79427 83.0075 7.07552 83.1689 7.30469C83.3356 7.52865 83.5908 7.73438 83.9346 7.92188C84.2835 8.10938 84.7314 8.31771 85.2783 8.54688C85.9085 8.80729 86.4424 9.08073 86.8799 9.36719C87.3226 9.65365 87.6611 9.9974 87.8955 10.3984C88.1299 10.7943 88.2471 11.2917 88.2471 11.8906ZM93.6414 13.6719C93.881 13.6719 94.118 13.651 94.3524 13.6094C94.5868 13.5625 94.8003 13.5078 94.993 13.4453V14.8359C94.7899 14.9245 94.5269 15 94.2039 15.0625C93.881 15.125 93.5451 15.1562 93.1961 15.1562C92.7065 15.1562 92.2664 15.0755 91.8758 14.9141C91.4852 14.7474 91.1753 14.4635 90.9461 14.0625C90.717 13.6615 90.6024 13.1068 90.6024 12.3984V7.75H89.4227V6.92969L90.6883 6.28125L91.2899 4.42969H92.4461V6.35156H94.9227V7.75H92.4461V12.375C92.4461 12.8125 92.5555 13.138 92.7743 13.3516C92.993 13.5651 93.2821 13.6719 93.6414 13.6719ZM100.301 6.1875C101.395 6.1875 102.221 6.42969 102.778 6.91406C103.341 7.39844 103.622 8.15365 103.622 9.17969V15H102.317L101.966 13.7734H101.903C101.658 14.0859 101.406 14.3438 101.145 14.5469C100.885 14.75 100.583 14.901 100.239 15C99.9004 15.1042 99.4863 15.1562 98.9968 15.1562C98.4811 15.1562 98.0202 15.0625 97.6139 14.875C97.2077 14.6823 96.8874 14.3906 96.653 14C96.4186 13.6094 96.3014 13.1146 96.3014 12.5156C96.3014 11.625 96.6322 10.9557 97.2936 10.5078C97.9603 10.0599 98.9655 9.8125 100.309 9.76562L101.809 9.71094V9.25781C101.809 8.65885 101.669 8.23177 101.387 7.97656C101.111 7.72135 100.721 7.59375 100.216 7.59375C99.7832 7.59375 99.3639 7.65625 98.9577 7.78125C98.5514 7.90625 98.1556 8.0599 97.7702 8.24219L97.1764 6.94531C97.5983 6.72135 98.0775 6.53906 98.6139 6.39844C99.1556 6.25781 99.7181 6.1875 100.301 6.1875ZM101.801 10.8672L100.684 10.9062C99.7676 10.9375 99.1244 11.0938 98.7546 11.375C98.3848 11.6562 98.1999 12.0417 98.1999 12.5312C98.1999 12.9583 98.3275 13.2708 98.5827 13.4688C98.8379 13.6615 99.1738 13.7578 99.5905 13.7578C100.226 13.7578 100.752 13.5781 101.169 13.2188C101.591 12.8542 101.801 12.3203 101.801 11.6172V10.8672ZM109.571 13.6719C109.81 13.6719 110.047 13.651 110.282 13.6094C110.516 13.5625 110.73 13.5078 110.922 13.4453V14.8359C110.719 14.9245 110.456 15 110.133 15.0625C109.81 15.125 109.474 15.1562 109.126 15.1562C108.636 15.1562 108.196 15.0755 107.805 14.9141C107.415 14.7474 107.105 14.4635 106.876 14.0625C106.646 13.6615 106.532 13.1068 106.532 12.3984V7.75H105.352V6.92969L106.618 6.28125L107.219 4.42969H108.376V6.35156H110.852V7.75H108.376V12.375C108.376 12.8125 108.485 13.138 108.704 13.3516C108.922 13.5651 109.211 13.6719 109.571 13.6719ZM114.676 6.35156V15H112.84V6.35156H114.676ZM113.77 3.03906C114.051 3.03906 114.293 3.11458 114.496 3.26562C114.705 3.41667 114.809 3.67708 114.809 4.04688C114.809 4.41146 114.705 4.67188 114.496 4.82812C114.293 4.97917 114.051 5.05469 113.77 5.05469C113.478 5.05469 113.231 4.97917 113.028 4.82812C112.83 4.67188 112.731 4.41146 112.731 4.04688C112.731 3.67708 112.83 3.41667 113.028 3.26562C113.231 3.11458 113.478 3.03906 113.77 3.03906ZM123.281 12.5312C123.281 13.099 123.143 13.5781 122.867 13.9688C122.591 14.3594 122.188 14.6562 121.656 14.8594C121.13 15.0573 120.485 15.1562 119.719 15.1562C119.115 15.1562 118.594 15.112 118.156 15.0234C117.724 14.9401 117.315 14.8099 116.93 14.6328V13.0469C117.341 13.2396 117.802 13.4062 118.313 13.5469C118.828 13.6875 119.315 13.7578 119.774 13.7578C120.378 13.7578 120.813 13.6641 121.078 13.4766C121.344 13.2839 121.477 13.0286 121.477 12.7109C121.477 12.5234 121.422 12.3568 121.313 12.2109C121.209 12.0599 121.011 11.9062 120.719 11.75C120.432 11.5885 120.011 11.3958 119.453 11.1719C118.906 10.9531 118.446 10.7344 118.071 10.5156C117.696 10.2969 117.412 10.0339 117.219 9.72656C117.026 9.41406 116.93 9.01562 116.93 8.53125C116.93 7.76562 117.232 7.1849 117.836 6.78906C118.446 6.38802 119.25 6.1875 120.25 6.1875C120.781 6.1875 121.281 6.24219 121.75 6.35156C122.224 6.45573 122.688 6.60938 123.141 6.8125L122.563 8.19531C122.172 8.02344 121.779 7.88281 121.383 7.77344C120.992 7.65885 120.594 7.60156 120.188 7.60156C119.714 7.60156 119.352 7.67448 119.102 7.82031C118.857 7.96615 118.735 8.17448 118.735 8.44531C118.735 8.64844 118.794 8.82031 118.914 8.96094C119.034 9.10156 119.24 9.24219 119.531 9.38281C119.828 9.52344 120.24 9.69792 120.766 9.90625C121.281 10.1042 121.727 10.3125 122.102 10.5312C122.482 10.7448 122.774 11.0078 122.977 11.3203C123.18 11.6328 123.281 12.0365 123.281 12.5312ZM128.645 13.6719C128.884 13.6719 129.121 13.651 129.356 13.6094C129.59 13.5625 129.803 13.5078 129.996 13.4453V14.8359C129.793 14.9245 129.53 15 129.207 15.0625C128.884 15.125 128.548 15.1562 128.199 15.1562C127.71 15.1562 127.27 15.0755 126.879 14.9141C126.488 14.7474 126.178 14.4635 125.949 14.0625C125.72 13.6615 125.606 13.1068 125.606 12.3984V7.75H124.426V6.92969L125.691 6.28125L126.293 4.42969H127.449V6.35156H129.926V7.75H127.449V12.375C127.449 12.8125 127.559 13.138 127.777 13.3516C127.996 13.5651 128.285 13.6719 128.645 13.6719ZM133.75 6.35156V15H131.914V6.35156H133.75ZM132.844 3.03906C133.125 3.03906 133.367 3.11458 133.57 3.26562C133.779 3.41667 133.883 3.67708 133.883 4.04688C133.883 4.41146 133.779 4.67188 133.57 4.82812C133.367 4.97917 133.125 5.05469 132.844 5.05469C132.552 5.05469 132.305 4.97917 132.101 4.82812C131.904 4.67188 131.805 4.41146 131.805 4.04688C131.805 3.67708 131.904 3.41667 132.101 3.26562C132.305 3.11458 132.552 3.03906 132.844 3.03906ZM140.027 15.1562C139.209 15.1562 138.501 14.9974 137.902 14.6797C137.303 14.362 136.842 13.875 136.519 13.2188C136.196 12.5625 136.035 11.7292 136.035 10.7188C136.035 9.66667 136.212 8.80729 136.566 8.14062C136.92 7.47396 137.41 6.98177 138.035 6.66406C138.665 6.34635 139.386 6.1875 140.199 6.1875C140.715 6.1875 141.181 6.23958 141.597 6.34375C142.019 6.44271 142.376 6.5651 142.668 6.71094L142.121 8.17969C141.803 8.04948 141.478 7.9401 141.144 7.85156C140.811 7.76302 140.491 7.71875 140.183 7.71875C139.678 7.71875 139.256 7.83073 138.918 8.05469C138.584 8.27865 138.334 8.61198 138.168 9.05469C138.006 9.4974 137.926 10.0469 137.926 10.7031C137.926 11.3385 138.009 11.875 138.176 12.3125C138.342 12.7448 138.59 13.0729 138.918 13.2969C139.246 13.5156 139.649 13.625 140.129 13.625C140.603 13.625 141.027 13.5677 141.402 13.4531C141.777 13.3385 142.131 13.1901 142.465 13.0078V14.6016C142.136 14.7891 141.785 14.9271 141.41 15.0156C141.035 15.1094 140.574 15.1562 140.027 15.1562ZM148.046 6.1875C149.14 6.1875 149.966 6.42969 150.523 6.91406C151.086 7.39844 151.367 8.15365 151.367 9.17969V15H150.062L149.711 13.7734H149.648C149.403 14.0859 149.151 14.3438 148.89 14.5469C148.63 14.75 148.328 14.901 147.984 15C147.645 15.1042 147.231 15.1562 146.742 15.1562C146.226 15.1562 145.765 15.0625 145.359 14.875C144.953 14.6823 144.632 14.3906 144.398 14C144.164 13.6094 144.046 13.1146 144.046 12.5156C144.046 11.625 144.377 10.9557 145.039 10.5078C145.705 10.0599 146.711 9.8125 148.054 9.76562L149.554 9.71094V9.25781C149.554 8.65885 149.414 8.23177 149.132 7.97656C148.856 7.72135 148.466 7.59375 147.961 7.59375C147.528 7.59375 147.109 7.65625 146.703 7.78125C146.296 7.90625 145.901 8.0599 145.515 8.24219L144.921 6.94531C145.343 6.72135 145.822 6.53906 146.359 6.39844C146.901 6.25781 147.463 6.1875 148.046 6.1875ZM149.546 10.8672L148.429 10.9062C147.513 10.9375 146.869 11.0938 146.5 11.375C146.13 11.6562 145.945 12.0417 145.945 12.5312C145.945 12.9583 146.072 13.2708 146.328 13.4688C146.583 13.6615 146.919 13.7578 147.336 13.7578C147.971 13.7578 148.497 13.5781 148.914 13.2188C149.336 12.8542 149.546 12.3203 149.546 11.6172V10.8672ZM155.941 15H154.097V2.84375H155.941V15ZM169.698 15H163.23V3.57812H169.698V5.15625H165.105V8.25781H169.409V9.82812H165.105V13.4141H169.698V15ZM176.647 6.1875C177.621 6.1875 178.379 6.4401 178.921 6.94531C179.468 7.44531 179.741 8.25 179.741 9.35938V15H177.905V9.70312C177.905 9.03125 177.767 8.52865 177.491 8.19531C177.215 7.85677 176.788 7.6875 176.21 7.6875C175.371 7.6875 174.788 7.94531 174.46 8.46094C174.137 8.97656 173.976 9.72396 173.976 10.7031V15H172.14V6.35156H173.569L173.827 7.52344H173.929C174.116 7.22135 174.348 6.97396 174.624 6.78125C174.905 6.58333 175.218 6.4349 175.561 6.33594C175.91 6.23698 176.272 6.1875 176.647 6.1875ZM186.854 6.1875C187 6.1875 187.159 6.19531 187.331 6.21094C187.503 6.22656 187.651 6.2474 187.776 6.27344L187.604 7.99219C187.495 7.96094 187.359 7.9375 187.198 7.92188C187.042 7.90625 186.901 7.89844 186.776 7.89844C186.448 7.89844 186.136 7.95312 185.839 8.0625C185.542 8.16667 185.279 8.32812 185.05 8.54688C184.82 8.76042 184.641 9.02865 184.511 9.35156C184.38 9.67448 184.315 10.0495 184.315 10.4766V15H182.471V6.35156H183.909L184.159 7.875H184.245C184.417 7.56771 184.63 7.28646 184.886 7.03125C185.141 6.77604 185.432 6.57292 185.761 6.42188C186.094 6.26562 186.458 6.1875 186.854 6.1875ZM197.194 10.6562C197.194 11.375 197.1 12.013 196.913 12.5703C196.725 13.1276 196.452 13.599 196.092 13.9844C195.733 14.3646 195.301 14.6562 194.796 14.8594C194.29 15.0573 193.72 15.1562 193.085 15.1562C192.491 15.1562 191.947 15.0573 191.452 14.8594C190.957 14.6562 190.527 14.3646 190.163 13.9844C189.803 13.599 189.525 13.1276 189.327 12.5703C189.129 12.013 189.03 11.375 189.03 10.6562C189.03 9.70312 189.194 8.89583 189.522 8.23438C189.855 7.56771 190.329 7.0599 190.944 6.71094C191.559 6.36198 192.29 6.1875 193.139 6.1875C193.936 6.1875 194.639 6.36198 195.249 6.71094C195.858 7.0599 196.335 7.56771 196.678 8.23438C197.022 8.90104 197.194 9.70833 197.194 10.6562ZM190.921 10.6562C190.921 11.2865 190.996 11.8255 191.147 12.2734C191.303 12.7214 191.543 13.0651 191.866 13.3047C192.189 13.5391 192.605 13.6562 193.116 13.6562C193.626 13.6562 194.043 13.5391 194.366 13.3047C194.689 13.0651 194.926 12.7214 195.077 12.2734C195.228 11.8255 195.303 11.2865 195.303 10.6562C195.303 10.026 195.228 9.49219 195.077 9.05469C194.926 8.61198 194.689 8.27604 194.366 8.04688C194.043 7.8125 193.624 7.69531 193.108 7.69531C192.348 7.69531 191.793 7.95052 191.444 8.46094C191.095 8.97135 190.921 9.70312 190.921 10.6562ZM201.307 15H199.463V2.84375H201.307V15ZM205.936 15H204.092V2.84375H205.936V15ZM218.494 6.1875C219.463 6.1875 220.192 6.4375 220.682 6.9375C221.177 7.4375 221.424 8.23958 221.424 9.34375V15H219.588V9.67188C219.588 9.01562 219.46 8.52083 219.205 8.1875C218.95 7.85417 218.562 7.6875 218.041 7.6875C217.312 7.6875 216.786 7.92188 216.463 8.39062C216.145 8.85417 215.986 9.52865 215.986 10.4141V15H214.151V9.67188C214.151 9.23438 214.093 8.86979 213.979 8.57812C213.869 8.28125 213.7 8.0599 213.471 7.91406C213.242 7.76302 212.953 7.6875 212.604 7.6875C212.098 7.6875 211.695 7.80208 211.393 8.03125C211.096 8.26042 210.882 8.59896 210.752 9.04688C210.622 9.48958 210.557 10.0339 210.557 10.6797V15H208.721V6.35156H210.151L210.408 7.51562H210.51C210.687 7.21354 210.906 6.96615 211.166 6.77344C211.432 6.57552 211.726 6.42969 212.049 6.33594C212.372 6.23698 212.708 6.1875 213.057 6.1875C213.703 6.1875 214.247 6.30208 214.69 6.53125C215.132 6.75521 215.463 7.09896 215.682 7.5625H215.822C216.093 7.09375 216.471 6.7474 216.955 6.52344C217.44 6.29948 217.953 6.1875 218.494 6.1875ZM227.592 6.1875C228.363 6.1875 229.024 6.34635 229.576 6.66406C230.128 6.98177 230.553 7.43229 230.85 8.01562C231.146 8.59896 231.295 9.29688 231.295 10.1094V11.0938H225.521C225.542 11.9323 225.766 12.5781 226.193 13.0312C226.626 13.4844 227.23 13.7109 228.006 13.7109C228.558 13.7109 229.053 13.6589 229.49 13.5547C229.933 13.4453 230.389 13.2865 230.857 13.0781V14.5703C230.425 14.7734 229.985 14.9219 229.537 15.0156C229.089 15.1094 228.553 15.1562 227.928 15.1562C227.079 15.1562 226.331 14.9922 225.686 14.6641C225.045 14.3307 224.542 13.8359 224.178 13.1797C223.818 12.5234 223.639 11.7083 223.639 10.7344C223.639 9.76562 223.803 8.94271 224.131 8.26562C224.459 7.58854 224.92 7.07292 225.514 6.71875C226.107 6.36458 226.8 6.1875 227.592 6.1875ZM227.592 7.57031C227.014 7.57031 226.545 7.75781 226.186 8.13281C225.831 8.50781 225.623 9.05729 225.561 9.78125H229.498C229.493 9.34896 229.42 8.96615 229.279 8.63281C229.144 8.29948 228.936 8.03906 228.654 7.85156C228.378 7.66406 228.024 7.57031 227.592 7.57031ZM238.033 6.1875C239.007 6.1875 239.765 6.4401 240.306 6.94531C240.853 7.44531 241.127 8.25 241.127 9.35938V15H239.291V9.70312C239.291 9.03125 239.153 8.52865 238.877 8.19531C238.601 7.85677 238.174 7.6875 237.596 7.6875C236.757 7.6875 236.174 7.94531 235.846 8.46094C235.523 8.97656 235.361 9.72396 235.361 10.7031V15H233.525V6.35156H234.955L235.213 7.52344H235.314C235.502 7.22135 235.734 6.97396 236.01 6.78125C236.291 6.58333 236.603 6.4349 236.947 6.33594C237.296 6.23698 237.658 6.1875 238.033 6.1875ZM247.076 13.6719C247.315 13.6719 247.552 13.651 247.787 13.6094C248.021 13.5625 248.235 13.5078 248.427 13.4453V14.8359C248.224 14.9245 247.961 15 247.638 15.0625C247.315 15.125 246.979 15.1562 246.631 15.1562C246.141 15.1562 245.701 15.0755 245.31 14.9141C244.92 14.7474 244.61 14.4635 244.381 14.0625C244.151 13.6615 244.037 13.1068 244.037 12.3984V7.75H242.857V6.92969L244.123 6.28125L244.724 4.42969H245.881V6.35156H248.357V7.75H245.881V12.375C245.881 12.8125 245.99 13.138 246.209 13.3516C246.427 13.5651 246.716 13.6719 247.076 13.6719ZM90.9268 27.1797C90.9268 28.4661 90.6872 29.5417 90.208 30.4062C89.7288 31.2656 89.0335 31.9141 88.1221 32.3516C87.2106 32.7839 86.1117 33 84.8252 33H81.6533V21.5781H85.1689C86.3512 21.5781 87.3721 21.7917 88.2314 22.2188C89.0908 22.6406 89.7549 23.2682 90.2236 24.1016C90.6924 24.9297 90.9268 25.9557 90.9268 27.1797ZM88.9736 27.2344C88.9736 26.2969 88.8252 25.526 88.5283 24.9219C88.2367 24.3177 87.8044 23.8698 87.2314 23.5781C86.6637 23.2812 85.9632 23.1328 85.1299 23.1328H83.5283V31.4297H84.8564C86.2367 31.4297 87.2679 31.0781 87.9502 30.375C88.6325 29.6719 88.9736 28.625 88.9736 27.2344ZM96.7508 24.1875C97.8446 24.1875 98.6701 24.4297 99.2274 24.9141C99.7899 25.3984 100.071 26.1536 100.071 27.1797V33H98.7664L98.4149 31.7734H98.3524C98.1076 32.0859 97.855 32.3438 97.5946 32.5469C97.3342 32.75 97.0321 32.901 96.6883 33C96.3498 33.1042 95.9357 33.1562 95.4461 33.1562C94.9305 33.1562 94.4696 33.0625 94.0633 32.875C93.6571 32.6823 93.3368 32.3906 93.1024 32C92.868 31.6094 92.7508 31.1146 92.7508 30.5156C92.7508 29.625 93.0815 28.9557 93.743 28.5078C94.4097 28.0599 95.4149 27.8125 96.7586 27.7656L98.2586 27.7109V27.2578C98.2586 26.6589 98.118 26.2318 97.8368 25.9766C97.5607 25.7214 97.1701 25.5938 96.6649 25.5938C96.2326 25.5938 95.8133 25.6562 95.4071 25.7812C95.0008 25.9062 94.605 26.0599 94.2196 26.2422L93.6258 24.9453C94.0477 24.7214 94.5269 24.5391 95.0633 24.3984C95.605 24.2578 96.1675 24.1875 96.7508 24.1875ZM98.2508 28.8672L97.1336 28.9062C96.217 28.9375 95.5737 29.0938 95.2039 29.375C94.8342 29.6562 94.6493 30.0417 94.6493 30.5312C94.6493 30.9583 94.7769 31.2708 95.0321 31.4688C95.2873 31.6615 95.6232 31.7578 96.0399 31.7578C96.6753 31.7578 97.2013 31.5781 97.618 31.2188C98.0399 30.8542 98.2508 30.3203 98.2508 29.6172V28.8672ZM106.02 31.6719C106.26 31.6719 106.497 31.651 106.731 31.6094C106.966 31.5625 107.179 31.5078 107.372 31.4453V32.8359C107.169 32.9245 106.906 33 106.583 33.0625C106.26 33.125 105.924 33.1562 105.575 33.1562C105.085 33.1562 104.645 33.0755 104.255 32.9141C103.864 32.7474 103.554 32.4635 103.325 32.0625C103.096 31.6615 102.981 31.1068 102.981 30.3984V25.75H101.801V24.9297L103.067 24.2812L103.669 22.4297H104.825V24.3516H107.301V25.75H104.825V30.375C104.825 30.8125 104.934 31.138 105.153 31.3516C105.372 31.5651 105.661 31.6719 106.02 31.6719ZM112.68 24.1875C113.774 24.1875 114.599 24.4297 115.157 24.9141C115.719 25.3984 116.001 26.1536 116.001 27.1797V33H114.696L114.344 31.7734H114.282C114.037 32.0859 113.784 32.3438 113.524 32.5469C113.264 32.75 112.961 32.901 112.618 33C112.279 33.1042 111.865 33.1562 111.376 33.1562C110.86 33.1562 110.399 33.0625 109.993 32.875C109.586 32.6823 109.266 32.3906 109.032 32C108.797 31.6094 108.68 31.1146 108.68 30.5156C108.68 29.625 109.011 28.9557 109.672 28.5078C110.339 28.0599 111.344 27.8125 112.688 27.7656L114.188 27.7109V27.2578C114.188 26.6589 114.047 26.2318 113.766 25.9766C113.49 25.7214 113.099 25.5938 112.594 25.5938C112.162 25.5938 111.743 25.6562 111.336 25.7812C110.93 25.9062 110.534 26.0599 110.149 26.2422L109.555 24.9453C109.977 24.7214 110.456 24.5391 110.993 24.3984C111.534 24.2578 112.097 24.1875 112.68 24.1875ZM114.18 28.8672L113.063 28.9062C112.146 28.9375 111.503 29.0938 111.133 29.375C110.764 29.6562 110.579 30.0417 110.579 30.5312C110.579 30.9583 110.706 31.2708 110.961 31.4688C111.217 31.6615 111.553 31.7578 111.969 31.7578C112.605 31.7578 113.131 31.5781 113.547 31.2188C113.969 30.8542 114.18 30.3203 114.18 29.6172V28.8672ZM129.828 29.8906C129.828 30.5677 129.662 31.151 129.328 31.6406C129 32.1302 128.526 32.5052 127.906 32.7656C127.292 33.026 126.557 33.1562 125.703 33.1562C125.287 33.1562 124.888 33.1328 124.508 33.0859C124.128 33.0391 123.768 32.9714 123.43 32.8828C123.097 32.7891 122.792 32.6771 122.516 32.5469V30.7812C122.979 30.9844 123.498 31.1693 124.071 31.3359C124.643 31.4974 125.227 31.5781 125.821 31.5781C126.305 31.5781 126.706 31.5156 127.024 31.3906C127.347 31.2604 127.586 31.0781 127.742 30.8438C127.899 30.6042 127.977 30.3255 127.977 30.0078C127.977 29.6693 127.886 29.3828 127.703 29.1484C127.521 28.9141 127.245 28.7005 126.875 28.5078C126.511 28.3099 126.052 28.099 125.5 27.875C125.125 27.724 124.766 27.5521 124.422 27.3594C124.084 27.1667 123.781 26.9401 123.516 26.6797C123.25 26.4193 123.039 26.112 122.883 25.7578C122.732 25.3984 122.656 24.9766 122.656 24.4922C122.656 23.8464 122.81 23.2943 123.117 22.8359C123.43 22.3776 123.867 22.026 124.43 21.7812C124.998 21.5365 125.659 21.4141 126.414 21.4141C127.013 21.4141 127.576 21.4766 128.102 21.6016C128.633 21.7266 129.154 21.9036 129.664 22.1328L129.071 23.6406C128.602 23.4479 128.146 23.2943 127.703 23.1797C127.266 23.0651 126.818 23.0078 126.36 23.0078C125.964 23.0078 125.628 23.0677 125.352 23.1875C125.076 23.3073 124.865 23.4766 124.719 23.6953C124.578 23.9089 124.508 24.1641 124.508 24.4609C124.508 24.7943 124.589 25.0755 124.75 25.3047C124.917 25.5286 125.172 25.7344 125.516 25.9219C125.865 26.1094 126.313 26.3177 126.86 26.5469C127.49 26.8073 128.024 27.0807 128.461 27.3672C128.904 27.6536 129.242 27.9974 129.477 28.3984C129.711 28.7943 129.828 29.2917 129.828 29.8906ZM130.699 24.3516H132.699L134.473 29.2891C134.551 29.513 134.621 29.7344 134.684 29.9531C134.751 30.1667 134.809 30.3776 134.856 30.5859C134.908 30.7943 134.949 31.0026 134.981 31.2109H135.027C135.079 30.9401 135.152 30.638 135.246 30.3047C135.345 29.9661 135.454 29.6276 135.574 29.2891L137.277 24.3516H139.254L135.543 34.1875C135.329 34.75 135.066 35.2292 134.754 35.625C134.447 36.026 134.082 36.3281 133.66 36.5312C133.238 36.7396 132.757 36.8438 132.215 36.8438C131.954 36.8438 131.728 36.8281 131.535 36.7969C131.342 36.7708 131.178 36.7422 131.043 36.7109V35.2422C131.152 35.2682 131.29 35.2917 131.457 35.3125C131.624 35.3333 131.796 35.3438 131.973 35.3438C132.301 35.3438 132.585 35.2786 132.824 35.1484C133.064 35.0182 133.267 34.8333 133.434 34.5938C133.6 34.3594 133.738 34.0911 133.848 33.7891L134.152 32.9766L130.699 24.3516ZM146.539 30.5312C146.539 31.099 146.401 31.5781 146.125 31.9688C145.849 32.3594 145.445 32.6562 144.914 32.8594C144.388 33.0573 143.742 33.1562 142.976 33.1562C142.372 33.1562 141.851 33.112 141.414 33.0234C140.982 32.9401 140.573 32.8099 140.187 32.6328V31.0469C140.599 31.2396 141.06 31.4062 141.57 31.5469C142.086 31.6875 142.573 31.7578 143.031 31.7578C143.635 31.7578 144.07 31.6641 144.336 31.4766C144.601 31.2839 144.734 31.0286 144.734 30.7109C144.734 30.5234 144.68 30.3568 144.57 30.2109C144.466 30.0599 144.268 29.9062 143.976 29.75C143.69 29.5885 143.268 29.3958 142.711 29.1719C142.164 28.9531 141.703 28.7344 141.328 28.5156C140.953 28.2969 140.669 28.0339 140.476 27.7266C140.284 27.4141 140.187 27.0156 140.187 26.5312C140.187 25.7656 140.489 25.1849 141.094 24.7891C141.703 24.388 142.508 24.1875 143.508 24.1875C144.039 24.1875 144.539 24.2422 145.008 24.3516C145.482 24.4557 145.945 24.6094 146.398 24.8125L145.82 26.1953C145.43 26.0234 145.036 25.8828 144.641 25.7734C144.25 25.6589 143.851 25.6016 143.445 25.6016C142.971 25.6016 142.609 25.6745 142.359 25.8203C142.114 25.9661 141.992 26.1745 141.992 26.4453C141.992 26.6484 142.052 26.8203 142.172 26.9609C142.292 27.1016 142.497 27.2422 142.789 27.3828C143.086 27.5234 143.497 27.6979 144.023 27.9062C144.539 28.1042 144.984 28.3125 145.359 28.5312C145.739 28.7448 146.031 29.0078 146.234 29.3203C146.437 29.6328 146.539 30.0365 146.539 30.5312ZM151.902 31.6719C152.142 31.6719 152.379 31.651 152.613 31.6094C152.847 31.5625 153.061 31.5078 153.254 31.4453V32.8359C153.051 32.9245 152.787 33 152.465 33.0625C152.142 33.125 151.806 33.1562 151.457 33.1562C150.967 33.1562 150.527 33.0755 150.136 32.9141C149.746 32.7474 149.436 32.4635 149.207 32.0625C148.978 31.6615 148.863 31.1068 148.863 30.3984V25.75H147.683V24.9297L148.949 24.2812L149.551 22.4297H150.707V24.3516H153.183V25.75H150.707V30.375C150.707 30.8125 150.816 31.138 151.035 31.3516C151.254 31.5651 151.543 31.6719 151.902 31.6719ZM158.617 24.1875C159.388 24.1875 160.049 24.3464 160.601 24.6641C161.153 24.9818 161.578 25.4323 161.875 26.0156C162.171 26.599 162.32 27.2969 162.32 28.1094V29.0938H156.546C156.567 29.9323 156.791 30.5781 157.218 31.0312C157.651 31.4844 158.255 31.7109 159.031 31.7109C159.583 31.7109 160.078 31.6589 160.515 31.5547C160.958 31.4453 161.414 31.2865 161.882 31.0781V32.5703C161.45 32.7734 161.01 32.9219 160.562 33.0156C160.114 33.1094 159.578 33.1562 158.953 33.1562C158.104 33.1562 157.356 32.9922 156.711 32.6641C156.07 32.3307 155.567 31.8359 155.203 31.1797C154.843 30.5234 154.664 29.7083 154.664 28.7344C154.664 27.7656 154.828 26.9427 155.156 26.2656C155.484 25.5885 155.945 25.0729 156.539 24.7188C157.132 24.3646 157.825 24.1875 158.617 24.1875ZM158.617 25.5703C158.039 25.5703 157.57 25.7578 157.211 26.1328C156.856 26.5078 156.648 27.0573 156.586 27.7812H160.523C160.518 27.349 160.445 26.9661 160.304 26.6328C160.169 26.2995 159.961 26.0391 159.679 25.8516C159.403 25.6641 159.049 25.5703 158.617 25.5703ZM174.324 24.1875C175.292 24.1875 176.022 24.4375 176.511 24.9375C177.006 25.4375 177.253 26.2396 177.253 27.3438V33H175.417V27.6719C175.417 27.0156 175.29 26.5208 175.035 26.1875C174.779 25.8542 174.391 25.6875 173.871 25.6875C173.141 25.6875 172.615 25.9219 172.292 26.3906C171.975 26.8542 171.816 27.5286 171.816 28.4141V33H169.98V27.6719C169.98 27.2344 169.923 26.8698 169.808 26.5781C169.699 26.2812 169.529 26.0599 169.3 25.9141C169.071 25.763 168.782 25.6875 168.433 25.6875C167.928 25.6875 167.524 25.8021 167.222 26.0312C166.925 26.2604 166.712 26.599 166.581 27.0469C166.451 27.4896 166.386 28.0339 166.386 28.6797V33H164.55V24.3516H165.98L166.238 25.5156H166.339C166.516 25.2135 166.735 24.9661 166.996 24.7734C167.261 24.5755 167.555 24.4297 167.878 24.3359C168.201 24.237 168.537 24.1875 168.886 24.1875C169.532 24.1875 170.076 24.3021 170.519 24.5312C170.962 24.7552 171.292 25.099 171.511 25.5625H171.652C171.923 25.0938 172.3 24.7474 172.785 24.5234C173.269 24.2995 173.782 24.1875 174.324 24.1875Z" fill="white"/>
<line x1="69.4927" y1="1" x2="69.4927" y2="35" stroke="#B3ECF8"/>
</svg>
