<svg width="960" height="296" viewBox="0 0 960 296" fill="none" xmlns="http://www.w3.org/2000/svg">
<path d="M25.7002 269L14.5996 236.806H14.3623C14.415 237.526 14.4766 238.511 14.5469 239.759C14.6172 241.007 14.6787 242.343 14.7314 243.767C14.7842 245.19 14.8105 246.553 14.8105 247.854V269H9.0625V230.451H17.9482L28.627 261.222H28.7852L39.833 230.451H48.6924V269H42.6543V247.537C42.6543 246.359 42.6719 245.085 42.707 243.714C42.7598 242.343 42.8125 241.042 42.8652 239.812C42.9355 238.581 42.9883 237.597 43.0234 236.858H42.8125L31.29 269H25.7002ZM69.8389 239.258C72.4404 239.258 74.6729 239.794 76.5361 240.866C78.3994 241.938 79.832 243.459 80.834 245.428C81.8359 247.396 82.3369 249.752 82.3369 252.494V255.816H62.8516C62.9219 258.646 63.6777 260.826 65.1191 262.355C66.5781 263.885 68.6172 264.649 71.2363 264.649C73.0996 264.649 74.7695 264.474 76.2461 264.122C77.7402 263.753 79.2783 263.217 80.8604 262.514V267.55C79.4014 268.235 77.916 268.736 76.4043 269.053C74.8926 269.369 73.082 269.527 70.9727 269.527C68.1074 269.527 65.585 268.974 63.4053 267.866C61.2432 266.741 59.5469 265.071 58.3164 262.856C57.1035 260.642 56.4971 257.891 56.4971 254.604C56.4971 251.334 57.0508 248.557 58.1582 246.271C59.2656 243.986 60.8213 242.246 62.8252 241.051C64.8291 239.855 67.167 239.258 69.8389 239.258ZM69.8389 243.925C67.8877 243.925 66.3057 244.558 65.0928 245.823C63.8975 247.089 63.1943 248.943 62.9834 251.387H76.2725C76.2549 249.928 76.0088 248.636 75.5342 247.511C75.0771 246.386 74.374 245.507 73.4248 244.874C72.4932 244.241 71.2979 243.925 69.8389 243.925ZM99.1328 269.527C95.6523 269.527 92.8574 268.262 90.748 265.73C88.6562 263.182 87.6104 259.429 87.6104 254.472C87.6104 249.462 88.6738 245.674 90.8008 243.107C92.9453 240.541 95.7666 239.258 99.2646 239.258C100.741 239.258 102.033 239.46 103.141 239.864C104.248 240.251 105.197 240.778 105.988 241.446C106.797 242.114 107.482 242.861 108.045 243.688H108.335C108.247 243.143 108.142 242.36 108.019 241.341C107.913 240.304 107.86 239.346 107.86 238.467V227.973H114.083V269H109.231L108.124 265.019H107.86C107.333 265.862 106.665 266.627 105.856 267.312C105.065 267.98 104.116 268.517 103.009 268.921C101.919 269.325 100.627 269.527 99.1328 269.527ZM100.873 264.491C103.527 264.491 105.399 263.727 106.489 262.197C107.579 260.668 108.142 258.374 108.177 255.315V254.498C108.177 251.229 107.649 248.724 106.595 246.983C105.54 245.226 103.615 244.347 100.82 244.347C98.5879 244.347 96.8828 245.252 95.7051 247.062C94.5449 248.855 93.9648 251.36 93.9648 254.577C93.9648 257.794 94.5449 260.255 95.7051 261.96C96.8828 263.647 98.6055 264.491 100.873 264.491ZM129.165 239.812V269H122.969V239.812H129.165ZM126.106 228.632C127.056 228.632 127.873 228.887 128.559 229.396C129.262 229.906 129.613 230.785 129.613 232.033C129.613 233.264 129.262 234.143 128.559 234.67C127.873 235.18 127.056 235.435 126.106 235.435C125.122 235.435 124.287 235.18 123.602 234.67C122.934 234.143 122.6 233.264 122.6 232.033C122.6 230.785 122.934 229.906 123.602 229.396C124.287 228.887 125.122 228.632 126.106 228.632ZM149.811 269.527C147.051 269.527 144.66 268.991 142.639 267.919C140.617 266.847 139.062 265.203 137.972 262.988C136.882 260.773 136.337 257.961 136.337 254.551C136.337 251 136.935 248.1 138.13 245.85C139.325 243.6 140.978 241.938 143.087 240.866C145.214 239.794 147.648 239.258 150.391 239.258C152.131 239.258 153.704 239.434 155.11 239.785C156.534 240.119 157.738 240.532 158.723 241.024L156.877 245.981C155.805 245.542 154.706 245.173 153.581 244.874C152.456 244.575 151.375 244.426 150.338 244.426C148.633 244.426 147.209 244.804 146.066 245.56C144.941 246.315 144.098 247.44 143.535 248.935C142.99 250.429 142.718 252.283 142.718 254.498C142.718 256.643 142.999 258.453 143.562 259.93C144.124 261.389 144.959 262.496 146.066 263.252C147.174 263.99 148.536 264.359 150.153 264.359C151.753 264.359 153.186 264.166 154.451 263.779C155.717 263.393 156.912 262.892 158.037 262.276V267.655C156.93 268.288 155.743 268.754 154.478 269.053C153.212 269.369 151.656 269.527 149.811 269.527ZM176.336 239.258C180.027 239.258 182.813 240.075 184.694 241.71C186.593 243.345 187.542 245.894 187.542 249.356V269H183.139L181.952 264.86H181.741C180.915 265.915 180.062 266.785 179.184 267.471C178.305 268.156 177.285 268.666 176.125 269C174.982 269.352 173.585 269.527 171.933 269.527C170.192 269.527 168.637 269.211 167.266 268.578C165.895 267.928 164.813 266.943 164.022 265.625C163.231 264.307 162.836 262.637 162.836 260.615C162.836 257.609 163.952 255.351 166.185 253.839C168.435 252.327 171.827 251.492 176.362 251.334L181.425 251.149V249.62C181.425 247.599 180.95 246.157 180.001 245.296C179.069 244.435 177.751 244.004 176.046 244.004C174.587 244.004 173.172 244.215 171.801 244.637C170.43 245.059 169.094 245.577 167.793 246.192L165.789 241.815C167.213 241.06 168.83 240.444 170.641 239.97C172.469 239.495 174.367 239.258 176.336 239.258ZM181.398 255.052L177.628 255.184C174.534 255.289 172.363 255.816 171.115 256.766C169.867 257.715 169.243 259.016 169.243 260.668C169.243 262.109 169.674 263.164 170.535 263.832C171.396 264.482 172.53 264.808 173.937 264.808C176.081 264.808 177.856 264.201 179.263 262.988C180.687 261.758 181.398 259.956 181.398 257.583V255.052ZM202.413 239.812V269H196.217V239.812H202.413ZM199.354 228.632C200.304 228.632 201.121 228.887 201.807 229.396C202.51 229.906 202.861 230.785 202.861 232.033C202.861 233.264 202.51 234.143 201.807 234.67C201.121 235.18 200.304 235.435 199.354 235.435C198.37 235.435 197.535 235.18 196.85 234.67C196.182 234.143 195.848 233.264 195.848 232.033C195.848 230.785 196.182 229.906 196.85 229.396C197.535 228.887 198.37 228.632 199.354 228.632ZM221.107 269.527C217.627 269.527 214.832 268.262 212.723 265.73C210.631 263.182 209.585 259.429 209.585 254.472C209.585 249.462 210.648 245.674 212.775 243.107C214.92 240.541 217.741 239.258 221.239 239.258C222.716 239.258 224.008 239.46 225.115 239.864C226.223 240.251 227.172 240.778 227.963 241.446C228.771 242.114 229.457 242.861 230.02 243.688H230.31C230.222 243.143 230.116 242.36 229.993 241.341C229.888 240.304 229.835 239.346 229.835 238.467V227.973H236.058V269H231.206L230.099 265.019H229.835C229.308 265.862 228.64 266.627 227.831 267.312C227.04 267.98 226.091 268.517 224.983 268.921C223.894 269.325 222.602 269.527 221.107 269.527ZM222.848 264.491C225.502 264.491 227.374 263.727 228.464 262.197C229.554 260.668 230.116 258.374 230.151 255.315V254.498C230.151 251.229 229.624 248.724 228.569 246.983C227.515 245.226 225.59 244.347 222.795 244.347C220.562 244.347 218.857 245.252 217.68 247.062C216.52 248.855 215.939 251.36 215.939 254.577C215.939 257.794 216.52 260.255 217.68 261.96C218.857 263.647 220.58 264.491 222.848 264.491ZM290.901 249.356C290.901 253.698 290.093 257.328 288.476 260.246C286.858 263.146 284.512 265.335 281.436 266.812C278.359 268.271 274.65 269 270.309 269H259.604V230.451H271.469C275.459 230.451 278.904 231.172 281.805 232.613C284.705 234.037 286.946 236.155 288.528 238.968C290.11 241.763 290.901 245.226 290.901 249.356ZM284.31 249.541C284.31 246.377 283.809 243.775 282.807 241.736C281.822 239.697 280.363 238.186 278.43 237.201C276.514 236.199 274.149 235.698 271.337 235.698H265.932V263.7H270.414C275.072 263.7 278.553 262.514 280.855 260.141C283.158 257.768 284.31 254.234 284.31 249.541ZM310.018 239.258C313.709 239.258 316.495 240.075 318.376 241.71C320.274 243.345 321.224 245.894 321.224 249.356V269H316.82L315.634 264.86H315.423C314.597 265.915 313.744 266.785 312.865 267.471C311.986 268.156 310.967 268.666 309.807 269C308.664 269.352 307.267 269.527 305.614 269.527C303.874 269.527 302.318 269.211 300.947 268.578C299.576 267.928 298.495 266.943 297.704 265.625C296.913 264.307 296.518 262.637 296.518 260.615C296.518 257.609 297.634 255.351 299.866 253.839C302.116 252.327 305.509 251.492 310.044 251.334L315.106 251.149V249.62C315.106 247.599 314.632 246.157 313.683 245.296C312.751 244.435 311.433 244.004 309.728 244.004C308.269 244.004 306.854 244.215 305.482 244.637C304.111 245.059 302.775 245.577 301.475 246.192L299.471 241.815C300.895 241.06 302.512 240.444 304.322 239.97C306.15 239.495 308.049 239.258 310.018 239.258ZM315.08 255.052L311.31 255.184C308.216 255.289 306.045 255.816 304.797 256.766C303.549 257.715 302.925 259.016 302.925 260.668C302.925 262.109 303.355 263.164 304.217 263.832C305.078 264.482 306.212 264.808 307.618 264.808C309.763 264.808 311.538 264.201 312.944 262.988C314.368 261.758 315.08 259.956 315.08 257.583V255.052ZM340.762 264.518C341.57 264.518 342.37 264.447 343.161 264.307C343.952 264.148 344.673 263.964 345.323 263.753V268.446C344.638 268.745 343.75 269 342.66 269.211C341.57 269.422 340.437 269.527 339.259 269.527C337.606 269.527 336.121 269.255 334.803 268.71C333.484 268.147 332.438 267.189 331.665 265.836C330.892 264.482 330.505 262.61 330.505 260.22V244.531H326.523V241.763L330.795 239.574L332.825 233.325H336.728V239.812H345.086V244.531H336.728V260.141C336.728 261.617 337.097 262.716 337.835 263.437C338.573 264.157 339.549 264.518 340.762 264.518ZM362.699 239.258C366.391 239.258 369.177 240.075 371.058 241.71C372.956 243.345 373.905 245.894 373.905 249.356V269H369.502L368.315 264.86H368.104C367.278 265.915 366.426 266.785 365.547 267.471C364.668 268.156 363.648 268.666 362.488 269C361.346 269.352 359.948 269.527 358.296 269.527C356.556 269.527 355 269.211 353.629 268.578C352.258 267.928 351.177 266.943 350.386 265.625C349.595 264.307 349.199 262.637 349.199 260.615C349.199 257.609 350.315 255.351 352.548 253.839C354.798 252.327 358.19 251.492 362.726 251.334L367.788 251.149V249.62C367.788 247.599 367.313 246.157 366.364 245.296C365.433 244.435 364.114 244.004 362.409 244.004C360.95 244.004 359.535 244.215 358.164 244.637C356.793 245.059 355.457 245.577 354.156 246.192L352.152 241.815C353.576 241.06 355.193 240.444 357.004 239.97C358.832 239.495 360.73 239.258 362.699 239.258ZM367.762 255.052L363.991 255.184C360.897 255.289 358.727 255.816 357.479 256.766C356.23 257.715 355.606 259.016 355.606 260.668C355.606 262.109 356.037 263.164 356.898 263.832C357.76 264.482 358.894 264.808 360.3 264.808C362.444 264.808 364.22 264.201 365.626 262.988C367.05 261.758 367.762 259.956 367.762 257.583V255.052ZM413.667 235.276C411.821 235.276 410.169 235.61 408.71 236.278C407.269 236.946 406.047 237.913 405.045 239.179C404.043 240.427 403.278 241.947 402.751 243.74C402.224 245.516 401.96 247.52 401.96 249.752C401.96 252.74 402.382 255.315 403.226 257.478C404.069 259.622 405.353 261.274 407.075 262.435C408.798 263.577 410.978 264.148 413.614 264.148C415.249 264.148 416.84 263.99 418.387 263.674C419.934 263.357 421.533 262.927 423.186 262.382V267.761C421.621 268.376 420.039 268.824 418.439 269.105C416.84 269.387 414.994 269.527 412.902 269.527C408.965 269.527 405.695 268.71 403.094 267.075C400.51 265.44 398.576 263.138 397.293 260.167C396.027 257.196 395.395 253.716 395.395 249.726C395.395 246.808 395.799 244.136 396.607 241.71C397.416 239.284 398.594 237.192 400.141 235.435C401.688 233.659 403.595 232.297 405.862 231.348C408.147 230.381 410.758 229.897 413.693 229.897C415.627 229.897 417.525 230.117 419.389 230.557C421.27 230.979 423.01 231.585 424.609 232.376L422.395 237.597C421.059 236.964 419.661 236.419 418.202 235.962C416.743 235.505 415.231 235.276 413.667 235.276ZM456.672 254.34C456.672 256.766 456.355 258.919 455.723 260.8C455.09 262.681 454.167 264.271 452.954 265.572C451.741 266.855 450.282 267.84 448.577 268.525C446.872 269.193 444.947 269.527 442.803 269.527C440.799 269.527 438.962 269.193 437.292 268.525C435.622 267.84 434.172 266.855 432.941 265.572C431.729 264.271 430.788 262.681 430.12 260.8C429.452 258.919 429.118 256.766 429.118 254.34C429.118 251.123 429.672 248.398 430.779 246.166C431.904 243.916 433.504 242.202 435.578 241.024C437.652 239.847 440.122 239.258 442.987 239.258C445.677 239.258 448.05 239.847 450.106 241.024C452.163 242.202 453.771 243.916 454.932 246.166C456.092 248.416 456.672 251.141 456.672 254.34ZM435.499 254.34C435.499 256.467 435.754 258.286 436.264 259.798C436.791 261.31 437.6 262.47 438.689 263.278C439.779 264.069 441.186 264.465 442.908 264.465C444.631 264.465 446.037 264.069 447.127 263.278C448.217 262.47 449.017 261.31 449.526 259.798C450.036 258.286 450.291 256.467 450.291 254.34C450.291 252.213 450.036 250.411 449.526 248.935C449.017 247.44 448.217 246.307 447.127 245.533C446.037 244.742 444.622 244.347 442.882 244.347C440.315 244.347 438.443 245.208 437.266 246.931C436.088 248.653 435.499 251.123 435.499 254.34ZM470.014 269H463.791V227.973H470.014V269ZM485.096 269H478.873V227.973H485.096V269ZM505.583 239.258C508.185 239.258 510.417 239.794 512.28 240.866C514.144 241.938 515.576 243.459 516.578 245.428C517.58 247.396 518.081 249.752 518.081 252.494V255.816H498.596C498.666 258.646 499.422 260.826 500.863 262.355C502.322 263.885 504.361 264.649 506.98 264.649C508.844 264.649 510.514 264.474 511.99 264.122C513.484 263.753 515.022 263.217 516.604 262.514V267.55C515.146 268.235 513.66 268.736 512.148 269.053C510.637 269.369 508.826 269.527 506.717 269.527C503.852 269.527 501.329 268.974 499.149 267.866C496.987 266.741 495.291 265.071 494.061 262.856C492.848 260.642 492.241 257.891 492.241 254.604C492.241 251.334 492.795 248.557 493.902 246.271C495.01 243.986 496.565 242.246 498.569 241.051C500.573 239.855 502.911 239.258 505.583 239.258ZM505.583 243.925C503.632 243.925 502.05 244.558 500.837 245.823C499.642 247.089 498.938 248.943 498.728 251.387H512.017C511.999 249.928 511.753 248.636 511.278 247.511C510.821 246.386 510.118 245.507 509.169 244.874C508.237 244.241 507.042 243.925 505.583 243.925ZM536.828 269.527C534.068 269.527 531.678 268.991 529.656 267.919C527.635 266.847 526.079 265.203 524.989 262.988C523.899 260.773 523.354 257.961 523.354 254.551C523.354 251 523.952 248.1 525.147 245.85C526.343 243.6 527.995 241.938 530.104 240.866C532.231 239.794 534.666 239.258 537.408 239.258C539.148 239.258 540.722 239.434 542.128 239.785C543.552 240.119 544.756 240.532 545.74 241.024L543.895 245.981C542.822 245.542 541.724 245.173 540.599 244.874C539.474 244.575 538.393 244.426 537.355 244.426C535.65 244.426 534.227 244.804 533.084 245.56C531.959 246.315 531.115 247.44 530.553 248.935C530.008 250.429 529.735 252.283 529.735 254.498C529.735 256.643 530.017 258.453 530.579 259.93C531.142 261.389 531.977 262.496 533.084 263.252C534.191 263.99 535.554 264.359 537.171 264.359C538.771 264.359 540.203 264.166 541.469 263.779C542.734 263.393 543.93 262.892 545.055 262.276V267.655C543.947 268.288 542.761 268.754 541.495 269.053C540.229 269.369 538.674 269.527 536.828 269.527ZM562.773 264.518C563.582 264.518 564.382 264.447 565.173 264.307C565.964 264.148 566.685 263.964 567.335 263.753V268.446C566.649 268.745 565.762 269 564.672 269.211C563.582 269.422 562.448 269.527 561.271 269.527C559.618 269.527 558.133 269.255 556.814 268.71C555.496 268.147 554.45 267.189 553.677 265.836C552.903 264.482 552.517 262.61 552.517 260.22V244.531H548.535V241.763L552.807 239.574L554.837 233.325H558.739V239.812H567.098V244.531H558.739V260.141C558.739 261.617 559.108 262.716 559.847 263.437C560.585 264.157 561.561 264.518 562.773 264.518ZM579.464 239.812V269H573.268V239.812H579.464ZM576.405 228.632C577.354 228.632 578.172 228.887 578.857 229.396C579.561 229.906 579.912 230.785 579.912 232.033C579.912 233.264 579.561 234.143 578.857 234.67C578.172 235.18 577.354 235.435 576.405 235.435C575.421 235.435 574.586 235.18 573.9 234.67C573.232 234.143 572.898 233.264 572.898 232.033C572.898 230.785 573.232 229.906 573.9 229.396C574.586 228.887 575.421 228.632 576.405 228.632ZM614.189 254.34C614.189 256.766 613.873 258.919 613.24 260.8C612.607 262.681 611.685 264.271 610.472 265.572C609.259 266.855 607.8 267.84 606.095 268.525C604.39 269.193 602.465 269.527 600.32 269.527C598.316 269.527 596.479 269.193 594.81 268.525C593.14 267.84 591.689 266.855 590.459 265.572C589.246 264.271 588.306 262.681 587.638 260.8C586.97 258.919 586.636 256.766 586.636 254.34C586.636 251.123 587.189 248.398 588.297 246.166C589.422 243.916 591.021 242.202 593.096 241.024C595.17 239.847 597.64 239.258 600.505 239.258C603.194 239.258 605.567 239.847 607.624 241.024C609.681 242.202 611.289 243.916 612.449 246.166C613.609 248.416 614.189 251.141 614.189 254.34ZM593.017 254.34C593.017 256.467 593.271 258.286 593.781 259.798C594.309 261.31 595.117 262.47 596.207 263.278C597.297 264.069 598.703 264.465 600.426 264.465C602.148 264.465 603.555 264.069 604.645 263.278C605.734 262.47 606.534 261.31 607.044 259.798C607.554 258.286 607.809 256.467 607.809 254.34C607.809 252.213 607.554 250.411 607.044 248.935C606.534 247.44 605.734 246.307 604.645 245.533C603.555 244.742 602.14 244.347 600.399 244.347C597.833 244.347 595.961 245.208 594.783 246.931C593.605 248.653 593.017 251.123 593.017 254.34ZM636.522 239.258C639.81 239.258 642.367 240.11 644.195 241.815C646.041 243.503 646.964 246.219 646.964 249.963V269H640.768V251.123C640.768 248.855 640.302 247.159 639.37 246.034C638.438 244.892 636.997 244.32 635.046 244.32C632.216 244.32 630.247 245.19 629.14 246.931C628.05 248.671 627.505 251.193 627.505 254.498V269H621.309V239.812H626.134L627.004 243.767H627.347C627.979 242.747 628.762 241.912 629.693 241.262C630.643 240.594 631.697 240.093 632.857 239.759C634.035 239.425 635.257 239.258 636.522 239.258ZM683.667 269H677.312V235.83H666.027V230.451H694.926V235.83H683.667V269ZM726.039 254.34C726.039 256.766 725.723 258.919 725.09 260.8C724.457 262.681 723.534 264.271 722.321 265.572C721.108 266.855 719.649 267.84 717.944 268.525C716.239 269.193 714.314 269.527 712.17 269.527C710.166 269.527 708.329 269.193 706.659 268.525C704.989 267.84 703.539 266.855 702.309 265.572C701.096 264.271 700.155 262.681 699.487 260.8C698.819 258.919 698.485 256.766 698.485 254.34C698.485 251.123 699.039 248.398 700.146 246.166C701.271 243.916 702.871 242.202 704.945 241.024C707.02 239.847 709.489 239.258 712.354 239.258C715.044 239.258 717.417 239.847 719.474 241.024C721.53 242.202 723.139 243.916 724.299 246.166C725.459 248.416 726.039 251.141 726.039 254.34ZM704.866 254.34C704.866 256.467 705.121 258.286 705.631 259.798C706.158 261.31 706.967 262.47 708.057 263.278C709.146 264.069 710.553 264.465 712.275 264.465C713.998 264.465 715.404 264.069 716.494 263.278C717.584 262.47 718.384 261.31 718.894 259.798C719.403 258.286 719.658 256.467 719.658 254.34C719.658 252.213 719.403 250.411 718.894 248.935C718.384 247.44 717.584 246.307 716.494 245.533C715.404 244.742 713.989 244.347 712.249 244.347C709.683 244.347 707.811 245.208 706.633 246.931C705.455 248.653 704.866 251.123 704.866 254.34ZM758.998 254.34C758.998 256.766 758.682 258.919 758.049 260.8C757.416 262.681 756.493 264.271 755.28 265.572C754.067 266.855 752.608 267.84 750.903 268.525C749.198 269.193 747.273 269.527 745.129 269.527C743.125 269.527 741.288 269.193 739.618 268.525C737.948 267.84 736.498 266.855 735.268 265.572C734.055 264.271 733.114 262.681 732.446 260.8C731.778 258.919 731.444 256.766 731.444 254.34C731.444 251.123 731.998 248.398 733.105 246.166C734.23 243.916 735.83 242.202 737.904 241.024C739.979 239.847 742.448 239.258 745.313 239.258C748.003 239.258 750.376 239.847 752.433 241.024C754.489 242.202 756.098 243.916 757.258 246.166C758.418 248.416 758.998 251.141 758.998 254.34ZM737.825 254.34C737.825 256.467 738.08 258.286 738.59 259.798C739.117 261.31 739.926 262.47 741.016 263.278C742.105 264.069 743.512 264.465 745.234 264.465C746.957 264.465 748.363 264.069 749.453 263.278C750.543 262.47 751.343 261.31 751.853 259.798C752.362 258.286 752.617 256.467 752.617 254.34C752.617 252.213 752.362 250.411 751.853 248.935C751.343 247.44 750.543 246.307 749.453 245.533C748.363 244.742 746.948 244.347 745.208 244.347C742.642 244.347 740.77 245.208 739.592 246.931C738.414 248.653 737.825 251.123 737.825 254.34ZM772.34 269H766.117V227.973H772.34V269Z" fill="#00395E"/>
<line x1="274" y1="4" x2="274" y2="140" stroke="#B3ECF8" stroke-width="4"/>
<line x1="952" y1="182" y2="182" stroke="#B3ECF8" stroke-width="4"/>
<path d="M52.72 23.92H52.4L48.08 32.8L36.64 53.92L25.2 32.8L20.88 23.92H20.56V64H10.56V8.16H22.48L36.8 35.44H37.12L51.28 8.16H62.72V64H52.72V23.92ZM75.8725 8.16H96.1925C99.8192 8.16 103.099 8.74666 106.033 9.92C109.019 11.0933 111.553 12.8533 113.633 15.2C115.766 17.4933 117.393 20.4 118.513 23.92C119.686 27.3867 120.273 31.44 120.273 36.08C120.273 40.72 119.686 44.8 118.513 48.32C117.393 51.7867 115.766 54.6933 113.633 57.04C111.553 59.3333 109.019 61.0667 106.033 62.24C103.099 63.4133 99.8192 64 96.1925 64H75.8725V8.16ZM96.1925 54.64C100.139 54.64 103.259 53.4933 105.553 51.2C107.899 48.8533 109.073 45.28 109.073 40.48V31.68C109.073 26.88 107.899 23.3333 105.553 21.04C103.259 18.6933 100.139 17.52 96.1925 17.52H86.4325V54.64H96.1925ZM152.709 64.96C149.029 64.96 145.695 64.3733 142.709 63.2C139.775 61.9733 137.242 60.16 135.109 57.76C133.029 55.36 131.429 52.4 130.309 48.88C129.189 45.3067 128.629 41.1733 128.629 36.48C128.629 31.7867 129.189 27.6267 130.309 24C131.429 20.32 133.029 17.2533 135.109 14.8C137.242 12.2933 139.775 10.4 142.709 9.12C145.695 7.84 149.029 7.2 152.709 7.2C157.722 7.2 161.882 8.26666 165.189 10.4C168.495 12.5333 171.135 15.76 173.109 20.08L164.069 24.88C163.269 22.3733 161.962 20.3733 160.149 18.88C158.335 17.3333 155.855 16.56 152.709 16.56C148.762 16.56 145.615 17.8933 143.269 20.56C140.975 23.2267 139.829 26.96 139.829 31.76V40.56C139.829 45.4133 140.975 49.1467 143.269 51.76C145.615 54.32 148.762 55.6 152.709 55.6C155.855 55.6 158.415 54.7467 160.389 53.04C162.415 51.3333 163.882 49.2267 164.789 46.72L173.349 51.76C171.322 55.92 168.629 59.1733 165.269 61.52C161.909 63.8133 157.722 64.96 152.709 64.96ZM204.277 17.52V64H193.717V17.52H177.877V8.16H220.117V17.52H204.277ZM24.332 136.816C20.252 136.816 16.784 136.091 13.928 134.64C11.1173 133.189 8.692 131.285 6.652 128.928L12.704 123.08C14.336 124.984 16.1493 126.435 18.144 127.432C20.184 128.429 22.428 128.928 24.876 128.928C27.6413 128.928 29.7267 128.339 31.132 127.16C32.5373 125.936 33.24 124.304 33.24 122.264C33.24 120.677 32.7867 119.385 31.88 118.388C30.9733 117.391 29.2733 116.665 26.78 116.212L22.292 115.532C12.8173 114.036 8.08 109.435 8.08 101.728C8.08 99.5973 8.46533 97.6707 9.236 95.948C10.052 94.2253 11.208 92.752 12.704 91.528C14.2 90.304 15.9907 89.3747 18.076 88.74C20.2067 88.06 22.6093 87.72 25.284 87.72C28.8653 87.72 31.9933 88.3093 34.668 89.488C37.3427 90.6667 39.632 92.412 41.536 94.724L35.416 100.504C34.2373 99.0533 32.8093 97.8747 31.132 96.968C29.4547 96.0613 27.3467 95.608 24.808 95.608C22.224 95.608 20.2747 96.1067 18.96 97.104C17.6907 98.056 17.056 99.416 17.056 101.184C17.056 102.997 17.5773 104.335 18.62 105.196C19.6627 106.057 21.34 106.692 23.652 107.1L28.072 107.916C32.8773 108.777 36.4133 110.319 38.68 112.54C40.992 114.716 42.148 117.776 42.148 121.72C42.148 123.987 41.74 126.049 40.924 127.908C40.1533 129.721 38.9973 131.308 37.456 132.668C35.96 133.983 34.1013 135.003 31.88 135.728C29.704 136.453 27.188 136.816 24.332 136.816ZM68.1463 136V88.536H99.4263V96.492H77.1223V107.984H96.8423V115.94H77.1223V128.044H99.4263V136H68.1463ZM125.92 88.536H143.192C146.274 88.536 149.062 89.0347 151.556 90.032C154.094 91.0293 156.248 92.5253 158.016 94.52C159.829 96.4693 161.212 98.94 162.164 101.932C163.161 104.879 163.66 108.324 163.66 112.268C163.66 116.212 163.161 119.68 162.164 122.672C161.212 125.619 159.829 128.089 158.016 130.084C156.248 132.033 154.094 133.507 151.556 134.504C149.062 135.501 146.274 136 143.192 136H125.92V88.536ZM143.192 128.044C146.546 128.044 149.198 127.069 151.148 125.12C153.142 123.125 154.14 120.088 154.14 116.008V108.528C154.14 104.448 153.142 101.433 151.148 99.484C149.198 97.4893 146.546 96.492 143.192 96.492H134.896V128.044H143.192ZM204.559 136.816C200.479 136.816 197.011 136.091 194.155 134.64C191.344 133.189 188.919 131.285 186.879 128.928L192.931 123.08C194.563 124.984 196.376 126.435 198.371 127.432C200.411 128.429 202.655 128.928 205.103 128.928C207.868 128.928 209.953 128.339 211.359 127.16C212.764 125.936 213.467 124.304 213.467 122.264C213.467 120.677 213.013 119.385 212.107 118.388C211.2 117.391 209.5 116.665 207.007 116.212L202.519 115.532C193.044 114.036 188.307 109.435 188.307 101.728C188.307 99.5973 188.692 97.6707 189.463 95.948C190.279 94.2253 191.435 92.752 192.931 91.528C194.427 90.304 196.217 89.3747 198.303 88.74C200.433 88.06 202.836 87.72 205.511 87.72C209.092 87.72 212.22 88.3093 214.895 89.488C217.569 90.6667 219.859 92.412 221.763 94.724L215.643 100.504C214.464 99.0533 213.036 97.8747 211.359 96.968C209.681 96.0613 207.573 95.608 205.035 95.608C202.451 95.608 200.501 96.1067 199.187 97.104C197.917 98.056 197.283 99.416 197.283 101.184C197.283 102.997 197.804 104.335 198.847 105.196C199.889 106.057 201.567 106.692 203.879 107.1L208.299 107.916C213.104 108.777 216.64 110.319 218.907 112.54C221.219 114.716 222.375 117.776 222.375 121.72C222.375 123.987 221.967 126.049 221.151 127.908C220.38 129.721 219.224 131.308 217.683 132.668C216.187 133.983 214.328 135.003 212.107 135.728C209.931 136.453 207.415 136.816 204.559 136.816Z" fill="#00395E"/>
<path d="M340.693 27.5254C338.916 27.5254 337.325 27.847 335.92 28.4902C334.532 29.1335 333.355 30.0645 332.391 31.2832C331.426 32.485 330.689 33.9492 330.182 35.6758C329.674 37.3854 329.42 39.3151 329.42 41.4648C329.42 44.3424 329.826 46.8223 330.639 48.9043C331.451 50.9694 332.687 52.5605 334.346 53.6777C336.005 54.778 338.104 55.3281 340.643 55.3281C342.217 55.3281 343.749 55.1758 345.238 54.8711C346.728 54.5664 348.268 54.1517 349.859 53.627V58.8066C348.353 59.3991 346.829 59.8307 345.289 60.1016C343.749 60.3724 341.971 60.5078 339.957 60.5078C336.165 60.5078 333.017 59.7207 330.512 58.1465C328.023 56.5723 326.161 54.3548 324.926 51.4941C323.707 48.6335 323.098 45.2819 323.098 41.4395C323.098 38.6296 323.487 36.0566 324.266 33.7207C325.044 31.3848 326.178 29.3704 327.668 27.6777C329.158 25.9681 330.994 24.6562 333.178 23.7422C335.378 22.8112 337.892 22.3457 340.719 22.3457C342.581 22.3457 344.409 22.5573 346.203 22.9805C348.014 23.3867 349.69 23.9707 351.23 24.7324L349.098 29.7598C347.811 29.1504 346.465 28.6257 345.061 28.1855C343.656 27.7454 342.2 27.5254 340.693 27.5254ZM387.627 60H381.559V43.2422H364.446V60H358.352V22.8789H364.446V38.0625H381.559V22.8789H387.627V60ZM397.974 60V22.8789H404.067V60H397.974ZM425.179 22.8789C429.97 22.8789 433.465 23.8607 435.665 25.8242C437.866 27.7878 438.966 30.5384 438.966 34.0762C438.966 35.6842 438.712 37.2161 438.205 38.6719C437.714 40.1107 436.901 41.3887 435.767 42.5059C434.633 43.6061 433.135 44.4779 431.273 45.1211C429.428 45.7643 427.151 46.0859 424.443 46.0859H420.482V60H414.388V22.8789H425.179ZM424.773 27.9316H420.482V41.0078H423.808C425.721 41.0078 427.346 40.7878 428.683 40.3477C430.02 39.8906 431.036 39.1712 431.73 38.1895C432.424 37.2077 432.771 35.9128 432.771 34.3047C432.771 32.1549 432.119 30.5553 430.816 29.5059C429.529 28.4564 427.515 27.9316 424.773 27.9316ZM482.358 49.8945C482.358 52.0951 481.816 53.9909 480.733 55.582C479.666 57.1732 478.126 58.3919 476.112 59.2383C474.114 60.0846 471.728 60.5078 468.952 60.5078C467.597 60.5078 466.302 60.4316 465.067 60.2793C463.831 60.127 462.663 59.9069 461.563 59.6191C460.48 59.3145 459.489 58.9505 458.592 58.5273V52.7891C460.099 53.4492 461.783 54.0501 463.645 54.5918C465.507 55.1165 467.403 55.3789 469.332 55.3789C470.907 55.3789 472.21 55.1758 473.243 54.7695C474.292 54.3464 475.071 53.7539 475.579 52.9922C476.086 52.2135 476.34 51.3079 476.34 50.2754C476.34 49.1751 476.044 48.2441 475.452 47.4824C474.859 46.7207 473.962 46.0267 472.76 45.4004C471.575 44.7572 470.086 44.0716 468.291 43.3438C467.073 42.8529 465.905 42.2943 464.788 41.668C463.687 41.0417 462.705 40.3053 461.842 39.459C460.979 38.6126 460.293 37.6139 459.786 36.4629C459.295 35.2949 459.049 33.9238 459.049 32.3496C459.049 30.2507 459.549 28.4564 460.547 26.9668C461.563 25.4772 462.985 24.3346 464.813 23.5391C466.658 22.7435 468.808 22.3457 471.262 22.3457C473.209 22.3457 475.037 22.5488 476.746 22.9551C478.473 23.3613 480.166 23.9368 481.825 24.6816L479.895 29.582C478.371 28.9557 476.89 28.4564 475.452 28.084C474.03 27.7116 472.574 27.5254 471.084 27.5254C469.798 27.5254 468.706 27.7201 467.809 28.1094C466.912 28.4987 466.226 29.0488 465.752 29.7598C465.295 30.4538 465.067 31.2832 465.067 32.248C465.067 33.3314 465.329 34.2454 465.854 34.9902C466.396 35.7181 467.225 36.3867 468.342 36.9961C469.476 37.6055 470.932 38.2826 472.709 39.0273C474.758 39.8737 476.493 40.7624 477.914 41.6934C479.353 42.6243 480.454 43.7415 481.215 45.0449C481.977 46.3314 482.358 47.9479 482.358 49.8945ZM499.89 55.6836C500.668 55.6836 501.438 55.6159 502.2 55.4805C502.962 55.3281 503.656 55.1504 504.282 54.9473V59.4668C503.622 59.7546 502.767 60 501.718 60.2031C500.668 60.4062 499.576 60.5078 498.442 60.5078C496.851 60.5078 495.421 60.2454 494.151 59.7207C492.882 59.179 491.875 58.2565 491.13 56.9531C490.385 55.6497 490.013 53.847 490.013 51.5449V36.4375H486.179V33.7715L490.292 31.6641L492.247 25.6465H496.005V31.8926H504.054V36.4375H496.005V51.4688C496.005 52.8906 496.36 53.9486 497.071 54.6426C497.782 55.3366 498.722 55.6836 499.89 55.6836ZM521.535 31.3594C525.089 31.3594 527.772 32.1465 529.583 33.7207C531.411 35.2949 532.326 37.7493 532.326 41.084V60H528.085L526.943 56.0137H526.74C525.944 57.0293 525.123 57.8672 524.277 58.5273C523.43 59.1875 522.449 59.6784 521.331 60C520.231 60.3385 518.885 60.5078 517.294 60.5078C515.619 60.5078 514.12 60.2031 512.8 59.5938C511.48 58.9674 510.439 58.0195 509.677 56.75C508.915 55.4805 508.535 53.8724 508.535 51.9258C508.535 49.0312 509.609 46.8561 511.759 45.4004C513.926 43.9447 517.193 43.1406 521.56 42.9883L526.435 42.8105V41.3379C526.435 39.3913 525.978 38.0033 525.064 37.1738C524.167 36.3444 522.897 35.9297 521.255 35.9297C519.85 35.9297 518.488 36.1328 517.167 36.5391C515.847 36.9453 514.561 37.4447 513.308 38.0371L511.378 33.8223C512.749 33.0944 514.307 32.502 516.05 32.0449C517.811 31.5879 519.639 31.3594 521.535 31.3594ZM526.41 46.5684L522.779 46.6953C519.8 46.7969 517.709 47.3047 516.507 48.2188C515.305 49.1328 514.704 50.3854 514.704 51.9766C514.704 53.3646 515.119 54.3802 515.949 55.0234C516.778 55.6497 517.87 55.9629 519.224 55.9629C521.289 55.9629 522.999 55.3789 524.353 54.2109C525.724 53.026 526.41 51.291 526.41 49.0059V46.5684ZM551.66 55.6836C552.439 55.6836 553.209 55.6159 553.971 55.4805C554.732 55.3281 555.426 55.1504 556.053 54.9473V59.4668C555.392 59.7546 554.538 60 553.488 60.2031C552.439 60.4062 551.347 60.5078 550.213 60.5078C548.622 60.5078 547.191 60.2454 545.922 59.7207C544.652 59.179 543.645 58.2565 542.9 56.9531C542.155 55.6497 541.783 53.847 541.783 51.5449V36.4375H537.949V33.7715L542.062 31.6641L544.017 25.6465H547.775V31.8926H555.824V36.4375H547.775V51.4688C547.775 52.8906 548.131 53.9486 548.842 54.6426C549.553 55.3366 550.492 55.6836 551.66 55.6836ZM568.252 31.8926V60H562.285V31.8926H568.252ZM565.307 21.127C566.221 21.127 567.008 21.3724 567.668 21.8633C568.345 22.3542 568.684 23.2005 568.684 24.4023C568.684 25.5872 568.345 26.4336 567.668 26.9414C567.008 27.4323 566.221 27.6777 565.307 27.6777C564.359 27.6777 563.555 27.4323 562.895 26.9414C562.252 26.4336 561.93 25.5872 561.93 24.4023C561.93 23.2005 562.252 22.3542 562.895 21.8633C563.555 21.3724 564.359 21.127 565.307 21.127ZM596.22 51.9766C596.22 53.8216 595.771 55.3789 594.874 56.6484C593.977 57.918 592.665 58.8828 590.938 59.543C589.229 60.1862 587.13 60.5078 584.641 60.5078C582.678 60.5078 580.985 60.3639 579.563 60.0762C578.158 59.8053 576.83 59.3822 575.577 58.8066V53.6523C576.914 54.2786 578.412 54.8203 580.071 55.2773C581.747 55.7344 583.33 55.9629 584.819 55.9629C586.783 55.9629 588.196 55.6582 589.059 55.0488C589.923 54.4225 590.354 53.5931 590.354 52.5605C590.354 51.9512 590.177 51.4095 589.821 50.9355C589.483 50.4447 588.839 49.9453 587.891 49.4375C586.96 48.9128 585.589 48.2865 583.778 47.5586C582.001 46.8477 580.503 46.1367 579.284 45.4258C578.065 44.7148 577.143 43.86 576.516 42.8613C575.89 41.8457 575.577 40.5508 575.577 38.9766C575.577 36.4883 576.559 34.6009 578.522 33.3145C580.503 32.0111 583.118 31.3594 586.368 31.3594C588.095 31.3594 589.72 31.5371 591.243 31.8926C592.783 32.2311 594.29 32.7305 595.762 33.3906L593.884 37.8848C592.614 37.3262 591.336 36.8691 590.05 36.5137C588.78 36.1413 587.485 35.9551 586.165 35.9551C584.624 35.9551 583.448 36.1921 582.636 36.666C581.84 37.14 581.442 37.8171 581.442 38.6973C581.442 39.3574 581.637 39.916 582.026 40.373C582.415 40.8301 583.084 41.2871 584.032 41.7441C584.997 42.2012 586.334 42.7682 588.044 43.4453C589.72 44.0885 591.167 44.7656 592.386 45.4766C593.621 46.1706 594.569 47.0254 595.229 48.041C595.889 49.0566 596.22 50.3685 596.22 51.9766ZM613.65 55.6836C614.428 55.6836 615.199 55.6159 615.96 55.4805C616.722 55.3281 617.416 55.1504 618.042 54.9473V59.4668C617.382 59.7546 616.527 60 615.478 60.2031C614.428 60.4062 613.337 60.5078 612.202 60.5078C610.611 60.5078 609.181 60.2454 607.911 59.7207C606.642 59.179 605.635 58.2565 604.89 56.9531C604.145 55.6497 603.773 53.847 603.773 51.5449V36.4375H599.939V33.7715L604.052 31.6641L606.007 25.6465H609.765V31.8926H617.814V36.4375H609.765V51.4688C609.765 52.8906 610.12 53.9486 610.831 54.6426C611.542 55.3366 612.482 55.6836 613.65 55.6836ZM630.242 31.8926V60H624.275V31.8926H630.242ZM627.297 21.127C628.211 21.127 628.998 21.3724 629.658 21.8633C630.335 22.3542 630.674 23.2005 630.674 24.4023C630.674 25.5872 630.335 26.4336 629.658 26.9414C628.998 27.4323 628.211 27.6777 627.297 27.6777C626.349 27.6777 625.545 27.4323 624.885 26.9414C624.241 26.4336 623.92 25.5872 623.92 24.4023C623.92 23.2005 624.241 22.3542 624.885 21.8633C625.545 21.3724 626.349 21.127 627.297 21.127ZM650.643 60.5078C647.985 60.5078 645.683 59.9915 643.737 58.959C641.79 57.9264 640.292 56.3438 639.242 54.2109C638.193 52.0781 637.668 49.3698 637.668 46.0859C637.668 42.6667 638.244 39.8737 639.395 37.707C640.546 35.5404 642.137 33.9408 644.168 32.9082C646.216 31.8757 648.561 31.3594 651.201 31.3594C652.877 31.3594 654.392 31.5286 655.746 31.8672C657.117 32.1888 658.277 32.5866 659.225 33.0605L657.448 37.834C656.415 37.4108 655.357 37.0553 654.274 36.7676C653.19 36.4798 652.149 36.3359 651.151 36.3359C649.509 36.3359 648.138 36.6999 647.037 37.4277C645.954 38.1556 645.142 39.2389 644.6 40.6777C644.075 42.1165 643.813 43.9023 643.813 46.0352C643.813 48.1003 644.084 49.8438 644.625 51.2656C645.167 52.6706 645.971 53.737 647.037 54.4648C648.104 55.1758 649.416 55.5312 650.973 55.5312C652.513 55.5312 653.893 55.3451 655.112 54.9727C656.33 54.6003 657.481 54.1178 658.565 53.5254V58.7051C657.498 59.3145 656.356 59.763 655.137 60.0508C653.918 60.3555 652.42 60.5078 650.643 60.5078ZM676.706 31.3594C680.26 31.3594 682.943 32.1465 684.755 33.7207C686.583 35.2949 687.497 37.7493 687.497 41.084V60H683.257L682.114 56.0137H681.911C681.115 57.0293 680.294 57.8672 679.448 58.5273C678.602 59.1875 677.62 59.6784 676.503 60C675.402 60.3385 674.057 60.5078 672.466 60.5078C670.79 60.5078 669.292 60.2031 667.971 59.5938C666.651 58.9674 665.61 58.0195 664.848 56.75C664.087 55.4805 663.706 53.8724 663.706 51.9258C663.706 49.0312 664.781 46.8561 666.93 45.4004C669.097 43.9447 672.364 43.1406 676.731 42.9883L681.606 42.8105V41.3379C681.606 39.3913 681.149 38.0033 680.235 37.1738C679.338 36.3444 678.068 35.9297 676.426 35.9297C675.022 35.9297 673.659 36.1328 672.339 36.5391C671.018 36.9453 669.732 37.4447 668.479 38.0371L666.55 33.8223C667.921 33.0944 669.478 32.502 671.221 32.0449C672.982 31.5879 674.81 31.3594 676.706 31.3594ZM681.581 46.5684L677.95 46.6953C674.971 46.7969 672.88 47.3047 671.678 48.2188C670.477 49.1328 669.876 50.3854 669.876 51.9766C669.876 53.3646 670.29 54.3802 671.12 55.0234C671.949 55.6497 673.041 55.9629 674.395 55.9629C676.46 55.9629 678.17 55.3789 679.524 54.2109C680.895 53.026 681.581 51.291 681.581 49.0059V46.5684ZM702.362 60H696.37V20.4922H702.362V60ZM345.898 132H324.875V94.8789H345.898V100.008H330.969V110.088H344.959V115.191H330.969V126.846H345.898V132ZM368.483 103.359C371.648 103.359 374.111 104.18 375.872 105.822C377.649 107.447 378.538 110.062 378.538 113.668V132H372.571V114.785C372.571 112.602 372.122 110.968 371.225 109.885C370.328 108.785 368.94 108.234 367.061 108.234C364.336 108.234 362.44 109.072 361.374 110.748C360.324 112.424 359.799 114.853 359.799 118.035V132H353.833V103.893H358.479L359.317 107.701H359.647C360.256 106.719 361.01 105.915 361.907 105.289C362.821 104.646 363.836 104.163 364.954 103.842C366.088 103.52 367.264 103.359 368.483 103.359ZM401.655 103.359C402.129 103.359 402.645 103.385 403.204 103.436C403.763 103.486 404.245 103.554 404.651 103.639L404.093 109.225C403.737 109.123 403.297 109.047 402.772 108.996C402.265 108.945 401.808 108.92 401.401 108.92C400.335 108.92 399.319 109.098 398.354 109.453C397.39 109.792 396.535 110.316 395.79 111.027C395.045 111.721 394.461 112.593 394.038 113.643C393.615 114.692 393.403 115.911 393.403 117.299V132H387.411V103.893H392.083L392.895 108.844H393.175C393.733 107.845 394.427 106.931 395.257 106.102C396.086 105.272 397.034 104.612 398.101 104.121C399.184 103.613 400.369 103.359 401.655 103.359ZM435.259 117.883C435.259 120.219 434.955 122.292 434.345 124.104C433.736 125.915 432.847 127.447 431.679 128.699C430.511 129.935 429.106 130.883 427.464 131.543C425.822 132.186 423.969 132.508 421.904 132.508C419.974 132.508 418.205 132.186 416.597 131.543C414.989 130.883 413.593 129.935 412.408 128.699C411.24 127.447 410.334 125.915 409.691 124.104C409.048 122.292 408.726 120.219 408.726 117.883C408.726 114.785 409.259 112.161 410.326 110.012C411.409 107.845 412.949 106.195 414.947 105.061C416.944 103.926 419.322 103.359 422.081 103.359C424.671 103.359 426.956 103.926 428.937 105.061C430.917 106.195 432.466 107.845 433.583 110.012C434.701 112.178 435.259 114.802 435.259 117.883ZM414.871 117.883C414.871 119.931 415.116 121.683 415.607 123.139C416.115 124.594 416.893 125.712 417.943 126.49C418.992 127.252 420.346 127.633 422.005 127.633C423.664 127.633 425.018 127.252 426.068 126.49C427.117 125.712 427.887 124.594 428.378 123.139C428.869 121.683 429.115 119.931 429.115 117.883C429.115 115.835 428.869 114.1 428.378 112.678C427.887 111.239 427.117 110.147 426.068 109.402C425.018 108.641 423.656 108.26 421.98 108.26C419.509 108.26 417.706 109.089 416.572 110.748C415.438 112.407 414.871 114.785 414.871 117.883ZM448.627 132H442.635V92.4922H448.627V132ZM463.67 132H457.678V92.4922H463.67V132ZM504.485 103.359C507.634 103.359 510.003 104.172 511.595 105.797C513.203 107.422 514.007 110.029 514.007 113.617V132H508.04V114.684C508.04 112.551 507.625 110.943 506.796 109.859C505.966 108.776 504.705 108.234 503.013 108.234C500.643 108.234 498.933 108.996 497.884 110.52C496.851 112.026 496.335 114.218 496.335 117.096V132H490.368V114.684C490.368 113.262 490.182 112.077 489.809 111.129C489.454 110.164 488.904 109.445 488.159 108.971C487.414 108.48 486.475 108.234 485.341 108.234C483.699 108.234 482.387 108.607 481.405 109.352C480.44 110.096 479.746 111.197 479.323 112.652C478.9 114.091 478.688 115.86 478.688 117.959V132H472.722V103.893H477.368L478.206 107.676H478.536C479.112 106.694 479.822 105.89 480.669 105.264C481.532 104.62 482.488 104.146 483.538 103.842C484.587 103.52 485.679 103.359 486.813 103.359C488.912 103.359 490.681 103.732 492.12 104.477C493.559 105.204 494.634 106.322 495.345 107.828H495.802C496.682 106.305 497.909 105.179 499.483 104.451C501.057 103.723 502.725 103.359 504.485 103.359ZM534.052 103.359C536.557 103.359 538.707 103.876 540.501 104.908C542.296 105.941 543.675 107.405 544.64 109.301C545.605 111.197 546.087 113.465 546.087 116.105V119.305H527.324C527.391 122.03 528.119 124.129 529.507 125.602C530.912 127.074 532.876 127.811 535.398 127.811C537.192 127.811 538.8 127.641 540.222 127.303C541.661 126.947 543.142 126.431 544.665 125.754V130.604C543.26 131.264 541.83 131.746 540.374 132.051C538.919 132.355 537.175 132.508 535.144 132.508C532.385 132.508 529.956 131.975 527.857 130.908C525.775 129.825 524.141 128.217 522.956 126.084C521.788 123.951 521.204 121.302 521.204 118.137C521.204 114.988 521.738 112.314 522.804 110.113C523.87 107.913 525.369 106.237 527.298 105.086C529.228 103.935 531.479 103.359 534.052 103.359ZM534.052 107.854C532.173 107.854 530.65 108.463 529.482 109.682C528.331 110.9 527.654 112.686 527.451 115.039H540.247C540.23 113.634 539.994 112.39 539.536 111.307C539.096 110.223 538.419 109.377 537.505 108.768C536.608 108.158 535.457 107.854 534.052 107.854ZM567.986 103.359C571.152 103.359 573.614 104.18 575.375 105.822C577.152 107.447 578.041 110.062 578.041 113.668V132H572.074V114.785C572.074 112.602 571.625 110.968 570.728 109.885C569.831 108.785 568.443 108.234 566.564 108.234C563.839 108.234 561.943 109.072 560.877 110.748C559.827 112.424 559.303 114.853 559.303 118.035V132H553.336V103.893H557.982L558.82 107.701H559.15C559.76 106.719 560.513 105.915 561.41 105.289C562.324 104.646 563.34 104.163 564.457 103.842C565.591 103.52 566.767 103.359 567.986 103.359ZM597.375 127.684C598.154 127.684 598.924 127.616 599.686 127.48C600.448 127.328 601.142 127.15 601.768 126.947V131.467C601.108 131.755 600.253 132 599.203 132.203C598.154 132.406 597.062 132.508 595.928 132.508C594.337 132.508 592.907 132.245 591.637 131.721C590.367 131.179 589.36 130.257 588.616 128.953C587.871 127.65 587.498 125.847 587.498 123.545V108.438H583.664V105.771L587.778 103.664L589.733 97.6465H593.491V103.893H601.539V108.438H593.491V123.469C593.491 124.891 593.846 125.949 594.557 126.643C595.268 127.337 596.207 127.684 597.375 127.684ZM652.777 113.084C652.777 117.265 651.998 120.76 650.441 123.57C648.883 126.363 646.624 128.471 643.661 129.893C640.699 131.298 637.128 132 632.947 132H622.638V94.8789H634.064C637.906 94.8789 641.224 95.5729 644.017 96.9609C646.81 98.332 648.968 100.372 650.491 103.08C652.015 105.771 652.777 109.106 652.777 113.084ZM646.429 113.262C646.429 110.215 645.947 107.71 644.982 105.746C644.034 103.783 642.629 102.327 640.767 101.379C638.922 100.414 636.645 99.9316 633.937 99.9316H628.732V126.896H633.048C637.534 126.896 640.885 125.754 643.103 123.469C645.32 121.184 646.429 117.781 646.429 113.262ZM671.705 103.359C675.26 103.359 677.942 104.146 679.754 105.721C681.582 107.295 682.496 109.749 682.496 113.084V132H678.256L677.113 128.014H676.91C676.114 129.029 675.293 129.867 674.447 130.527C673.601 131.188 672.619 131.678 671.502 132C670.401 132.339 669.056 132.508 667.465 132.508C665.789 132.508 664.291 132.203 662.97 131.594C661.65 130.967 660.609 130.02 659.847 128.75C659.086 127.48 658.705 125.872 658.705 123.926C658.705 121.031 659.78 118.856 661.929 117.4C664.096 115.945 667.363 115.141 671.73 114.988L676.605 114.811V113.338C676.605 111.391 676.148 110.003 675.234 109.174C674.337 108.344 673.067 107.93 671.426 107.93C670.021 107.93 668.658 108.133 667.338 108.539C666.017 108.945 664.731 109.445 663.478 110.037L661.549 105.822C662.92 105.094 664.477 104.502 666.22 104.045C667.981 103.588 669.809 103.359 671.705 103.359ZM676.58 118.568L672.949 118.695C669.97 118.797 667.879 119.305 666.677 120.219C665.476 121.133 664.875 122.385 664.875 123.977C664.875 125.365 665.289 126.38 666.119 127.023C666.948 127.65 668.04 127.963 669.394 127.963C671.459 127.963 673.169 127.379 674.523 126.211C675.894 125.026 676.58 123.291 676.58 121.006V118.568ZM701.83 127.684C702.609 127.684 703.379 127.616 704.141 127.48C704.903 127.328 705.597 127.15 706.223 126.947V131.467C705.563 131.755 704.708 132 703.658 132.203C702.609 132.406 701.517 132.508 700.383 132.508C698.792 132.508 697.362 132.245 696.092 131.721C694.823 131.179 693.815 130.257 693.071 128.953C692.326 127.65 691.953 125.847 691.953 123.545V108.438H688.119V105.771L692.233 103.664L694.188 97.6465H697.946V103.893H705.994V108.438H697.946V123.469C697.946 124.891 698.301 125.949 699.012 126.643C699.723 127.337 700.662 127.684 701.83 127.684ZM723.475 103.359C727.03 103.359 729.713 104.146 731.524 105.721C733.352 107.295 734.266 109.749 734.266 113.084V132H730.026L728.884 128.014H728.68C727.885 129.029 727.064 129.867 726.217 130.527C725.371 131.188 724.389 131.678 723.272 132C722.172 132.339 720.826 132.508 719.235 132.508C717.559 132.508 716.061 132.203 714.741 131.594C713.421 130.967 712.38 130.02 711.618 128.75C710.856 127.48 710.475 125.872 710.475 123.926C710.475 121.031 711.55 118.856 713.7 117.4C715.867 115.945 719.134 115.141 723.501 114.988L728.376 114.811V113.338C728.376 111.391 727.919 110.003 727.005 109.174C726.107 108.344 724.838 107.93 723.196 107.93C721.791 107.93 720.428 108.133 719.108 108.539C717.788 108.945 716.501 109.445 715.249 110.037L713.319 105.822C714.69 105.094 716.247 104.502 717.991 104.045C719.751 103.588 721.579 103.359 723.475 103.359ZM728.35 118.568L724.719 118.695C721.74 118.797 719.65 119.305 718.448 120.219C717.246 121.133 716.645 122.385 716.645 123.977C716.645 125.365 717.06 126.38 717.889 127.023C718.719 127.65 719.811 127.963 721.165 127.963C723.23 127.963 724.94 127.379 726.294 126.211C727.665 125.026 728.35 123.291 728.35 121.006V118.568ZM768.213 94.8789C771.412 94.8789 774.052 95.2682 776.134 96.0469C778.233 96.8255 779.791 98.0104 780.806 99.6016C781.839 101.193 782.355 103.215 782.355 105.67C782.355 107.498 782.017 109.055 781.34 110.342C780.662 111.628 779.774 112.695 778.674 113.541C777.573 114.387 776.397 115.064 775.144 115.572L785.681 132H778.8L769.838 117.121H763.871V132H757.777V94.8789H768.213ZM767.806 99.957H763.871V112.094H768.086C770.912 112.094 772.961 111.569 774.23 110.52C775.517 109.47 776.16 107.921 776.16 105.873C776.16 103.723 775.474 102.2 774.103 101.303C772.749 100.406 770.65 99.957 767.806 99.957ZM802.096 103.359C804.601 103.359 806.751 103.876 808.545 104.908C810.339 105.941 811.719 107.405 812.684 109.301C813.649 111.197 814.131 113.465 814.131 116.105V119.305H795.367C795.435 122.03 796.163 124.129 797.551 125.602C798.956 127.074 800.919 127.811 803.442 127.811C805.236 127.811 806.844 127.641 808.266 127.303C809.705 126.947 811.186 126.431 812.709 125.754V130.604C811.304 131.264 809.874 131.746 808.418 132.051C806.962 132.355 805.219 132.508 803.188 132.508C800.429 132.508 798 131.975 795.901 130.908C793.819 129.825 792.185 128.217 791 126.084C789.832 123.951 789.248 121.302 789.248 118.137C789.248 114.988 789.781 112.314 790.848 110.113C791.914 107.913 793.412 106.237 795.342 105.086C797.272 103.935 799.523 103.359 802.096 103.359ZM802.096 107.854C800.217 107.854 798.694 108.463 797.526 109.682C796.375 110.9 795.697 112.686 795.494 115.039H808.291C808.274 113.634 808.037 112.39 807.58 111.307C807.14 110.223 806.463 109.377 805.549 108.768C804.652 108.158 803.501 107.854 802.096 107.854ZM835.801 103.359C839.136 103.359 841.811 104.578 843.825 107.016C845.856 109.453 846.872 113.076 846.872 117.883C846.872 121.065 846.398 123.748 845.45 125.932C844.519 128.098 843.207 129.74 841.514 130.857C839.839 131.958 837.883 132.508 835.649 132.508C834.227 132.508 832.991 132.322 831.942 131.949C830.893 131.577 829.995 131.094 829.251 130.502C828.506 129.893 827.88 129.232 827.372 128.521H827.016C827.101 129.199 827.177 129.952 827.245 130.781C827.329 131.594 827.372 132.339 827.372 133.016V144.467H821.38V103.893H826.255L827.092 107.777H827.372C827.896 106.982 828.531 106.245 829.276 105.568C830.038 104.891 830.952 104.358 832.018 103.969C833.102 103.562 834.363 103.359 835.801 103.359ZM834.202 108.234C832.56 108.234 831.24 108.564 830.241 109.225C829.259 109.868 828.54 110.841 828.083 112.145C827.643 113.448 827.406 115.081 827.372 117.045V117.883C827.372 119.965 827.583 121.734 828.006 123.189C828.447 124.628 829.166 125.729 830.165 126.49C831.18 127.235 832.551 127.607 834.278 127.607C835.734 127.607 836.936 127.21 837.883 126.414C838.848 125.618 839.568 124.484 840.042 123.012C840.516 121.539 840.753 119.804 840.753 117.807C840.753 114.777 840.211 112.424 839.128 110.748C838.061 109.072 836.419 108.234 834.202 108.234ZM879.181 117.883C879.181 120.219 878.876 122.292 878.267 124.104C877.657 125.915 876.769 127.447 875.601 128.699C874.433 129.935 873.028 130.883 871.386 131.543C869.744 132.186 867.89 132.508 865.825 132.508C863.896 132.508 862.127 132.186 860.519 131.543C858.911 130.883 857.514 129.935 856.329 128.699C855.161 127.447 854.256 125.915 853.612 124.104C852.969 122.292 852.648 120.219 852.648 117.883C852.648 114.785 853.181 112.161 854.247 110.012C855.331 107.845 856.871 106.195 858.868 105.061C860.866 103.926 863.244 103.359 866.003 103.359C868.593 103.359 870.878 103.926 872.859 105.061C874.839 106.195 876.388 107.845 877.505 110.012C878.622 112.178 879.181 114.802 879.181 117.883ZM858.792 117.883C858.792 119.931 859.038 121.683 859.528 123.139C860.036 124.594 860.815 125.712 861.864 126.49C862.914 127.252 864.268 127.633 865.927 127.633C867.586 127.633 868.94 127.252 869.989 126.49C871.039 125.712 871.809 124.594 872.3 123.139C872.791 121.683 873.036 119.931 873.036 117.883C873.036 115.835 872.791 114.1 872.3 112.678C871.809 111.239 871.039 110.147 869.989 109.402C868.94 108.641 867.577 108.26 865.901 108.26C863.43 108.26 861.627 109.089 860.493 110.748C859.359 112.407 858.792 114.785 858.792 117.883ZM900.8 103.359C901.274 103.359 901.791 103.385 902.349 103.436C902.908 103.486 903.39 103.554 903.797 103.639L903.238 109.225C902.882 109.123 902.442 109.047 901.918 108.996C901.41 108.945 900.953 108.92 900.547 108.92C899.48 108.92 898.464 109.098 897.5 109.453C896.535 109.792 895.68 110.316 894.935 111.027C894.19 111.721 893.606 112.593 893.183 113.643C892.76 114.692 892.548 115.911 892.548 117.299V132H886.556V103.893H891.228L892.041 108.844H892.32C892.879 107.845 893.573 106.931 894.402 106.102C895.231 105.272 896.179 104.612 897.246 104.121C898.329 103.613 899.514 103.359 900.8 103.359ZM919.982 127.684C920.761 127.684 921.531 127.616 922.293 127.48C923.055 127.328 923.749 127.15 924.375 126.947V131.467C923.715 131.755 922.86 132 921.811 132.203C920.761 132.406 919.669 132.508 918.535 132.508C916.944 132.508 915.514 132.245 914.244 131.721C912.975 131.179 911.968 130.257 911.223 128.953C910.478 127.65 910.106 125.847 910.106 123.545V108.438H906.272V105.771L910.385 103.664L912.34 97.6465H916.098V103.893H924.147V108.438H916.098V123.469C916.098 124.891 916.453 125.949 917.164 126.643C917.875 127.337 918.815 127.684 919.982 127.684ZM949.499 123.977C949.499 125.822 949.05 127.379 948.153 128.648C947.256 129.918 945.944 130.883 944.217 131.543C942.508 132.186 940.409 132.508 937.92 132.508C935.957 132.508 934.264 132.364 932.842 132.076C931.437 131.805 930.109 131.382 928.856 130.807V125.652C930.193 126.279 931.691 126.82 933.35 127.277C935.026 127.734 936.609 127.963 938.098 127.963C940.062 127.963 941.475 127.658 942.338 127.049C943.202 126.423 943.633 125.593 943.633 124.561C943.633 123.951 943.456 123.41 943.1 122.936C942.762 122.445 942.118 121.945 941.17 121.438C940.239 120.913 938.868 120.286 937.057 119.559C935.28 118.848 933.782 118.137 932.563 117.426C931.344 116.715 930.422 115.86 929.795 114.861C929.169 113.846 928.856 112.551 928.856 110.977C928.856 108.488 929.838 106.601 931.801 105.314C933.782 104.011 936.397 103.359 939.647 103.359C941.374 103.359 942.999 103.537 944.522 103.893C946.062 104.231 947.569 104.73 949.042 105.391L947.163 109.885C945.893 109.326 944.615 108.869 943.329 108.514C942.059 108.141 940.764 107.955 939.444 107.955C937.904 107.955 936.727 108.192 935.915 108.666C935.119 109.14 934.721 109.817 934.721 110.697C934.721 111.357 934.916 111.916 935.305 112.373C935.695 112.83 936.363 113.287 937.311 113.744C938.276 114.201 939.613 114.768 941.323 115.445C942.999 116.089 944.446 116.766 945.665 117.477C946.9 118.171 947.848 119.025 948.508 120.041C949.169 121.057 949.499 122.368 949.499 123.977Z" fill="#00395E"/>
<line x1="274" y1="4" x2="274" y2="140" stroke="#B3ECF8" stroke-width="4"/>
</svg>
